{"glyphs":{"0":{"ha":870,"x_min":59,"x_max":811,"o":"m 435 -13 q 155 114 251 -13 q 59 514 59 242 q 155 914 59 786 q 435 1041 251 1041 q 715 914 619 1041 q 811 514 811 786 q 715 114 811 242 q 435 -13 618 -13 m 435 165 q 525 198 490 165 q 580 306 561 230 q 598 513 598 383 q 580 721 598 644 q 525 830 561 798 q 435 863 490 863 q 345 830 381 863 q 291 722 309 798 q 272 515 272 645 q 291 307 272 383 q 345 198 309 230 q 435 165 381 165 z "},"1":{"ha":520,"x_min":12,"x_max":429,"o":"m 294 1031 l 429 1031 l 429 0 l 213 0 l 213 775 l 12 641 l 12 843 l 294 1031 z "},"2":{"ha":696,"x_min":17,"x_max":663,"o":"m 663 185 l 663 0 l 30 0 l 30 119 l 287 467 q 375 611 349 551 q 402 724 402 671 q 359 828 402 794 q 224 862 317 862 q 116 852 169 862 q 17 825 63 843 l 17 1004 q 127 1031 61 1021 q 252 1041 192 1041 q 523 969 431 1041 q 616 743 616 897 q 584 584 615 664 q 480 407 553 503 l 312 185 l 663 185 z "},"3":{"ha":704,"x_min":24,"x_max":668,"o":"m 465 531 q 616 447 565 510 q 668 284 668 383 q 622 123 668 190 q 487 22 576 56 q 268 -13 397 -13 q 24 20 138 -13 l 24 187 q 142 163 78 172 q 261 154 206 154 q 414 190 365 154 q 463 298 463 226 q 414 405 463 369 q 257 440 365 440 l 126 440 l 126 611 l 231 611 q 430 747 430 611 q 387 842 430 811 q 253 874 344 874 q 143 864 199 874 q 40 838 87 855 l 40 1005 q 152 1031 87 1022 q 281 1041 218 1041 q 546 971 456 1041 q 637 769 637 901 q 591 619 637 681 q 465 531 546 556 z "},"4":{"ha":832,"x_min":24,"x_max":811,"o":"m 811 383 l 811 215 l 685 215 l 685 0 l 492 0 l 492 215 l 24 215 l 24 335 l 365 1028 l 571 1028 l 259 383 l 492 383 l 515 681 l 685 681 l 685 383 l 811 383 z "},"5":{"ha":714,"x_min":44,"x_max":685,"o":"m 285 621 q 514 574 426 611 q 644 472 602 538 q 685 307 685 406 q 583 68 685 149 q 288 -13 481 -13 q 44 22 160 -13 l 44 190 q 162 164 98 173 q 281 155 226 155 q 432 191 383 155 q 480 299 480 226 q 454 381 480 350 q 364 431 428 413 q 181 457 299 450 l 74 464 l 107 1028 l 647 1028 l 647 853 l 299 853 l 285 621 z "},"6":{"ha":817,"x_min":65,"x_max":785,"o":"m 474 617 q 633 584 563 617 q 744 482 703 551 q 785 310 785 413 q 742 136 785 209 q 623 25 699 63 q 444 -13 546 -13 q 166 106 266 -13 q 65 484 65 225 q 189 903 65 765 q 542 1041 313 1041 q 734 1013 661 1041 l 734 842 q 550 870 651 870 q 349 796 416 870 q 277 560 282 722 q 367 602 316 588 q 474 617 418 617 m 447 149 q 549 187 510 149 q 588 303 588 226 q 547 419 588 381 q 431 457 505 457 q 350 444 390 457 q 278 407 310 432 q 302 252 281 308 q 359 172 324 195 q 447 149 395 149 z "},"7":{"ha":663,"x_min":8,"x_max":623,"o":"m 8 1028 l 623 1028 l 623 908 l 310 0 l 87 0 l 391 842 l 8 842 l 8 1028 z "},"8":{"ha":870,"x_min":51,"x_max":818,"o":"m 640 540 q 777 431 737 492 q 818 279 818 369 q 774 126 818 192 q 643 24 729 60 q 438 -13 558 -13 q 224 21 311 -13 q 94 116 138 55 q 51 260 51 177 q 95 404 51 340 q 226 507 140 467 q 112 615 147 553 q 77 758 77 676 q 120 907 77 843 q 245 1006 163 971 q 444 1041 328 1041 q 629 1009 551 1041 q 749 919 707 978 q 791 779 791 860 q 755 644 791 705 q 640 540 718 583 m 444 888 q 324 855 365 888 q 282 765 282 822 q 299 697 282 724 q 363 645 317 669 q 497 594 409 622 q 580 668 554 628 q 606 762 606 708 q 564 855 606 823 q 444 888 522 888 m 438 140 q 572 174 527 140 q 617 268 617 207 q 597 338 617 310 q 531 389 578 366 q 399 437 485 413 l 365 447 q 281 375 310 419 q 252 280 252 331 q 299 176 252 212 q 438 140 347 140 z "},"9":{"ha":817,"x_min":33,"x_max":752,"o":"m 373 1041 q 652 922 551 1041 q 752 544 752 803 q 628 125 752 263 q 275 -13 504 -13 q 83 15 156 -13 l 83 185 q 267 158 166 158 q 468 232 401 158 q 540 468 535 306 q 450 425 501 440 q 344 410 399 410 q 185 444 255 410 q 74 546 115 477 q 33 717 33 615 q 75 892 33 819 q 195 1003 118 965 q 373 1041 272 1041 m 229 725 q 271 609 229 647 q 386 571 313 571 q 467 583 427 571 q 540 621 507 596 q 515 776 536 719 q 458 856 494 833 q 371 879 422 879 q 268 841 307 879 q 229 725 229 802 z "},"\u0000":{"ha":0,"x_min":0,"x_max":0,"o":""},"\r":{"ha":324,"x_min":0,"x_max":0,"o":""}," ":{"ha":324,"x_min":0,"x_max":0,"o":""},"A":{"ha":937,"x_min":5,"x_max":931,"o":"m 718 0 l 640 274 l 293 274 l 216 0 l 5 0 l 309 1028 l 628 1028 l 931 0 l 718 0 m 344 453 l 590 453 l 467 890 l 344 453 z "},"Á":{"ha":937,"x_min":5,"x_max":931,"o":"m 718 0 l 640 274 l 293 274 l 216 0 l 5 0 l 309 1028 l 628 1028 l 931 0 l 718 0 m 344 453 l 590 453 l 467 890 l 344 453 m 372 1107 l 490 1318 l 713 1318 l 563 1107 l 372 1107 z "},"Ă":{"ha":937,"x_min":5,"x_max":931,"o":"m 718 0 l 640 274 l 293 274 l 216 0 l 5 0 l 309 1028 l 628 1028 l 931 0 l 718 0 m 344 453 l 590 453 l 467 890 l 344 453 m 468 1110 q 294 1163 358 1110 q 221 1313 231 1216 l 351 1313 q 386 1239 359 1263 q 468 1216 414 1216 q 550 1239 522 1216 q 584 1313 577 1263 l 715 1313 q 642 1163 705 1215 q 468 1110 578 1110 z "},"Ắ":{"ha":937,"x_min":5,"x_max":931,"o":"m 718 0 l 640 274 l 293 274 l 216 0 l 5 0 l 309 1028 l 628 1028 l 931 0 l 718 0 m 344 453 l 590 453 l 467 890 l 344 453 m 413 1273 l 491 1440 l 631 1440 l 522 1273 l 413 1273 m 468 1110 q 297 1158 358 1110 q 224 1291 235 1206 l 341 1291 q 378 1224 350 1245 q 468 1202 407 1202 q 558 1224 529 1202 q 599 1291 587 1245 l 712 1291 q 639 1158 701 1206 q 468 1110 577 1110 z "},"Ặ":{"ha":937,"x_min":5,"x_max":931,"o":"m 718 0 l 640 274 l 293 274 l 216 0 l 5 0 l 309 1028 l 628 1028 l 931 0 l 718 0 m 344 453 l 590 453 l 467 890 l 344 453 m 469 -292 q 371 -266 406 -292 q 336 -190 336 -240 q 371 -115 336 -141 q 469 -88 406 -88 q 566 -115 532 -88 q 601 -190 601 -141 q 566 -266 601 -240 q 469 -292 532 -292 m 468 1110 q 294 1163 358 1110 q 221 1313 231 1216 l 351 1313 q 386 1239 359 1263 q 468 1216 414 1216 q 550 1239 522 1216 q 584 1313 577 1263 l 715 1313 q 642 1163 705 1215 q 468 1110 578 1110 z "},"Ằ":{"ha":937,"x_min":5,"x_max":931,"o":"m 718 0 l 640 274 l 293 274 l 216 0 l 5 0 l 309 1028 l 628 1028 l 931 0 l 718 0 m 344 453 l 590 453 l 467 890 l 344 453 m 413 1273 l 304 1440 l 444 1440 l 522 1273 l 413 1273 m 467 1110 q 297 1158 358 1110 q 224 1291 235 1206 l 336 1291 q 377 1224 349 1245 q 467 1202 406 1202 q 557 1224 528 1202 q 594 1291 585 1245 l 712 1291 q 639 1158 701 1206 q 467 1110 577 1110 z "},"Ẳ":{"ha":937,"x_min":5,"x_max":931,"o":"m 718 0 l 640 274 l 293 274 l 216 0 l 5 0 l 309 1028 l 628 1028 l 931 0 l 718 0 m 344 453 l 590 453 l 467 890 l 344 453 m 413 1273 q 435 1318 415 1302 q 487 1348 454 1334 q 514 1363 506 1357 q 523 1376 523 1369 q 451 1400 523 1400 q 322 1385 383 1400 l 322 1457 q 390 1469 349 1465 q 467 1474 431 1474 q 597 1453 556 1474 q 639 1390 639 1433 q 623 1352 639 1366 q 576 1323 607 1338 q 538 1299 551 1310 q 522 1273 524 1289 l 413 1273 m 467 1110 q 297 1158 358 1110 q 224 1291 235 1206 l 341 1291 q 378 1224 350 1245 q 467 1202 406 1202 q 558 1224 528 1202 q 599 1291 587 1245 l 712 1291 q 639 1158 701 1206 q 467 1110 577 1110 z "},"Ẵ":{"ha":937,"x_min":5,"x_max":931,"o":"m 718 0 l 640 274 l 293 274 l 216 0 l 5 0 l 309 1028 l 628 1028 l 931 0 l 718 0 m 344 453 l 590 453 l 467 890 l 344 453 m 569 1326 q 516 1332 542 1326 q 455 1349 491 1338 q 403 1364 422 1360 q 365 1369 384 1369 q 294 1358 326 1369 q 224 1322 263 1348 l 224 1420 q 290 1455 258 1445 q 366 1464 322 1464 q 418 1458 394 1464 q 481 1440 442 1452 q 531 1425 511 1430 q 572 1420 551 1420 q 641 1431 610 1420 q 712 1467 672 1441 l 712 1369 q 646 1335 678 1344 q 569 1326 614 1326 m 467 1110 q 297 1158 358 1110 q 224 1291 235 1206 l 341 1291 q 378 1224 350 1245 q 467 1202 406 1202 q 557 1224 528 1202 q 594 1291 585 1245 l 712 1291 q 639 1158 701 1206 q 467 1110 577 1110 z "},"Â":{"ha":937,"x_min":5,"x_max":931,"o":"m 718 0 l 640 274 l 293 274 l 216 0 l 5 0 l 309 1028 l 628 1028 l 931 0 l 718 0 m 344 453 l 590 453 l 467 890 l 344 453 m 713 1107 l 560 1107 l 468 1240 l 376 1107 l 223 1107 l 377 1318 l 558 1318 l 713 1107 z "},"Ấ":{"ha":937,"x_min":5,"x_max":931,"o":"m 718 0 l 640 274 l 293 274 l 216 0 l 5 0 l 309 1028 l 628 1028 l 931 0 l 718 0 m 344 453 l 590 453 l 467 890 l 344 453 m 713 1433 l 852 1433 l 743 1263 l 634 1263 l 713 1433 m 377 1296 l 558 1296 l 713 1107 l 560 1107 l 468 1227 l 376 1107 l 223 1107 l 377 1296 z "},"Ậ":{"ha":937,"x_min":5,"x_max":931,"o":"m 718 0 l 640 274 l 293 274 l 216 0 l 5 0 l 309 1028 l 628 1028 l 931 0 l 718 0 m 344 453 l 590 453 l 467 890 l 344 453 m 469 -292 q 371 -266 406 -292 q 336 -190 336 -240 q 371 -115 336 -141 q 469 -88 406 -88 q 566 -115 532 -88 q 601 -190 601 -141 q 566 -266 601 -240 q 469 -292 532 -292 m 713 1107 l 560 1107 l 468 1240 l 376 1107 l 223 1107 l 377 1318 l 558 1318 l 713 1107 z "},"Ầ":{"ha":937,"x_min":5,"x_max":931,"o":"m 718 0 l 640 274 l 293 274 l 216 0 l 5 0 l 309 1028 l 628 1028 l 931 0 l 718 0 m 344 453 l 590 453 l 467 890 l 344 453 m 767 1263 l 658 1263 l 549 1433 l 690 1433 l 767 1263 m 377 1296 l 558 1296 l 713 1107 l 560 1107 l 468 1227 l 376 1107 l 223 1107 l 377 1296 z "},"Ẩ":{"ha":937,"x_min":5,"x_max":931,"o":"m 718 0 l 640 274 l 293 274 l 216 0 l 5 0 l 309 1028 l 628 1028 l 931 0 l 718 0 m 344 453 l 590 453 l 467 890 l 344 453 m 688 1463 q 818 1443 776 1463 q 860 1380 860 1422 q 844 1341 860 1356 q 797 1312 828 1327 q 758 1289 771 1299 q 742 1263 744 1278 l 634 1263 q 655 1308 636 1292 q 707 1338 674 1324 q 735 1351 726 1345 q 744 1365 744 1357 q 726 1384 744 1378 q 672 1390 709 1390 q 543 1374 604 1390 l 543 1447 q 611 1458 570 1453 q 688 1463 653 1463 m 377 1296 l 558 1296 l 713 1107 l 560 1107 l 468 1227 l 376 1107 l 223 1107 l 377 1296 z "},"Ẫ":{"ha":937,"x_min":5,"x_max":931,"o":"m 718 0 l 640 274 l 293 274 l 216 0 l 5 0 l 309 1028 l 628 1028 l 931 0 l 718 0 m 344 453 l 590 453 l 467 890 l 344 453 m 574 1420 q 643 1431 612 1420 q 713 1467 674 1441 l 713 1369 q 648 1335 680 1344 q 572 1326 616 1326 q 517 1332 543 1326 q 455 1349 490 1338 q 401 1364 419 1360 q 362 1369 382 1369 q 292 1358 324 1369 q 223 1322 261 1348 l 223 1420 q 288 1455 256 1445 q 364 1464 320 1464 q 418 1458 392 1464 q 481 1440 443 1452 q 533 1425 513 1430 q 574 1420 553 1420 m 377 1296 l 558 1296 l 713 1107 l 560 1107 l 468 1227 l 376 1107 l 223 1107 l 377 1296 z "},"Ȁ":{"ha":937,"x_min":5,"x_max":931,"o":"m 718 0 l 640 274 l 293 274 l 216 0 l 5 0 l 309 1028 l 628 1028 l 931 0 l 718 0 m 344 453 l 590 453 l 467 890 l 344 453 m 249 1107 l 152 1318 l 324 1318 l 411 1107 l 249 1107 m 525 1107 l 428 1318 l 599 1318 l 687 1107 l 525 1107 z "},"Ä":{"ha":937,"x_min":5,"x_max":931,"o":"m 718 0 l 640 274 l 293 274 l 216 0 l 5 0 l 309 1028 l 628 1028 l 931 0 l 718 0 m 344 453 l 590 453 l 467 890 l 344 453 m 297 1114 q 210 1140 240 1114 q 179 1216 179 1167 q 210 1291 179 1265 q 297 1318 241 1318 q 384 1291 353 1318 q 415 1216 415 1265 q 384 1141 415 1167 q 297 1114 353 1114 m 639 1114 q 551 1140 582 1114 q 521 1216 521 1167 q 552 1291 521 1265 q 639 1318 583 1318 q 726 1291 695 1318 q 756 1216 756 1265 q 726 1141 756 1167 q 639 1114 695 1114 z "},"Ạ":{"ha":937,"x_min":5,"x_max":931,"o":"m 718 0 l 640 274 l 293 274 l 216 0 l 5 0 l 309 1028 l 628 1028 l 931 0 l 718 0 m 344 453 l 590 453 l 467 890 l 344 453 m 469 -292 q 371 -266 406 -292 q 336 -190 336 -240 q 371 -115 336 -141 q 469 -88 406 -88 q 566 -115 532 -88 q 601 -190 601 -141 q 566 -266 601 -240 q 469 -292 532 -292 z "},"À":{"ha":937,"x_min":5,"x_max":931,"o":"m 718 0 l 640 274 l 293 274 l 216 0 l 5 0 l 309 1028 l 628 1028 l 931 0 l 718 0 m 344 453 l 590 453 l 467 890 l 344 453 m 372 1107 l 223 1318 l 445 1318 l 563 1107 l 372 1107 z "},"Ả":{"ha":937,"x_min":5,"x_max":931,"o":"m 718 0 l 640 274 l 293 274 l 216 0 l 5 0 l 309 1028 l 628 1028 l 931 0 l 718 0 m 344 453 l 590 453 l 467 890 l 344 453 m 413 1107 q 435 1158 415 1140 q 488 1192 455 1176 q 515 1207 506 1201 q 523 1222 523 1213 q 506 1241 523 1235 q 451 1248 488 1248 q 322 1231 385 1248 l 322 1314 q 390 1327 349 1322 q 467 1332 431 1332 q 597 1309 556 1332 q 639 1238 639 1286 q 623 1195 639 1211 q 576 1163 608 1180 q 538 1136 551 1148 q 522 1107 524 1125 l 413 1107 z "},"Ȃ":{"ha":937,"x_min":5,"x_max":931,"o":"m 718 0 l 640 274 l 293 274 l 216 0 l 5 0 l 309 1028 l 628 1028 l 931 0 l 718 0 m 344 453 l 590 453 l 467 890 l 344 453 m 221 1113 q 294 1263 231 1210 q 467 1316 357 1316 q 641 1263 578 1316 q 715 1113 705 1210 l 584 1113 q 549 1186 576 1163 q 467 1210 521 1210 q 386 1186 413 1210 q 351 1113 358 1163 l 221 1113 z "},"Ā":{"ha":937,"x_min":5,"x_max":931,"o":"m 718 0 l 640 274 l 293 274 l 216 0 l 5 0 l 309 1028 l 628 1028 l 931 0 l 718 0 m 344 453 l 590 453 l 467 890 l 344 453 m 222 1146 l 222 1281 l 713 1281 l 713 1146 l 222 1146 z "},"Ą":{"ha":937,"x_min":5,"x_max":963,"o":"m 866 -219 q 963 -199 912 -219 l 963 -285 q 839 -308 904 -308 q 697 -270 744 -308 q 649 -164 649 -232 q 675 -75 649 -115 q 759 0 701 -35 l 718 0 l 640 274 l 293 274 l 216 0 l 5 0 l 309 1028 l 628 1028 l 931 0 q 805 -72 840 -35 q 771 -151 771 -108 q 866 -219 771 -219 m 344 453 l 590 453 l 467 890 l 344 453 z "},"Å":{"ha":937,"x_min":5,"x_max":931,"o":"m 718 0 l 640 274 l 293 274 l 216 0 l 5 0 l 309 1028 l 628 1028 l 931 0 l 718 0 m 344 453 l 590 453 l 467 890 l 344 453 m 469 1063 q 392 1082 426 1063 q 339 1134 358 1101 q 319 1208 319 1167 q 339 1283 319 1250 q 392 1335 358 1317 q 469 1354 426 1354 q 546 1335 512 1354 q 599 1283 580 1317 q 619 1208 619 1250 q 599 1134 619 1167 q 546 1082 580 1101 q 469 1063 512 1063 m 469 1142 q 516 1160 498 1142 q 533 1208 533 1178 q 516 1257 533 1239 q 469 1275 498 1275 q 423 1257 440 1275 q 405 1208 405 1239 q 423 1160 405 1178 q 469 1142 440 1142 z "},"Ǻ":{"ha":937,"x_min":5,"x_max":931,"o":"m 718 0 l 640 274 l 293 274 l 216 0 l 5 0 l 309 1028 l 628 1028 l 931 0 l 718 0 m 344 453 l 590 453 l 467 890 l 344 453 m 599 1283 q 619 1209 619 1250 q 599 1134 619 1167 q 546 1082 580 1101 q 469 1063 512 1063 q 392 1082 426 1063 q 339 1134 358 1101 q 319 1209 319 1167 q 339 1284 319 1251 q 392 1336 358 1317 q 469 1355 426 1355 q 503 1351 485 1355 l 576 1438 l 739 1438 l 599 1283 m 469 1142 q 516 1160 498 1142 q 533 1209 533 1178 q 516 1258 533 1240 q 469 1276 498 1276 q 423 1258 440 1276 q 405 1209 405 1240 q 423 1160 405 1178 q 469 1142 440 1142 z "},"Ã":{"ha":937,"x_min":5,"x_max":931,"o":"m 718 0 l 640 274 l 293 274 l 216 0 l 5 0 l 309 1028 l 628 1028 l 931 0 l 718 0 m 344 453 l 590 453 l 467 890 l 344 453 m 583 1123 q 521 1131 550 1123 q 456 1152 492 1138 q 397 1171 419 1165 q 350 1177 374 1177 q 279 1165 310 1177 q 217 1126 248 1153 l 217 1256 q 276 1294 243 1282 q 353 1307 308 1307 q 414 1299 385 1307 q 480 1277 442 1292 q 538 1258 515 1264 q 585 1251 561 1251 q 656 1264 626 1251 q 719 1302 687 1276 l 719 1173 q 660 1135 692 1147 q 583 1123 628 1123 z "},"Æ":{"ha":1304,"x_min":5,"x_max":1260,"o":"m 838 181 l 1260 181 l 1260 0 l 641 0 l 622 273 l 297 273 l 218 0 l 5 0 l 311 1028 l 1253 1028 l 1253 847 l 786 847 l 804 616 l 1183 616 l 1183 435 l 818 435 l 838 181 m 349 454 l 608 454 l 581 847 l 463 847 l 349 454 z "},"Ǽ":{"ha":1304,"x_min":5,"x_max":1260,"o":"m 838 181 l 1260 181 l 1260 0 l 641 0 l 622 273 l 297 273 l 218 0 l 5 0 l 311 1028 l 1253 1028 l 1253 847 l 786 847 l 804 616 l 1183 616 l 1183 435 l 818 435 l 838 181 m 349 454 l 608 454 l 581 847 l 463 847 l 349 454 m 571 1107 l 688 1318 l 911 1318 l 761 1107 l 571 1107 z "},"B":{"ha":879,"x_min":84,"x_max":847,"o":"m 656 531 q 797 449 747 510 q 847 287 847 388 q 732 63 847 138 q 361 -12 616 -12 q 223 -6 299 -12 q 84 8 148 -1 l 84 1008 q 236 1032 155 1023 q 395 1040 317 1040 q 635 1010 542 1040 q 773 917 728 979 q 818 756 818 854 q 776 613 818 674 q 656 531 733 553 m 427 876 q 295 865 360 876 l 295 610 l 430 610 q 538 624 498 610 q 597 667 578 638 q 615 742 615 696 q 596 820 615 791 q 537 863 578 849 q 427 876 496 876 m 419 152 q 552 167 503 152 q 624 215 602 183 q 645 298 645 247 q 598 406 645 372 q 450 440 551 440 l 295 440 l 295 158 q 419 152 363 152 z "},"C":{"ha":794,"x_min":52,"x_max":768,"o":"m 549 -13 q 179 113 306 -13 q 52 512 52 238 q 184 909 52 778 q 562 1041 316 1041 q 768 1017 673 1041 l 768 836 q 579 860 674 860 q 411 826 477 860 q 312 716 345 792 q 278 515 278 640 q 311 309 278 385 q 409 201 344 233 q 575 168 474 168 q 768 202 662 168 l 768 21 q 665 -4 723 5 q 549 -13 608 -13 z "},"Ć":{"ha":794,"x_min":52,"x_max":768,"o":"m 549 -13 q 179 113 306 -13 q 52 512 52 238 q 184 909 52 778 q 562 1041 316 1041 q 768 1017 673 1041 l 768 836 q 579 860 674 860 q 411 826 477 860 q 312 716 345 792 q 278 515 278 640 q 311 309 278 385 q 409 201 344 233 q 575 168 474 168 q 768 202 662 168 l 768 21 q 665 -4 723 5 q 549 -13 608 -13 m 394 1107 l 511 1318 l 734 1318 l 584 1107 l 394 1107 z "},"Č":{"ha":794,"x_min":52,"x_max":768,"o":"m 549 -13 q 179 113 306 -13 q 52 512 52 238 q 184 909 52 778 q 562 1041 316 1041 q 768 1017 673 1041 l 768 836 q 579 860 674 860 q 411 826 477 860 q 312 716 345 792 q 278 515 278 640 q 311 309 278 385 q 409 201 344 233 q 575 168 474 168 q 768 202 662 168 l 768 21 q 665 -4 723 5 q 549 -13 608 -13 m 581 1318 l 734 1318 l 580 1107 l 399 1107 l 244 1318 l 397 1318 l 490 1185 l 581 1318 z "},"Ç":{"ha":794,"x_min":52,"x_max":768,"o":"m 579 860 q 411 826 477 860 q 312 716 345 792 q 278 515 278 640 q 311 309 278 385 q 409 201 344 233 q 575 168 474 168 q 768 202 662 168 l 768 21 q 665 -4 723 5 q 549 -13 608 -13 l 531 -13 l 531 -60 q 624 -100 592 -69 q 656 -181 656 -131 q 609 -274 656 -241 q 469 -308 563 -308 q 335 -287 395 -308 l 335 -201 q 397 -217 365 -212 q 458 -222 429 -222 q 520 -211 500 -222 q 540 -173 540 -199 q 456 -122 540 -122 l 426 -122 l 426 -4 q 148 150 243 24 q 52 512 52 275 q 184 909 52 778 q 562 1041 316 1041 q 768 1017 673 1041 l 768 836 q 579 860 674 860 z "},"Ḉ":{"ha":794,"x_min":52,"x_max":768,"o":"m 734 1318 l 584 1107 l 394 1107 l 511 1318 l 734 1318 m 579 860 q 411 826 477 860 q 312 716 345 792 q 278 515 278 640 q 311 309 278 385 q 409 201 344 233 q 575 168 474 168 q 768 202 662 168 l 768 21 q 665 -4 723 5 q 549 -13 608 -13 l 531 -13 l 531 -60 q 624 -100 592 -69 q 656 -181 656 -131 q 609 -274 656 -241 q 469 -308 563 -308 q 335 -287 395 -308 l 335 -201 q 397 -217 365 -212 q 458 -222 429 -222 q 520 -211 500 -222 q 540 -173 540 -199 q 456 -122 540 -122 l 426 -122 l 426 -4 q 148 150 243 24 q 52 512 52 275 q 184 909 52 778 q 562 1041 316 1041 q 768 1017 673 1041 l 768 836 q 579 860 674 860 z "},"Ĉ":{"ha":794,"x_min":52,"x_max":768,"o":"m 549 -13 q 179 113 306 -13 q 52 512 52 238 q 184 909 52 778 q 562 1041 316 1041 q 768 1017 673 1041 l 768 836 q 579 860 674 860 q 411 826 477 860 q 312 716 345 792 q 278 515 278 640 q 311 309 278 385 q 409 201 344 233 q 575 168 474 168 q 768 202 662 168 l 768 21 q 665 -4 723 5 q 549 -13 608 -13 m 734 1107 l 581 1107 l 490 1240 l 397 1107 l 244 1107 l 399 1318 l 580 1318 l 734 1107 z "},"Ċ":{"ha":794,"x_min":52,"x_max":768,"o":"m 549 -13 q 179 113 306 -13 q 52 512 52 238 q 184 909 52 778 q 562 1041 316 1041 q 768 1017 673 1041 l 768 836 q 579 860 674 860 q 411 826 477 860 q 312 716 345 792 q 278 515 278 640 q 311 309 278 385 q 409 201 344 233 q 575 168 474 168 q 768 202 662 168 l 768 21 q 665 -4 723 5 q 549 -13 608 -13 m 490 1114 q 391 1140 426 1114 q 357 1216 357 1166 q 392 1292 357 1265 q 490 1318 426 1318 q 587 1292 553 1318 q 622 1216 622 1265 q 587 1140 622 1166 q 490 1114 553 1114 z "},"D":{"ha":964,"x_min":84,"x_max":911,"o":"m 347 -11 q 84 4 213 -11 l 84 1008 q 383 1040 237 1040 q 780 911 648 1040 q 911 514 911 783 q 849 216 911 332 q 662 44 787 99 q 347 -11 538 -11 m 403 168 q 562 202 499 168 q 657 312 625 235 q 689 515 689 388 q 657 717 689 640 q 561 827 624 793 q 403 862 499 862 q 300 852 350 862 l 300 172 q 403 168 344 168 z "},"Ǳ":{"ha":1732,"x_min":84,"x_max":1699,"o":"m 347 -11 q 84 4 213 -11 l 84 1008 q 383 1040 237 1040 q 780 911 648 1040 q 911 514 911 783 q 849 216 911 332 q 662 44 787 99 q 347 -11 538 -11 m 403 168 q 562 202 499 168 q 657 312 625 235 q 689 515 689 388 q 657 717 689 640 q 561 827 624 793 q 403 862 499 862 q 300 852 350 862 l 300 172 q 403 168 344 168 m 1246 187 l 1699 187 l 1699 0 l 965 0 l 965 120 l 1412 841 l 973 841 l 973 1028 l 1692 1028 l 1692 908 l 1246 187 z "},"Ǆ":{"ha":1732,"x_min":84,"x_max":1699,"o":"m 347 -11 q 84 4 213 -11 l 84 1008 q 383 1040 237 1040 q 780 911 648 1040 q 911 514 911 783 q 849 216 911 332 q 662 44 787 99 q 347 -11 538 -11 m 403 168 q 562 202 499 168 q 657 312 625 235 q 689 515 689 388 q 657 717 689 640 q 561 827 624 793 q 403 862 499 862 q 300 852 350 862 l 300 172 q 403 168 344 168 m 1246 187 l 1699 187 l 1699 0 l 965 0 l 965 120 l 1412 841 l 973 841 l 973 1028 l 1692 1028 l 1692 908 l 1246 187 m 1425 1318 l 1578 1318 l 1424 1107 l 1242 1107 l 1088 1318 l 1241 1318 l 1333 1185 l 1425 1318 z "},"Ð":{"ha":964,"x_min":1,"x_max":911,"o":"m 383 1040 q 780 911 648 1040 q 911 514 911 783 q 849 216 911 332 q 662 44 787 99 q 347 -11 538 -11 q 84 4 213 -11 l 84 458 l 1 458 l 1 601 l 84 601 l 84 1008 q 383 1040 237 1040 m 403 168 q 562 202 499 168 q 657 312 625 235 q 689 515 689 388 q 657 717 689 640 q 561 827 624 793 q 403 862 499 862 q 300 852 350 862 l 300 601 l 475 601 l 475 458 l 300 458 l 300 172 q 403 168 344 168 z "},"Ď":{"ha":964,"x_min":84,"x_max":911,"o":"m 347 -11 q 84 4 213 -11 l 84 1008 q 383 1040 237 1040 q 780 911 648 1040 q 911 514 911 783 q 849 216 911 332 q 662 44 787 99 q 347 -11 538 -11 m 403 168 q 562 202 499 168 q 657 312 625 235 q 689 515 689 388 q 657 717 689 640 q 561 827 624 793 q 403 862 499 862 q 300 852 350 862 l 300 172 q 403 168 344 168 m 531 1318 l 683 1318 l 529 1107 l 348 1107 l 194 1318 l 347 1318 l 439 1185 l 531 1318 z "},"Đ":{"ha":964,"x_min":1,"x_max":911,"o":"m 383 1040 q 780 911 648 1040 q 911 514 911 783 q 849 216 911 332 q 662 44 787 99 q 347 -11 538 -11 q 84 4 213 -11 l 84 458 l 1 458 l 1 601 l 84 601 l 84 1008 q 383 1040 237 1040 m 403 168 q 562 202 499 168 q 657 312 625 235 q 689 515 689 388 q 657 717 689 640 q 561 827 624 793 q 403 862 499 862 q 300 852 350 862 l 300 601 l 475 601 l 475 458 l 300 458 l 300 172 q 403 168 344 168 z "},"Ḍ":{"ha":964,"x_min":84,"x_max":911,"o":"m 347 -11 q 84 4 213 -11 l 84 1008 q 383 1040 237 1040 q 780 911 648 1040 q 911 514 911 783 q 849 216 911 332 q 662 44 787 99 q 347 -11 538 -11 m 403 168 q 562 202 499 168 q 657 312 625 235 q 689 515 689 388 q 657 717 689 640 q 561 827 624 793 q 403 862 499 862 q 300 852 350 862 l 300 172 q 403 168 344 168 m 449 -292 q 351 -266 386 -292 q 317 -190 317 -240 q 351 -115 317 -141 q 449 -88 386 -88 q 547 -115 513 -88 q 581 -190 581 -141 q 547 -266 581 -240 q 449 -292 513 -292 z "},"Ḏ":{"ha":964,"x_min":84,"x_max":911,"o":"m 347 -11 q 84 4 213 -11 l 84 1008 q 383 1040 237 1040 q 780 911 648 1040 q 911 514 911 783 q 849 216 911 332 q 662 44 787 99 q 347 -11 538 -11 m 403 168 q 562 202 499 168 q 657 312 625 235 q 689 515 689 388 q 657 717 689 640 q 561 827 624 793 q 403 862 499 862 q 300 852 350 862 l 300 172 q 403 168 344 168 m 203 -252 l 203 -117 l 694 -117 l 694 -252 l 203 -252 z "},"ǲ":{"ha":1602,"x_min":84,"x_max":1574,"o":"m 347 -11 q 84 4 213 -11 l 84 1008 q 383 1040 237 1040 q 780 911 648 1040 q 911 514 911 783 q 849 216 911 332 q 662 44 787 99 q 347 -11 538 -11 m 403 168 q 562 202 499 168 q 657 312 625 235 q 689 515 689 388 q 657 717 689 640 q 561 827 624 793 q 403 862 499 862 q 300 852 350 862 l 300 172 q 403 168 344 168 m 1248 167 l 1574 167 l 1574 0 l 1001 0 l 1001 133 l 1319 592 l 1008 592 l 1008 760 l 1567 760 l 1567 627 l 1248 167 z "},"ǅ":{"ha":1602,"x_min":84,"x_max":1574,"o":"m 347 -11 q 84 4 213 -11 l 84 1008 q 383 1040 237 1040 q 780 911 648 1040 q 911 514 911 783 q 849 216 911 332 q 662 44 787 99 q 347 -11 538 -11 m 403 168 q 562 202 499 168 q 657 312 625 235 q 689 515 689 388 q 657 717 689 640 q 561 827 624 793 q 403 862 499 862 q 300 852 350 862 l 300 172 q 403 168 344 168 m 1248 167 l 1574 167 l 1574 0 l 1001 0 l 1001 133 l 1319 592 l 1008 592 l 1008 760 l 1567 760 l 1567 627 l 1248 167 m 1380 1096 l 1533 1096 l 1378 885 l 1197 885 l 1043 1096 l 1196 1096 l 1288 963 l 1380 1096 z "},"E":{"ha":809,"x_min":84,"x_max":765,"o":"m 297 181 l 765 181 l 765 0 l 84 0 l 84 1028 l 758 1028 l 758 847 l 297 847 l 297 616 l 688 616 l 688 435 l 297 435 l 297 181 z "},"É":{"ha":809,"x_min":84,"x_max":765,"o":"m 297 181 l 765 181 l 765 0 l 84 0 l 84 1028 l 758 1028 l 758 847 l 297 847 l 297 616 l 688 616 l 688 435 l 297 435 l 297 181 m 340 1107 l 458 1318 l 681 1318 l 531 1107 l 340 1107 z "},"Ĕ":{"ha":809,"x_min":84,"x_max":765,"o":"m 297 181 l 765 181 l 765 0 l 84 0 l 84 1028 l 758 1028 l 758 847 l 297 847 l 297 616 l 688 616 l 688 435 l 297 435 l 297 181 m 436 1110 q 262 1163 326 1110 q 189 1313 199 1216 l 319 1313 q 355 1239 327 1263 q 436 1216 382 1216 q 518 1239 490 1216 q 552 1313 545 1263 l 683 1313 q 610 1163 673 1215 q 436 1110 547 1110 z "},"Ě":{"ha":809,"x_min":84,"x_max":765,"o":"m 297 181 l 765 181 l 765 0 l 84 0 l 84 1028 l 758 1028 l 758 847 l 297 847 l 297 616 l 688 616 l 688 435 l 297 435 l 297 181 m 528 1318 l 681 1318 l 526 1107 l 345 1107 l 191 1318 l 344 1318 l 436 1185 l 528 1318 z "},"Ḝ":{"ha":809,"x_min":84,"x_max":765,"o":"m 436 1110 q 262 1163 326 1110 q 189 1313 199 1216 l 319 1313 q 355 1239 327 1263 q 436 1216 382 1216 q 518 1239 490 1216 q 552 1313 545 1263 l 683 1313 q 610 1163 673 1215 q 436 1110 547 1110 m 476 0 l 476 -60 q 568 -100 536 -69 q 600 -181 600 -131 q 554 -274 600 -241 q 413 -308 508 -308 q 279 -287 340 -308 l 279 -201 q 341 -217 309 -212 q 403 -222 374 -222 q 465 -211 444 -222 q 485 -173 485 -199 q 401 -122 485 -122 l 371 -122 l 371 0 l 84 0 l 84 1028 l 758 1028 l 758 847 l 297 847 l 297 616 l 688 616 l 688 435 l 297 435 l 297 181 l 765 181 l 765 0 l 476 0 z "},"Ê":{"ha":809,"x_min":84,"x_max":765,"o":"m 297 181 l 765 181 l 765 0 l 84 0 l 84 1028 l 758 1028 l 758 847 l 297 847 l 297 616 l 688 616 l 688 435 l 297 435 l 297 181 m 681 1107 l 528 1107 l 436 1240 l 344 1107 l 191 1107 l 345 1318 l 526 1318 l 681 1107 z "},"Ế":{"ha":809,"x_min":84,"x_max":820,"o":"m 297 181 l 765 181 l 765 0 l 84 0 l 84 1028 l 758 1028 l 758 847 l 297 847 l 297 616 l 688 616 l 688 435 l 297 435 l 297 181 m 681 1433 l 820 1433 l 711 1263 l 602 1263 l 681 1433 m 345 1296 l 526 1296 l 681 1107 l 528 1107 l 436 1227 l 344 1107 l 191 1107 l 345 1296 z "},"Ệ":{"ha":809,"x_min":84,"x_max":765,"o":"m 297 181 l 765 181 l 765 0 l 84 0 l 84 1028 l 758 1028 l 758 847 l 297 847 l 297 616 l 688 616 l 688 435 l 297 435 l 297 181 m 437 -292 q 339 -266 374 -292 q 304 -190 304 -240 q 339 -115 304 -141 q 437 -88 374 -88 q 534 -115 500 -88 q 569 -190 569 -141 q 534 -266 569 -240 q 437 -292 500 -292 m 681 1107 l 528 1107 l 436 1240 l 344 1107 l 191 1107 l 345 1318 l 526 1318 l 681 1107 z "},"Ề":{"ha":809,"x_min":84,"x_max":765,"o":"m 297 181 l 765 181 l 765 0 l 84 0 l 84 1028 l 758 1028 l 758 847 l 297 847 l 297 616 l 688 616 l 688 435 l 297 435 l 297 181 m 735 1263 l 626 1263 l 517 1433 l 658 1433 l 735 1263 m 345 1296 l 526 1296 l 681 1107 l 528 1107 l 436 1227 l 344 1107 l 191 1107 l 345 1296 z "},"Ể":{"ha":809,"x_min":84,"x_max":828,"o":"m 297 181 l 765 181 l 765 0 l 84 0 l 84 1028 l 758 1028 l 758 847 l 297 847 l 297 616 l 688 616 l 688 435 l 297 435 l 297 181 m 656 1463 q 786 1443 744 1463 q 828 1380 828 1422 q 812 1341 828 1356 q 765 1312 797 1327 q 726 1289 739 1299 q 710 1263 713 1278 l 602 1263 q 623 1308 604 1292 q 675 1338 642 1324 q 703 1351 694 1345 q 712 1365 712 1357 q 694 1384 712 1378 q 640 1390 677 1390 q 511 1374 572 1390 l 511 1447 q 580 1458 538 1453 q 656 1463 621 1463 m 345 1296 l 526 1296 l 681 1107 l 528 1107 l 436 1227 l 344 1107 l 191 1107 l 345 1296 z "},"Ễ":{"ha":809,"x_min":84,"x_max":765,"o":"m 297 181 l 765 181 l 765 0 l 84 0 l 84 1028 l 758 1028 l 758 847 l 297 847 l 297 616 l 688 616 l 688 435 l 297 435 l 297 181 m 542 1420 q 611 1431 580 1420 q 681 1467 642 1441 l 681 1369 q 616 1335 648 1344 q 540 1326 584 1326 q 485 1332 511 1326 q 423 1349 458 1338 q 369 1364 388 1360 q 330 1369 350 1369 q 260 1358 292 1369 q 191 1322 229 1348 l 191 1420 q 256 1455 224 1445 q 332 1464 288 1464 q 386 1458 360 1464 q 449 1440 411 1452 q 501 1425 481 1430 q 542 1420 522 1420 m 345 1296 l 526 1296 l 681 1107 l 528 1107 l 436 1227 l 344 1107 l 191 1107 l 345 1296 z "},"Ȅ":{"ha":809,"x_min":84,"x_max":765,"o":"m 297 181 l 765 181 l 765 0 l 84 0 l 84 1028 l 758 1028 l 758 847 l 297 847 l 297 616 l 688 616 l 688 435 l 297 435 l 297 181 m 217 1107 l 120 1318 l 292 1318 l 379 1107 l 217 1107 m 493 1107 l 396 1318 l 567 1318 l 655 1107 l 493 1107 z "},"Ë":{"ha":809,"x_min":84,"x_max":765,"o":"m 297 181 l 765 181 l 765 0 l 84 0 l 84 1028 l 758 1028 l 758 847 l 297 847 l 297 616 l 688 616 l 688 435 l 297 435 l 297 181 m 265 1114 q 178 1140 208 1114 q 147 1216 147 1167 q 178 1291 147 1265 q 265 1318 209 1318 q 352 1291 322 1318 q 383 1216 383 1265 q 352 1141 383 1167 q 265 1114 322 1114 m 607 1114 q 519 1140 550 1114 q 489 1216 489 1167 q 520 1291 489 1265 q 607 1318 551 1318 q 694 1291 663 1318 q 724 1216 724 1265 q 694 1141 724 1167 q 607 1114 663 1114 z "},"Ė":{"ha":809,"x_min":84,"x_max":765,"o":"m 297 181 l 765 181 l 765 0 l 84 0 l 84 1028 l 758 1028 l 758 847 l 297 847 l 297 616 l 688 616 l 688 435 l 297 435 l 297 181 m 436 1114 q 338 1140 372 1114 q 303 1216 303 1166 q 338 1292 303 1265 q 436 1318 373 1318 q 534 1292 499 1318 q 568 1216 568 1265 q 534 1140 568 1166 q 436 1114 499 1114 z "},"Ẹ":{"ha":809,"x_min":84,"x_max":765,"o":"m 297 181 l 765 181 l 765 0 l 84 0 l 84 1028 l 758 1028 l 758 847 l 297 847 l 297 616 l 688 616 l 688 435 l 297 435 l 297 181 m 437 -292 q 339 -266 374 -292 q 304 -190 304 -240 q 339 -115 304 -141 q 437 -88 374 -88 q 534 -115 500 -88 q 569 -190 569 -141 q 534 -266 569 -240 q 437 -292 500 -292 z "},"È":{"ha":809,"x_min":84,"x_max":765,"o":"m 297 181 l 765 181 l 765 0 l 84 0 l 84 1028 l 758 1028 l 758 847 l 297 847 l 297 616 l 688 616 l 688 435 l 297 435 l 297 181 m 340 1107 l 191 1318 l 413 1318 l 531 1107 l 340 1107 z "},"Ẻ":{"ha":809,"x_min":84,"x_max":765,"o":"m 297 181 l 765 181 l 765 0 l 84 0 l 84 1028 l 758 1028 l 758 847 l 297 847 l 297 616 l 688 616 l 688 435 l 297 435 l 297 181 m 381 1107 q 403 1158 383 1140 q 456 1192 423 1176 q 483 1207 474 1201 q 491 1222 491 1213 q 474 1241 491 1235 q 419 1248 456 1248 q 290 1231 353 1248 l 290 1314 q 358 1327 317 1322 q 435 1332 399 1332 q 565 1309 524 1332 q 607 1238 607 1286 q 591 1195 607 1211 q 544 1163 576 1180 q 506 1136 519 1148 q 490 1107 492 1125 l 381 1107 z "},"Ȇ":{"ha":809,"x_min":84,"x_max":765,"o":"m 297 181 l 765 181 l 765 0 l 84 0 l 84 1028 l 758 1028 l 758 847 l 297 847 l 297 616 l 688 616 l 688 435 l 297 435 l 297 181 m 189 1113 q 262 1263 199 1210 q 435 1316 325 1316 q 609 1263 546 1316 q 683 1113 673 1210 l 552 1113 q 517 1186 544 1163 q 435 1210 489 1210 q 354 1186 381 1210 q 319 1113 326 1163 l 189 1113 z "},"Ē":{"ha":809,"x_min":84,"x_max":765,"o":"m 297 181 l 765 181 l 765 0 l 84 0 l 84 1028 l 758 1028 l 758 847 l 297 847 l 297 616 l 688 616 l 688 435 l 297 435 l 297 181 m 190 1146 l 190 1281 l 681 1281 l 681 1146 l 190 1146 z "},"Ḗ":{"ha":809,"x_min":84,"x_max":765,"o":"m 297 181 l 765 181 l 765 0 l 84 0 l 84 1028 l 758 1028 l 758 847 l 297 847 l 297 616 l 688 616 l 688 435 l 297 435 l 297 181 m 331 1359 l 448 1520 l 690 1520 l 541 1359 l 331 1359 m 190 1146 l 190 1281 l 681 1281 l 681 1146 l 190 1146 z "},"Ḕ":{"ha":809,"x_min":84,"x_max":765,"o":"m 297 181 l 765 181 l 765 0 l 84 0 l 84 1028 l 758 1028 l 758 847 l 297 847 l 297 616 l 688 616 l 688 435 l 297 435 l 297 181 m 331 1359 l 181 1520 l 424 1520 l 541 1359 l 331 1359 m 190 1146 l 190 1281 l 681 1281 l 681 1146 l 190 1146 z "},"Ę":{"ha":809,"x_min":84,"x_max":765,"o":"m 708 0 q 582 -72 616 -35 q 547 -151 547 -108 q 642 -219 547 -219 q 740 -199 688 -219 l 740 -285 q 615 -308 681 -308 q 473 -270 521 -308 q 425 -164 425 -232 q 451 -75 425 -115 q 535 0 477 -35 l 84 0 l 84 1028 l 758 1028 l 758 847 l 297 847 l 297 616 l 688 616 l 688 435 l 297 435 l 297 181 l 765 181 l 765 0 l 708 0 z "},"Ẽ":{"ha":809,"x_min":84,"x_max":765,"o":"m 297 181 l 765 181 l 765 0 l 84 0 l 84 1028 l 758 1028 l 758 847 l 297 847 l 297 616 l 688 616 l 688 435 l 297 435 l 297 181 m 551 1123 q 489 1131 518 1123 q 424 1152 460 1138 q 365 1171 387 1165 q 318 1177 342 1177 q 247 1165 278 1177 q 185 1126 216 1153 l 185 1256 q 244 1294 211 1282 q 321 1307 276 1307 q 382 1299 353 1307 q 448 1277 410 1292 q 506 1258 483 1264 q 553 1251 529 1251 q 624 1264 594 1251 q 687 1302 655 1276 l 687 1173 q 628 1135 660 1147 q 551 1123 596 1123 z "},"F":{"ha":775,"x_min":84,"x_max":756,"o":"m 756 844 l 300 844 l 300 593 l 688 593 l 688 410 l 300 410 l 300 0 l 84 0 l 84 1028 l 756 1028 l 756 844 z "},"G":{"ha":923,"x_min":52,"x_max":845,"o":"m 845 500 l 845 9 q 605 -12 714 -12 q 190 116 328 -12 q 52 513 52 244 q 192 910 52 779 q 597 1041 332 1041 q 819 1015 716 1041 l 819 833 q 619 860 712 860 q 426 825 501 859 q 315 714 351 791 q 278 510 278 638 q 313 313 278 388 q 415 203 347 238 q 585 169 482 169 q 644 171 615 169 l 644 500 l 845 500 z "},"Ǵ":{"ha":923,"x_min":52,"x_max":845,"o":"m 845 500 l 845 9 q 605 -12 714 -12 q 190 116 328 -12 q 52 513 52 244 q 192 910 52 779 q 597 1041 332 1041 q 819 1015 716 1041 l 819 833 q 619 860 712 860 q 426 825 501 859 q 315 714 351 791 q 278 510 278 638 q 313 313 278 388 q 415 203 347 238 q 585 169 482 169 q 644 171 615 169 l 644 500 l 845 500 m 431 1107 l 549 1318 l 772 1318 l 622 1107 l 431 1107 z "},"Ğ":{"ha":923,"x_min":52,"x_max":845,"o":"m 845 500 l 845 9 q 605 -12 714 -12 q 190 116 328 -12 q 52 513 52 244 q 192 910 52 779 q 597 1041 332 1041 q 819 1015 716 1041 l 819 833 q 619 860 712 860 q 426 825 501 859 q 315 714 351 791 q 278 510 278 638 q 313 313 278 388 q 415 203 347 238 q 585 169 482 169 q 644 171 615 169 l 644 500 l 845 500 m 527 1110 q 353 1163 417 1110 q 280 1313 290 1216 l 410 1313 q 445 1239 418 1263 q 527 1216 473 1216 q 609 1239 581 1216 q 643 1313 636 1263 l 774 1313 q 701 1163 764 1215 q 527 1110 638 1110 z "},"Ǧ":{"ha":923,"x_min":52,"x_max":845,"o":"m 845 500 l 845 9 q 605 -12 714 -12 q 190 116 328 -12 q 52 513 52 244 q 192 910 52 779 q 597 1041 332 1041 q 819 1015 716 1041 l 819 833 q 619 860 712 860 q 426 825 501 859 q 315 714 351 791 q 278 510 278 638 q 313 313 278 388 q 415 203 347 238 q 585 169 482 169 q 644 171 615 169 l 644 500 l 845 500 m 619 1318 l 772 1318 l 617 1107 l 436 1107 l 282 1318 l 435 1318 l 527 1185 l 619 1318 z "},"Ĝ":{"ha":923,"x_min":52,"x_max":845,"o":"m 845 500 l 845 9 q 605 -12 714 -12 q 190 116 328 -12 q 52 513 52 244 q 192 910 52 779 q 597 1041 332 1041 q 819 1015 716 1041 l 819 833 q 619 860 712 860 q 426 825 501 859 q 315 714 351 791 q 278 510 278 638 q 313 313 278 388 q 415 203 347 238 q 585 169 482 169 q 644 171 615 169 l 644 500 l 845 500 m 772 1107 l 619 1107 l 527 1240 l 435 1107 l 282 1107 l 436 1318 l 617 1318 l 772 1107 z "},"Ģ":{"ha":923,"x_min":52,"x_max":845,"o":"m 845 500 l 845 9 q 605 -12 714 -12 q 190 116 328 -12 q 52 513 52 244 q 192 910 52 779 q 597 1041 332 1041 q 819 1015 716 1041 l 819 833 q 619 860 712 860 q 426 825 501 859 q 315 714 351 791 q 278 510 278 638 q 313 313 278 388 q 415 203 347 238 q 585 169 482 169 q 644 171 615 169 l 644 500 l 845 500 m 526 -88 q 646 -192 646 -88 q 631 -271 646 -228 q 593 -345 616 -314 l 460 -345 q 498 -244 490 -284 q 430 -219 452 -240 q 408 -166 408 -199 q 437 -109 408 -129 q 526 -88 466 -88 z "},"Ġ":{"ha":923,"x_min":52,"x_max":845,"o":"m 845 500 l 845 9 q 605 -12 714 -12 q 190 116 328 -12 q 52 513 52 244 q 192 910 52 779 q 597 1041 332 1041 q 819 1015 716 1041 l 819 833 q 619 860 712 860 q 426 825 501 859 q 315 714 351 791 q 278 510 278 638 q 313 313 278 388 q 415 203 347 238 q 585 169 482 169 q 644 171 615 169 l 644 500 l 845 500 m 527 1114 q 429 1140 463 1114 q 394 1216 394 1166 q 429 1292 394 1265 q 527 1318 464 1318 q 625 1292 590 1318 q 659 1216 659 1265 q 625 1140 659 1166 q 527 1114 590 1114 z "},"Ḡ":{"ha":923,"x_min":52,"x_max":845,"o":"m 845 500 l 845 9 q 605 -12 714 -12 q 190 116 328 -12 q 52 513 52 244 q 192 910 52 779 q 597 1041 332 1041 q 819 1015 716 1041 l 819 833 q 619 860 712 860 q 426 825 501 859 q 315 714 351 791 q 278 510 278 638 q 313 313 278 388 q 415 203 347 238 q 585 169 482 169 q 644 171 615 169 l 644 500 l 845 500 m 281 1146 l 281 1281 l 772 1281 l 772 1146 l 281 1146 z "},"H":{"ha":988,"x_min":84,"x_max":904,"o":"m 84 0 l 84 1028 l 300 1028 l 300 623 l 688 623 l 688 1028 l 904 1028 l 904 0 l 688 0 l 688 428 l 300 428 l 300 0 l 84 0 z "},"Ħ":{"ha":988,"x_min":1,"x_max":987,"o":"m 987 891 l 987 756 l 904 756 l 904 0 l 688 0 l 688 428 l 300 428 l 300 0 l 84 0 l 84 756 l 1 756 l 1 891 l 84 891 l 84 1028 l 300 1028 l 300 891 l 688 891 l 688 1028 l 904 1028 l 904 891 l 987 891 m 688 623 l 688 756 l 300 756 l 300 623 l 688 623 z "},"Ḫ":{"ha":988,"x_min":84,"x_max":904,"o":"m 84 0 l 84 1028 l 300 1028 l 300 623 l 688 623 l 688 1028 l 904 1028 l 904 0 l 688 0 l 688 428 l 300 428 l 300 0 l 84 0 m 494 -303 q 319 -249 383 -303 q 247 -99 256 -196 l 378 -99 q 412 -173 383 -149 q 494 -197 440 -197 q 577 -173 549 -197 q 610 -99 605 -149 l 741 -99 q 669 -249 733 -196 q 494 -303 606 -303 z "},"Ĥ":{"ha":988,"x_min":84,"x_max":904,"o":"m 84 0 l 84 1028 l 300 1028 l 300 623 l 688 623 l 688 1028 l 904 1028 l 904 0 l 688 0 l 688 428 l 300 428 l 300 0 l 84 0 m 739 1107 l 586 1107 l 494 1240 l 402 1107 l 249 1107 l 403 1318 l 585 1318 l 739 1107 z "},"Ḥ":{"ha":988,"x_min":84,"x_max":904,"o":"m 84 0 l 84 1028 l 300 1028 l 300 623 l 688 623 l 688 1028 l 904 1028 l 904 0 l 688 0 l 688 428 l 300 428 l 300 0 l 84 0 m 494 -292 q 397 -266 431 -292 q 362 -190 362 -240 q 397 -115 362 -141 q 494 -88 431 -88 q 592 -115 558 -88 q 626 -190 626 -141 q 592 -266 626 -240 q 494 -292 558 -292 z "},"I":{"ha":384,"x_min":84,"x_max":300,"o":"m 84 0 l 84 1028 l 300 1028 l 300 0 l 84 0 z "},"Í":{"ha":384,"x_min":84,"x_max":437,"o":"m 84 0 l 84 1028 l 300 1028 l 300 0 l 84 0 m 97 1107 l 214 1318 l 437 1318 l 287 1107 l 97 1107 z "},"Ĭ":{"ha":384,"x_min":-55,"x_max":439,"o":"m 84 0 l 84 1028 l 300 1028 l 300 0 l 84 0 m 192 1110 q 18 1163 82 1110 q -55 1313 -45 1216 l 76 1313 q 111 1239 83 1263 q 192 1216 138 1216 q 274 1239 247 1216 q 308 1313 301 1263 l 439 1313 q 366 1163 429 1215 q 192 1110 303 1110 z "},"Î":{"ha":384,"x_min":-53,"x_max":437,"o":"m 84 0 l 84 1028 l 300 1028 l 300 0 l 84 0 m 437 1107 l 284 1107 l 192 1240 l 100 1107 l -53 1107 l 101 1318 l 283 1318 l 437 1107 z "},"Ȉ":{"ha":384,"x_min":-124,"x_max":411,"o":"m 84 0 l 84 1028 l 300 1028 l 300 0 l 84 0 m -26 1107 l -124 1318 l 48 1318 l 135 1107 l -26 1107 m 249 1107 l 152 1318 l 324 1318 l 411 1107 l 249 1107 z "},"Ï":{"ha":384,"x_min":-97,"x_max":481,"o":"m 84 0 l 84 1028 l 300 1028 l 300 0 l 84 0 m 22 1114 q -66 1140 -35 1114 q -97 1216 -97 1167 q -66 1291 -97 1265 q 22 1318 -35 1318 q 108 1291 78 1318 q 139 1216 139 1265 q 108 1141 139 1167 q 22 1114 78 1114 m 363 1114 q 276 1140 306 1114 q 245 1216 245 1167 q 276 1291 245 1265 q 363 1318 307 1318 q 450 1291 419 1318 q 481 1216 481 1265 q 450 1141 481 1167 q 363 1114 419 1114 z "},"Ḯ":{"ha":384,"x_min":-97,"x_max":481,"o":"m 84 0 l 84 1028 l 300 1028 l 300 0 l 84 0 m 87 1359 l 204 1520 l 447 1520 l 297 1359 l 87 1359 m 22 1114 q -66 1140 -35 1114 q -97 1216 -97 1167 q -66 1291 -97 1265 q 22 1318 -35 1318 q 108 1291 78 1318 q 139 1216 139 1265 q 108 1141 139 1167 q 22 1114 78 1114 m 363 1114 q 276 1140 306 1114 q 245 1216 245 1167 q 276 1291 245 1265 q 363 1318 307 1318 q 450 1291 419 1318 q 481 1216 481 1265 q 450 1141 481 1167 q 363 1114 419 1114 z "},"İ":{"ha":384,"x_min":60,"x_max":324,"o":"m 84 0 l 84 1028 l 300 1028 l 300 0 l 84 0 m 192 1114 q 94 1140 128 1114 q 60 1216 60 1166 q 94 1292 60 1265 q 192 1318 129 1318 q 290 1292 256 1318 q 324 1216 324 1265 q 290 1140 324 1166 q 192 1114 256 1114 z "},"Ị":{"ha":384,"x_min":59,"x_max":324,"o":"m 84 0 l 84 1028 l 300 1028 l 300 0 l 84 0 m 192 -292 q 94 -266 128 -292 q 59 -190 59 -240 q 94 -115 59 -141 q 192 -88 128 -88 q 289 -115 255 -88 q 324 -190 324 -141 q 289 -266 324 -240 q 192 -292 255 -292 z "},"Ì":{"ha":384,"x_min":-53,"x_max":300,"o":"m 84 0 l 84 1028 l 300 1028 l 300 0 l 84 0 m 97 1107 l -53 1318 l 169 1318 l 288 1107 l 97 1107 z "},"Ỉ":{"ha":384,"x_min":47,"x_max":363,"o":"m 84 0 l 84 1028 l 300 1028 l 300 0 l 84 0 m 138 1107 q 159 1158 140 1140 q 212 1192 179 1176 q 239 1207 231 1201 q 247 1222 247 1213 q 230 1241 247 1235 q 175 1248 213 1248 q 47 1231 109 1248 l 47 1314 q 115 1327 74 1322 q 192 1332 156 1332 q 322 1309 280 1332 q 363 1238 363 1286 q 348 1195 363 1211 q 301 1163 332 1180 q 262 1136 275 1148 q 246 1107 249 1125 l 138 1107 z "},"Ȋ":{"ha":384,"x_min":-55,"x_max":439,"o":"m 84 0 l 84 1028 l 300 1028 l 300 0 l 84 0 m -55 1113 q 18 1263 -45 1210 q 192 1316 81 1316 q 366 1263 302 1316 q 439 1113 429 1210 l 308 1113 q 273 1186 301 1163 q 192 1210 245 1210 q 110 1186 138 1210 q 76 1113 83 1163 l -55 1113 z "},"Ī":{"ha":384,"x_min":-53,"x_max":438,"o":"m 84 0 l 84 1028 l 300 1028 l 300 0 l 84 0 m -53 1146 l -53 1281 l 438 1281 l 438 1146 l -53 1146 z "},"Į":{"ha":384,"x_min":17,"x_max":332,"o":"m 235 -219 q 332 -199 281 -219 l 332 -285 q 208 -308 273 -308 q 65 -270 113 -308 q 17 -164 17 -232 q 43 -75 17 -115 q 128 0 69 -35 l 84 0 l 84 1028 l 300 1028 l 300 0 q 174 -72 208 -35 q 140 -151 140 -108 q 235 -219 140 -219 z "},"Ĩ":{"ha":384,"x_min":-59,"x_max":443,"o":"m 84 0 l 84 1028 l 300 1028 l 300 0 l 84 0 m 307 1123 q 245 1131 274 1123 q 180 1152 217 1138 q 121 1171 143 1165 q 74 1177 99 1177 q 3 1165 34 1177 q -59 1126 -28 1153 l -59 1256 q 0 1294 -33 1282 q 77 1307 33 1307 q 138 1299 110 1307 q 204 1277 166 1292 q 263 1258 240 1264 q 310 1251 285 1251 q 381 1264 350 1251 q 443 1302 411 1276 l 443 1173 q 384 1135 417 1147 q 307 1123 352 1123 z "},"J":{"ha":384,"x_min":-22,"x_max":300,"o":"m -22 -149 q 61 15 38 -65 q 85 208 85 95 l 85 1028 l 300 1028 l 300 210 q 257 -28 299 78 q 119 -242 216 -134 l -22 -149 z "},"Ĵ":{"ha":384,"x_min":-53,"x_max":437,"o":"m -22 -149 q 61 15 38 -65 q 85 208 85 95 l 85 1028 l 300 1028 l 300 210 q 257 -28 299 78 q 119 -242 216 -134 l -22 -149 m 437 1107 l 284 1107 l 192 1240 l 100 1107 l -53 1107 l 101 1318 l 283 1318 l 437 1107 z "},"K":{"ha":872,"x_min":84,"x_max":908,"o":"m 675 0 l 396 428 l 300 428 l 300 0 l 84 0 l 84 1028 l 300 1028 l 300 623 l 397 623 l 654 1028 l 881 1028 l 565 531 l 908 0 l 675 0 z "},"Ķ":{"ha":872,"x_min":84,"x_max":908,"o":"m 675 0 l 396 428 l 300 428 l 300 0 l 84 0 l 84 1028 l 300 1028 l 300 623 l 397 623 l 654 1028 l 881 1028 l 565 531 l 908 0 l 675 0 m 455 -88 q 575 -192 575 -88 q 560 -271 575 -228 q 522 -345 545 -314 l 389 -345 q 427 -244 419 -284 q 359 -219 381 -240 q 337 -166 337 -199 q 366 -109 337 -129 q 455 -88 395 -88 z "},"L":{"ha":743,"x_min":84,"x_max":738,"o":"m 84 0 l 84 1028 l 300 1028 l 300 188 l 738 188 l 738 0 l 84 0 z "},"Ǉ":{"ha":1127,"x_min":84,"x_max":1043,"o":"m 84 0 l 84 1028 l 300 1028 l 300 188 l 738 188 l 738 0 l 84 0 m 721 -149 q 804 15 781 -65 q 828 208 828 95 l 828 1028 l 1043 1028 l 1043 210 q 1000 -28 1042 78 q 862 -242 959 -134 l 721 -149 z "},"Ĺ":{"ha":743,"x_min":84,"x_max":738,"o":"m 84 0 l 84 1028 l 300 1028 l 300 188 l 738 188 l 738 0 l 84 0 m 99 1107 l 217 1318 l 440 1318 l 290 1107 l 99 1107 z "},"Ľ":{"ha":743,"x_min":84,"x_max":738,"o":"m 84 0 l 84 1028 l 300 1028 l 300 188 l 738 188 l 738 0 l 84 0 m 467 792 q 482 944 477 869 q 486 1122 486 1019 l 630 1122 q 583 792 630 920 l 467 792 z "},"Ļ":{"ha":743,"x_min":84,"x_max":738,"o":"m 84 0 l 84 1028 l 300 1028 l 300 188 l 738 188 l 738 0 l 84 0 m 410 -88 q 530 -192 530 -88 q 515 -271 530 -228 q 477 -345 500 -314 l 344 -345 q 382 -244 374 -284 q 314 -219 336 -240 q 292 -166 292 -199 q 321 -109 292 -129 q 410 -88 350 -88 z "},"Ŀ":{"ha":743,"x_min":84,"x_max":738,"o":"m 84 0 l 84 1028 l 300 1028 l 300 188 l 738 188 l 738 0 l 84 0 m 558 484 q 459 514 492 484 q 426 601 426 544 q 459 686 426 656 q 558 717 492 717 q 658 687 625 717 q 690 601 690 657 q 657 514 690 544 q 558 484 624 484 z "},"Ḷ":{"ha":743,"x_min":84,"x_max":738,"o":"m 84 0 l 84 1028 l 300 1028 l 300 188 l 738 188 l 738 0 l 84 0 m 411 -292 q 313 -266 348 -292 q 278 -190 278 -240 q 313 -115 278 -141 q 411 -88 348 -88 q 509 -115 474 -88 q 543 -190 543 -141 q 509 -266 543 -240 q 411 -292 474 -292 z "},"ǈ":{"ha":1106,"x_min":84,"x_max":1056,"o":"m 84 0 l 84 1028 l 300 1028 l 300 188 l 738 188 l 738 0 l 84 0 m 712 -235 q 794 -71 771 -151 q 818 122 818 9 l 818 760 l 1031 760 l 1031 132 q 990 -111 1031 -3 q 851 -327 949 -219 l 712 -235 m 924 871 q 825 901 858 871 q 792 987 792 931 q 825 1073 792 1043 q 924 1103 858 1103 q 1023 1073 990 1103 q 1056 987 1056 1042 q 1023 901 1056 931 q 924 871 990 871 z "},"Ḻ":{"ha":743,"x_min":84,"x_max":738,"o":"m 84 0 l 84 1028 l 300 1028 l 300 188 l 738 188 l 738 0 l 84 0 m 165 -252 l 165 -117 l 656 -117 l 656 -252 l 165 -252 z "},"Ł":{"ha":743,"x_min":-38,"x_max":738,"o":"m 300 188 l 738 188 l 738 0 l 84 0 l 84 431 l 29 400 l -38 528 l 84 597 l 84 1028 l 300 1028 l 300 719 l 474 817 l 541 688 l 300 553 l 300 188 z "},"M":{"ha":1231,"x_min":87,"x_max":1144,"o":"m 880 1028 l 1144 1028 l 1144 0 l 943 0 l 943 731 l 703 149 l 528 149 l 288 713 l 288 0 l 87 0 l 87 1028 l 351 1028 l 619 383 l 880 1028 z "},"Ṃ":{"ha":1231,"x_min":87,"x_max":1144,"o":"m 880 1028 l 1144 1028 l 1144 0 l 943 0 l 943 731 l 703 149 l 528 149 l 288 713 l 288 0 l 87 0 l 87 1028 l 351 1028 l 619 383 l 880 1028 m 629 -292 q 531 -266 566 -292 q 497 -190 497 -240 q 531 -115 497 -141 q 629 -88 566 -88 q 727 -115 692 -88 q 761 -190 761 -141 q 727 -266 761 -240 q 629 -292 692 -292 z "},"N":{"ha":1000,"x_min":84,"x_max":916,"o":"m 714 1028 l 916 1028 l 916 0 l 699 0 l 287 681 l 287 0 l 84 0 l 84 1028 l 301 1028 l 714 345 l 714 1028 z "},"Ǌ":{"ha":1384,"x_min":84,"x_max":1300,"o":"m 714 1028 l 916 1028 l 916 0 l 699 0 l 287 681 l 287 0 l 84 0 l 84 1028 l 301 1028 l 714 345 l 714 1028 m 978 -149 q 1061 15 1038 -65 q 1085 208 1085 95 l 1085 1028 l 1300 1028 l 1300 210 q 1257 -28 1299 78 q 1119 -242 1216 -134 l 978 -149 z "},"Ń":{"ha":1000,"x_min":84,"x_max":916,"o":"m 714 1028 l 916 1028 l 916 0 l 699 0 l 287 681 l 287 0 l 84 0 l 84 1028 l 301 1028 l 714 345 l 714 1028 m 404 1107 l 522 1318 l 744 1318 l 594 1107 l 404 1107 z "},"Ň":{"ha":1000,"x_min":84,"x_max":916,"o":"m 714 1028 l 916 1028 l 916 0 l 699 0 l 287 681 l 287 0 l 84 0 l 84 1028 l 301 1028 l 714 345 l 714 1028 m 592 1318 l 744 1318 l 590 1107 l 409 1107 l 255 1318 l 408 1318 l 500 1185 l 592 1318 z "},"Ņ":{"ha":1000,"x_min":84,"x_max":916,"o":"m 714 1028 l 916 1028 l 916 0 l 699 0 l 287 681 l 287 0 l 84 0 l 84 1028 l 301 1028 l 714 345 l 714 1028 m 499 -88 q 619 -192 619 -88 q 604 -271 619 -228 q 566 -345 589 -314 l 433 -345 q 471 -244 463 -284 q 403 -219 425 -240 q 381 -166 381 -199 q 410 -109 381 -129 q 499 -88 439 -88 z "},"Ṅ":{"ha":1000,"x_min":84,"x_max":916,"o":"m 714 1028 l 916 1028 l 916 0 l 699 0 l 287 681 l 287 0 l 84 0 l 84 1028 l 301 1028 l 714 345 l 714 1028 m 500 1114 q 402 1140 436 1114 q 367 1216 367 1166 q 402 1292 367 1265 q 500 1318 437 1318 q 598 1292 563 1318 q 632 1216 632 1265 q 598 1140 632 1166 q 500 1114 563 1114 z "},"Ṇ":{"ha":1000,"x_min":84,"x_max":916,"o":"m 714 1028 l 916 1028 l 916 0 l 699 0 l 287 681 l 287 0 l 84 0 l 84 1028 l 301 1028 l 714 345 l 714 1028 m 500 -292 q 402 -266 437 -292 q 367 -190 367 -240 q 402 -115 367 -141 q 500 -88 437 -88 q 598 -115 563 -88 q 632 -190 632 -141 q 598 -266 632 -240 q 500 -292 563 -292 z "},"Ŋ":{"ha":1000,"x_min":84,"x_max":916,"o":"m 916 1028 l 916 151 q 899 -29 916 51 q 842 -181 881 -109 q 736 -327 803 -253 l 597 -235 q 666 -123 640 -177 q 703 -8 692 -69 l 287 681 l 287 0 l 84 0 l 84 1028 l 301 1028 l 714 347 l 714 1028 l 916 1028 z "},"ǋ":{"ha":1363,"x_min":84,"x_max":1313,"o":"m 714 1028 l 916 1028 l 916 0 l 699 0 l 287 681 l 287 0 l 84 0 l 84 1028 l 301 1028 l 714 345 l 714 1028 m 969 -235 q 1051 -71 1028 -151 q 1075 122 1075 9 l 1075 760 l 1288 760 l 1288 132 q 1247 -111 1288 -3 q 1108 -327 1206 -219 l 969 -235 m 1181 871 q 1082 901 1115 871 q 1049 987 1049 931 q 1082 1073 1049 1043 q 1181 1103 1115 1103 q 1280 1073 1247 1103 q 1313 987 1313 1042 q 1280 901 1313 931 q 1181 871 1247 871 z "},"Ṉ":{"ha":1000,"x_min":84,"x_max":916,"o":"m 714 1028 l 916 1028 l 916 0 l 699 0 l 287 681 l 287 0 l 84 0 l 84 1028 l 301 1028 l 714 345 l 714 1028 m 254 -252 l 254 -117 l 745 -117 l 745 -252 l 254 -252 z "},"Ñ":{"ha":1000,"x_min":84,"x_max":916,"o":"m 714 1028 l 916 1028 l 916 0 l 699 0 l 287 681 l 287 0 l 84 0 l 84 1028 l 301 1028 l 714 345 l 714 1028 m 615 1123 q 553 1131 582 1123 q 488 1152 524 1138 q 428 1171 451 1165 q 382 1177 406 1177 q 311 1165 342 1177 q 249 1126 280 1153 l 249 1256 q 308 1294 275 1282 q 385 1307 340 1307 q 445 1299 417 1307 q 512 1277 474 1292 q 570 1258 547 1264 q 617 1251 593 1251 q 688 1264 658 1251 q 751 1302 719 1276 l 751 1173 q 692 1135 724 1147 q 615 1123 660 1123 z "},"O":{"ha":1003,"x_min":52,"x_max":950,"o":"m 501 -13 q 263 43 364 -13 q 107 216 163 99 q 52 514 52 334 q 108 811 52 694 q 264 985 163 929 q 501 1041 364 1041 q 739 985 639 1041 q 895 811 840 928 q 950 514 950 693 q 894 217 950 335 q 739 43 839 99 q 501 -13 638 -13 m 501 165 q 670 245 612 165 q 728 509 728 326 q 670 781 728 699 q 501 863 613 863 q 332 782 390 863 q 274 519 274 701 q 332 247 274 329 q 501 165 390 165 z "},"Ó":{"ha":1003,"x_min":52,"x_max":950,"o":"m 501 -13 q 263 43 364 -13 q 107 216 163 99 q 52 514 52 334 q 108 811 52 694 q 264 985 163 929 q 501 1041 364 1041 q 739 985 639 1041 q 895 811 840 928 q 950 514 950 693 q 894 217 950 335 q 739 43 839 99 q 501 -13 638 -13 m 501 165 q 670 245 612 165 q 728 509 728 326 q 670 781 728 699 q 501 863 613 863 q 332 782 390 863 q 274 519 274 701 q 332 247 274 329 q 501 165 390 165 m 406 1107 l 523 1318 l 746 1318 l 596 1107 l 406 1107 z "},"Ŏ":{"ha":1003,"x_min":52,"x_max":950,"o":"m 501 -13 q 263 43 364 -13 q 107 216 163 99 q 52 514 52 334 q 108 811 52 694 q 264 985 163 929 q 501 1041 364 1041 q 739 985 639 1041 q 895 811 840 928 q 950 514 950 693 q 894 217 950 335 q 739 43 839 99 q 501 -13 638 -13 m 501 165 q 670 245 612 165 q 728 509 728 326 q 670 781 728 699 q 501 863 613 863 q 332 782 390 863 q 274 519 274 701 q 332 247 274 329 q 501 165 390 165 m 501 1110 q 327 1163 391 1110 q 254 1313 264 1216 l 385 1313 q 420 1239 392 1263 q 501 1216 447 1216 q 583 1239 556 1216 q 617 1313 610 1263 l 748 1313 q 675 1163 738 1215 q 501 1110 612 1110 z "},"Ô":{"ha":1003,"x_min":52,"x_max":950,"o":"m 501 -13 q 263 43 364 -13 q 107 216 163 99 q 52 514 52 334 q 108 811 52 694 q 264 985 163 929 q 501 1041 364 1041 q 739 985 639 1041 q 895 811 840 928 q 950 514 950 693 q 894 217 950 335 q 739 43 839 99 q 501 -13 638 -13 m 501 165 q 670 245 612 165 q 728 509 728 326 q 670 781 728 699 q 501 863 613 863 q 332 782 390 863 q 274 519 274 701 q 332 247 274 329 q 501 165 390 165 m 746 1107 l 593 1107 l 501 1240 l 409 1107 l 256 1107 l 410 1318 l 592 1318 l 746 1107 z "},"Ố":{"ha":1003,"x_min":52,"x_max":950,"o":"m 501 -13 q 263 43 364 -13 q 107 216 163 99 q 52 514 52 334 q 108 811 52 694 q 264 985 163 929 q 501 1041 364 1041 q 739 985 639 1041 q 895 811 840 928 q 950 514 950 693 q 894 217 950 335 q 739 43 839 99 q 501 -13 638 -13 m 501 165 q 670 245 612 165 q 728 509 728 326 q 670 781 728 699 q 501 863 613 863 q 332 782 390 863 q 274 519 274 701 q 332 247 274 329 q 501 165 390 165 m 746 1433 l 885 1433 l 776 1263 l 667 1263 l 746 1433 m 410 1296 l 592 1296 l 746 1107 l 593 1107 l 501 1227 l 409 1107 l 256 1107 l 410 1296 z "},"Ộ":{"ha":1003,"x_min":52,"x_max":950,"o":"m 501 -13 q 263 43 364 -13 q 107 216 163 99 q 52 514 52 334 q 108 811 52 694 q 264 985 163 929 q 501 1041 364 1041 q 739 985 639 1041 q 895 811 840 928 q 950 514 950 693 q 894 217 950 335 q 739 43 839 99 q 501 -13 638 -13 m 501 165 q 670 245 612 165 q 728 509 728 326 q 670 781 728 699 q 501 863 613 863 q 332 782 390 863 q 274 519 274 701 q 332 247 274 329 q 501 165 390 165 m 501 -292 q 403 -266 438 -292 q 369 -190 369 -240 q 403 -115 369 -141 q 501 -88 438 -88 q 599 -115 565 -88 q 633 -190 633 -141 q 599 -266 633 -240 q 501 -292 565 -292 m 746 1107 l 593 1107 l 501 1240 l 409 1107 l 256 1107 l 410 1318 l 592 1318 l 746 1107 z "},"Ồ":{"ha":1003,"x_min":52,"x_max":950,"o":"m 501 -13 q 263 43 364 -13 q 107 216 163 99 q 52 514 52 334 q 108 811 52 694 q 264 985 163 929 q 501 1041 364 1041 q 739 985 639 1041 q 895 811 840 928 q 950 514 950 693 q 894 217 950 335 q 739 43 839 99 q 501 -13 638 -13 m 501 165 q 670 245 612 165 q 728 509 728 326 q 670 781 728 699 q 501 863 613 863 q 332 782 390 863 q 274 519 274 701 q 332 247 274 329 q 501 165 390 165 m 801 1263 l 692 1263 l 583 1433 l 723 1433 l 801 1263 m 410 1296 l 592 1296 l 746 1107 l 593 1107 l 501 1227 l 409 1107 l 256 1107 l 410 1296 z "},"Ổ":{"ha":1003,"x_min":52,"x_max":950,"o":"m 501 -13 q 263 43 364 -13 q 107 216 163 99 q 52 514 52 334 q 108 811 52 694 q 264 985 163 929 q 501 1041 364 1041 q 739 985 639 1041 q 895 811 840 928 q 950 514 950 693 q 894 217 950 335 q 739 43 839 99 q 501 -13 638 -13 m 501 165 q 670 245 612 165 q 728 509 728 326 q 670 781 728 699 q 501 863 613 863 q 332 782 390 863 q 274 519 274 701 q 332 247 274 329 q 501 165 390 165 m 722 1463 q 851 1443 810 1463 q 893 1380 893 1422 q 877 1341 893 1356 q 831 1312 862 1327 q 791 1289 804 1299 q 776 1263 778 1278 l 667 1263 q 689 1308 669 1292 q 740 1338 708 1324 q 768 1351 759 1345 q 777 1365 777 1357 q 760 1384 777 1378 q 705 1390 742 1390 q 576 1374 638 1390 l 576 1447 q 645 1458 603 1453 q 722 1463 686 1463 m 410 1296 l 592 1296 l 746 1107 l 593 1107 l 501 1227 l 409 1107 l 256 1107 l 410 1296 z "},"Ỗ":{"ha":1003,"x_min":52,"x_max":950,"o":"m 501 -13 q 263 43 364 -13 q 107 216 163 99 q 52 514 52 334 q 108 811 52 694 q 264 985 163 929 q 501 1041 364 1041 q 739 985 639 1041 q 895 811 840 928 q 950 514 950 693 q 894 217 950 335 q 739 43 839 99 q 501 -13 638 -13 m 501 165 q 670 245 612 165 q 728 509 728 326 q 670 781 728 699 q 501 863 613 863 q 332 782 390 863 q 274 519 274 701 q 332 247 274 329 q 501 165 390 165 m 607 1420 q 676 1431 645 1420 q 746 1467 708 1441 l 746 1369 q 681 1335 713 1344 q 605 1326 649 1326 q 550 1332 576 1326 q 488 1349 524 1338 q 434 1364 453 1360 q 395 1369 415 1369 q 326 1358 357 1369 q 256 1322 294 1348 l 256 1420 q 321 1455 289 1445 q 397 1464 353 1464 q 451 1458 426 1464 q 514 1440 476 1452 q 567 1425 547 1430 q 607 1420 587 1420 m 410 1296 l 592 1296 l 746 1107 l 593 1107 l 501 1227 l 409 1107 l 256 1107 l 410 1296 z "},"Ȍ":{"ha":1003,"x_min":52,"x_max":950,"o":"m 501 -13 q 263 43 364 -13 q 107 216 163 99 q 52 514 52 334 q 108 811 52 694 q 264 985 163 929 q 501 1041 364 1041 q 739 985 639 1041 q 895 811 840 928 q 950 514 950 693 q 894 217 950 335 q 739 43 839 99 q 501 -13 638 -13 m 501 165 q 670 245 612 165 q 728 509 728 326 q 670 781 728 699 q 501 863 613 863 q 332 782 390 863 q 274 519 274 701 q 332 247 274 329 q 501 165 390 165 m 283 1107 l 185 1318 l 357 1318 l 444 1107 l 283 1107 m 558 1107 l 461 1318 l 633 1318 l 720 1107 l 558 1107 z "},"Ö":{"ha":1003,"x_min":52,"x_max":950,"o":"m 501 -13 q 263 43 364 -13 q 107 216 163 99 q 52 514 52 334 q 108 811 52 694 q 264 985 163 929 q 501 1041 364 1041 q 739 985 639 1041 q 895 811 840 928 q 950 514 950 693 q 894 217 950 335 q 739 43 839 99 q 501 -13 638 -13 m 501 165 q 670 245 612 165 q 728 509 728 326 q 670 781 728 699 q 501 863 613 863 q 332 782 390 863 q 274 519 274 701 q 332 247 274 329 q 501 165 390 165 m 331 1114 q 243 1140 274 1114 q 213 1216 213 1167 q 243 1291 213 1265 q 331 1318 274 1318 q 417 1291 387 1318 q 448 1216 448 1265 q 417 1141 448 1167 q 331 1114 387 1114 m 672 1114 q 585 1140 615 1114 q 554 1216 554 1167 q 585 1291 554 1265 q 672 1318 616 1318 q 759 1291 728 1318 q 790 1216 790 1265 q 759 1141 790 1167 q 672 1114 728 1114 z "},"Ȫ":{"ha":1003,"x_min":52,"x_max":950,"o":"m 501 -13 q 263 43 364 -13 q 107 216 163 99 q 52 514 52 334 q 108 811 52 694 q 264 985 163 929 q 501 1041 364 1041 q 739 985 639 1041 q 895 811 840 928 q 950 514 950 693 q 894 217 950 335 q 739 43 839 99 q 501 -13 638 -13 m 501 165 q 670 245 612 165 q 728 509 728 326 q 670 781 728 699 q 501 863 613 863 q 332 782 390 863 q 274 519 274 701 q 332 247 274 329 q 501 165 390 165 m 331 1114 q 243 1140 274 1114 q 213 1216 213 1167 q 243 1291 213 1265 q 331 1318 274 1318 q 417 1291 387 1318 q 448 1216 448 1265 q 417 1141 448 1167 q 331 1114 387 1114 m 672 1114 q 585 1140 615 1114 q 554 1216 554 1167 q 585 1291 554 1265 q 672 1318 616 1318 q 759 1291 728 1318 q 790 1216 790 1265 q 759 1141 790 1167 q 672 1114 728 1114 m 256 1390 l 256 1524 l 747 1524 l 747 1390 l 256 1390 z "},"Ȱ":{"ha":1003,"x_min":52,"x_max":950,"o":"m 501 -13 q 263 43 364 -13 q 107 216 163 99 q 52 514 52 334 q 108 811 52 694 q 264 985 163 929 q 501 1041 364 1041 q 739 985 639 1041 q 895 811 840 928 q 950 514 950 693 q 894 217 950 335 q 739 43 839 99 q 501 -13 638 -13 m 501 165 q 670 245 612 165 q 728 509 728 326 q 670 781 728 699 q 501 863 613 863 q 332 782 390 863 q 274 519 274 701 q 332 247 274 329 q 501 165 390 165 m 501 1114 q 403 1140 438 1114 q 369 1216 369 1166 q 403 1292 369 1265 q 501 1318 438 1318 q 599 1292 565 1318 q 633 1216 633 1265 q 599 1140 633 1166 q 501 1114 565 1114 m 256 1390 l 256 1524 l 747 1524 l 747 1390 l 256 1390 z "},"Ọ":{"ha":1003,"x_min":52,"x_max":950,"o":"m 501 -13 q 263 43 364 -13 q 107 216 163 99 q 52 514 52 334 q 108 811 52 694 q 264 985 163 929 q 501 1041 364 1041 q 739 985 639 1041 q 895 811 840 928 q 950 514 950 693 q 894 217 950 335 q 739 43 839 99 q 501 -13 638 -13 m 501 165 q 670 245 612 165 q 728 509 728 326 q 670 781 728 699 q 501 863 613 863 q 332 782 390 863 q 274 519 274 701 q 332 247 274 329 q 501 165 390 165 m 501 -292 q 403 -266 438 -292 q 369 -190 369 -240 q 403 -115 369 -141 q 501 -88 438 -88 q 599 -115 565 -88 q 633 -190 633 -141 q 599 -266 633 -240 q 501 -292 565 -292 z "},"Ò":{"ha":1003,"x_min":52,"x_max":950,"o":"m 501 -13 q 263 43 364 -13 q 107 216 163 99 q 52 514 52 334 q 108 811 52 694 q 264 985 163 929 q 501 1041 364 1041 q 739 985 639 1041 q 895 811 840 928 q 950 514 950 693 q 894 217 950 335 q 739 43 839 99 q 501 -13 638 -13 m 501 165 q 670 245 612 165 q 728 509 728 326 q 670 781 728 699 q 501 863 613 863 q 332 782 390 863 q 274 519 274 701 q 332 247 274 329 q 501 165 390 165 m 406 1107 l 256 1318 l 478 1318 l 597 1107 l 406 1107 z "},"Ỏ":{"ha":1003,"x_min":52,"x_max":950,"o":"m 501 -13 q 263 43 364 -13 q 107 216 163 99 q 52 514 52 334 q 108 811 52 694 q 264 985 163 929 q 501 1041 364 1041 q 739 985 639 1041 q 895 811 840 928 q 950 514 950 693 q 894 217 950 335 q 739 43 839 99 q 501 -13 638 -13 m 501 165 q 670 245 612 165 q 728 509 728 326 q 670 781 728 699 q 501 863 613 863 q 332 782 390 863 q 274 519 274 701 q 332 247 274 329 q 501 165 390 165 m 447 1107 q 468 1158 449 1140 q 521 1192 488 1176 q 548 1207 540 1201 q 556 1222 556 1213 q 539 1241 556 1235 q 484 1248 522 1248 q 356 1231 418 1248 l 356 1314 q 424 1327 383 1322 q 501 1332 465 1332 q 631 1309 589 1332 q 672 1238 672 1286 q 657 1195 672 1211 q 610 1163 641 1180 q 571 1136 584 1148 q 555 1107 558 1125 l 447 1107 z "},"Ơ":{"ha":1003,"x_min":52,"x_max":960,"o":"m 812 931 q 915 762 879 866 q 950 514 950 658 q 831 116 950 246 q 501 -13 713 -13 q 263 43 363 -13 q 107 216 163 99 q 52 514 52 334 q 108 811 52 694 q 264 985 163 929 q 501 1041 364 1041 q 554 1039 527 1041 q 605 1033 581 1036 q 692 1026 662 1026 q 781 1052 751 1026 q 810 1135 810 1078 q 798 1233 810 1179 l 945 1233 q 960 1124 960 1187 q 921 994 960 1042 q 812 931 882 946 m 501 165 q 670 245 612 165 q 728 509 728 326 q 670 781 728 699 q 501 863 613 863 q 332 782 390 863 q 274 519 274 701 q 332 247 274 329 q 501 165 390 165 z "},"Ớ":{"ha":1003,"x_min":52,"x_max":960,"o":"m 812 931 q 915 762 879 866 q 950 514 950 658 q 831 116 950 246 q 501 -13 713 -13 q 263 43 363 -13 q 107 216 163 99 q 52 514 52 334 q 108 811 52 694 q 264 985 163 929 q 501 1041 364 1041 q 554 1039 527 1041 q 605 1033 581 1036 q 692 1026 662 1026 q 781 1052 751 1026 q 810 1135 810 1078 q 798 1233 810 1179 l 945 1233 q 960 1124 960 1187 q 921 994 960 1042 q 812 931 882 946 m 501 165 q 670 245 612 165 q 728 509 728 326 q 670 781 728 699 q 501 863 613 863 q 332 782 390 863 q 274 519 274 701 q 332 247 274 329 q 501 165 390 165 m 406 1107 l 523 1318 l 746 1318 l 596 1107 l 406 1107 z "},"Ợ":{"ha":1003,"x_min":52,"x_max":960,"o":"m 812 931 q 915 762 879 866 q 950 514 950 658 q 831 116 950 246 q 501 -13 713 -13 q 263 43 363 -13 q 107 216 163 99 q 52 514 52 334 q 108 811 52 694 q 264 985 163 929 q 501 1041 364 1041 q 554 1039 527 1041 q 605 1033 581 1036 q 692 1026 662 1026 q 781 1052 751 1026 q 810 1135 810 1078 q 798 1233 810 1179 l 945 1233 q 960 1124 960 1187 q 921 994 960 1042 q 812 931 882 946 m 501 165 q 670 245 612 165 q 728 509 728 326 q 670 781 728 699 q 501 863 613 863 q 332 782 390 863 q 274 519 274 701 q 332 247 274 329 q 501 165 390 165 m 501 -292 q 403 -266 438 -292 q 369 -190 369 -240 q 403 -115 369 -141 q 501 -88 438 -88 q 599 -115 565 -88 q 633 -190 633 -141 q 599 -266 633 -240 q 501 -292 565 -292 z "},"Ờ":{"ha":1003,"x_min":52,"x_max":960,"o":"m 812 931 q 915 762 879 866 q 950 514 950 658 q 831 116 950 246 q 501 -13 713 -13 q 263 43 363 -13 q 107 216 163 99 q 52 514 52 334 q 108 811 52 694 q 264 985 163 929 q 501 1041 364 1041 q 554 1039 527 1041 q 605 1033 581 1036 q 692 1026 662 1026 q 781 1052 751 1026 q 810 1135 810 1078 q 798 1233 810 1179 l 945 1233 q 960 1124 960 1187 q 921 994 960 1042 q 812 931 882 946 m 501 165 q 670 245 612 165 q 728 509 728 326 q 670 781 728 699 q 501 863 613 863 q 332 782 390 863 q 274 519 274 701 q 332 247 274 329 q 501 165 390 165 m 406 1107 l 256 1318 l 478 1318 l 597 1107 l 406 1107 z "},"Ở":{"ha":1003,"x_min":52,"x_max":960,"o":"m 812 931 q 915 762 879 866 q 950 514 950 658 q 831 116 950 246 q 501 -13 713 -13 q 263 43 363 -13 q 107 216 163 99 q 52 514 52 334 q 108 811 52 694 q 264 985 163 929 q 501 1041 364 1041 q 554 1039 527 1041 q 605 1033 581 1036 q 692 1026 662 1026 q 781 1052 751 1026 q 810 1135 810 1078 q 798 1233 810 1179 l 945 1233 q 960 1124 960 1187 q 921 994 960 1042 q 812 931 882 946 m 501 165 q 670 245 612 165 q 728 509 728 326 q 670 781 728 699 q 501 863 613 863 q 332 782 390 863 q 274 519 274 701 q 332 247 274 329 q 501 165 390 165 m 447 1107 q 468 1158 449 1140 q 521 1192 488 1176 q 548 1207 540 1201 q 556 1222 556 1213 q 539 1241 556 1235 q 484 1248 522 1248 q 356 1231 418 1248 l 356 1314 q 424 1327 383 1322 q 501 1332 465 1332 q 631 1309 589 1332 q 672 1238 672 1286 q 657 1195 672 1211 q 610 1163 641 1180 q 571 1136 584 1148 q 555 1107 558 1125 l 447 1107 z "},"Ỡ":{"ha":1003,"x_min":52,"x_max":960,"o":"m 610 1123 q 552 1131 579 1123 q 490 1152 524 1138 q 435 1171 456 1165 q 391 1177 414 1177 q 324 1165 353 1177 q 266 1126 295 1153 l 266 1256 q 321 1294 290 1282 q 394 1307 351 1307 q 450 1299 424 1307 q 513 1277 477 1292 q 567 1258 545 1264 q 612 1251 589 1251 q 678 1264 649 1251 q 737 1302 707 1276 l 737 1173 q 682 1135 713 1147 q 610 1123 652 1123 m 812 931 q 915 762 879 866 q 950 514 950 658 q 831 116 950 246 q 501 -13 713 -13 q 263 43 363 -13 q 107 216 163 99 q 52 514 52 334 q 108 811 52 694 q 264 985 163 929 q 501 1041 364 1041 q 554 1039 527 1041 q 605 1033 581 1036 q 692 1026 662 1026 q 781 1052 751 1026 q 810 1135 810 1078 q 798 1233 810 1179 l 945 1233 q 960 1124 960 1187 q 921 994 960 1042 q 812 931 882 946 m 501 165 q 670 245 612 165 q 728 509 728 326 q 670 781 728 699 q 501 863 613 863 q 332 782 390 863 q 274 519 274 701 q 332 247 274 329 q 501 165 390 165 z "},"Ő":{"ha":1003,"x_min":52,"x_max":950,"o":"m 501 -13 q 263 43 364 -13 q 107 216 163 99 q 52 514 52 334 q 108 811 52 694 q 264 985 163 929 q 501 1041 364 1041 q 739 985 639 1041 q 895 811 840 928 q 950 514 950 693 q 894 217 950 335 q 739 43 839 99 q 501 -13 638 -13 m 501 165 q 670 245 612 165 q 728 509 728 326 q 670 781 728 699 q 501 863 613 863 q 332 782 390 863 q 274 519 274 701 q 332 247 274 329 q 501 165 390 165 m 283 1107 l 369 1318 l 541 1318 l 444 1107 l 283 1107 m 558 1107 l 645 1318 l 817 1318 l 720 1107 l 558 1107 z "},"Ȏ":{"ha":1003,"x_min":52,"x_max":950,"o":"m 501 -13 q 263 43 364 -13 q 107 216 163 99 q 52 514 52 334 q 108 811 52 694 q 264 985 163 929 q 501 1041 364 1041 q 739 985 639 1041 q 895 811 840 928 q 950 514 950 693 q 894 217 950 335 q 739 43 839 99 q 501 -13 638 -13 m 501 165 q 670 245 612 165 q 728 509 728 326 q 670 781 728 699 q 501 863 613 863 q 332 782 390 863 q 274 519 274 701 q 332 247 274 329 q 501 165 390 165 m 254 1113 q 327 1263 264 1210 q 501 1316 390 1316 q 675 1263 611 1316 q 748 1113 738 1210 l 617 1113 q 582 1186 610 1163 q 501 1210 554 1210 q 419 1186 447 1210 q 385 1113 392 1163 l 254 1113 z "},"Ō":{"ha":1003,"x_min":52,"x_max":950,"o":"m 501 -13 q 263 43 364 -13 q 107 216 163 99 q 52 514 52 334 q 108 811 52 694 q 264 985 163 929 q 501 1041 364 1041 q 739 985 639 1041 q 895 811 840 928 q 950 514 950 693 q 894 217 950 335 q 739 43 839 99 q 501 -13 638 -13 m 501 165 q 670 245 612 165 q 728 509 728 326 q 670 781 728 699 q 501 863 613 863 q 332 782 390 863 q 274 519 274 701 q 332 247 274 329 q 501 165 390 165 m 256 1146 l 256 1281 l 747 1281 l 747 1146 l 256 1146 z "},"Ṓ":{"ha":1003,"x_min":52,"x_max":950,"o":"m 501 -13 q 263 43 364 -13 q 107 216 163 99 q 52 514 52 334 q 108 811 52 694 q 264 985 163 929 q 501 1041 364 1041 q 739 985 639 1041 q 895 811 840 928 q 950 514 950 693 q 894 217 950 335 q 739 43 839 99 q 501 -13 638 -13 m 501 165 q 670 245 612 165 q 728 509 728 326 q 670 781 728 699 q 501 863 613 863 q 332 782 390 863 q 274 519 274 701 q 332 247 274 329 q 501 165 390 165 m 396 1359 l 513 1520 l 756 1520 l 606 1359 l 396 1359 m 256 1146 l 256 1281 l 747 1281 l 747 1146 l 256 1146 z "},"Ṑ":{"ha":1003,"x_min":52,"x_max":950,"o":"m 501 -13 q 263 43 364 -13 q 107 216 163 99 q 52 514 52 334 q 108 811 52 694 q 264 985 163 929 q 501 1041 364 1041 q 739 985 639 1041 q 895 811 840 928 q 950 514 950 693 q 894 217 950 335 q 739 43 839 99 q 501 -13 638 -13 m 501 165 q 670 245 612 165 q 728 509 728 326 q 670 781 728 699 q 501 863 613 863 q 332 782 390 863 q 274 519 274 701 q 332 247 274 329 q 501 165 390 165 m 396 1359 l 247 1520 l 489 1520 l 606 1359 l 396 1359 m 256 1146 l 256 1281 l 747 1281 l 747 1146 l 256 1146 z "},"Ǫ":{"ha":1003,"x_min":52,"x_max":950,"o":"m 670 12 q 528 -63 571 -23 q 486 -151 486 -103 q 581 -219 486 -219 q 679 -199 627 -219 l 679 -285 q 554 -308 619 -308 q 412 -270 460 -308 q 364 -164 364 -232 q 386 -81 364 -119 q 457 -12 408 -43 q 159 131 265 1 q 52 514 52 260 q 108 811 52 694 q 264 985 163 929 q 501 1041 364 1041 q 739 985 639 1041 q 895 811 840 929 q 950 514 950 694 q 874 177 950 299 q 670 12 798 55 m 274 519 q 332 247 274 329 q 501 165 390 165 q 670 245 612 165 q 728 509 728 326 q 670 781 728 699 q 501 863 613 863 q 332 782 390 863 q 274 519 274 701 z "},"Ø":{"ha":1003,"x_min":52,"x_max":950,"o":"m 844 895 q 950 514 950 760 q 894 217 950 335 q 739 43 839 99 q 501 -13 638 -13 q 246 53 349 -13 l 183 -34 l 89 33 l 159 132 q 52 514 52 266 q 108 811 52 694 q 264 985 163 929 q 501 1041 364 1041 q 758 974 653 1041 l 820 1062 l 915 994 l 844 895 m 274 519 q 297 326 274 402 l 643 813 q 501 863 590 863 q 332 782 390 863 q 274 519 274 701 m 501 165 q 670 245 612 165 q 728 509 728 326 q 706 701 728 624 l 360 214 q 501 165 412 165 z "},"Ǿ":{"ha":1003,"x_min":52,"x_max":950,"o":"m 844 895 q 950 514 950 760 q 894 217 950 335 q 739 43 839 99 q 501 -13 638 -13 q 246 53 349 -13 l 183 -34 l 89 33 l 159 132 q 52 514 52 266 q 108 811 52 694 q 264 985 163 929 q 501 1041 364 1041 q 758 974 653 1041 l 820 1062 l 915 994 l 844 895 m 274 519 q 297 326 274 402 l 643 813 q 501 863 590 863 q 332 782 390 863 q 274 519 274 701 m 501 165 q 670 245 612 165 q 728 509 728 326 q 706 701 728 624 l 360 214 q 501 165 412 165 m 406 1107 l 523 1318 l 746 1318 l 596 1107 l 406 1107 z "},"Õ":{"ha":1003,"x_min":52,"x_max":950,"o":"m 501 -13 q 263 43 364 -13 q 107 216 163 99 q 52 514 52 334 q 108 811 52 694 q 264 985 163 929 q 501 1041 364 1041 q 739 985 639 1041 q 895 811 840 928 q 950 514 950 693 q 894 217 950 335 q 739 43 839 99 q 501 -13 638 -13 m 501 165 q 670 245 612 165 q 728 509 728 326 q 670 781 728 699 q 501 863 613 863 q 332 782 390 863 q 274 519 274 701 q 332 247 274 329 q 501 165 390 165 m 616 1123 q 555 1131 583 1123 q 489 1152 526 1138 q 430 1171 452 1165 q 383 1177 408 1177 q 312 1165 343 1177 q 250 1126 281 1153 l 250 1256 q 309 1294 276 1282 q 386 1307 342 1307 q 447 1299 419 1307 q 513 1277 475 1292 q 572 1258 549 1264 q 619 1251 594 1251 q 690 1264 659 1251 q 752 1302 720 1276 l 752 1173 q 693 1135 726 1147 q 616 1123 661 1123 z "},"Ṍ":{"ha":1003,"x_min":52,"x_max":950,"o":"m 501 -13 q 263 43 364 -13 q 107 216 163 99 q 52 514 52 334 q 108 811 52 694 q 264 985 163 929 q 501 1041 364 1041 q 739 985 639 1041 q 895 811 840 928 q 950 514 950 693 q 894 217 950 335 q 739 43 839 99 q 501 -13 638 -13 m 501 165 q 670 245 612 165 q 728 509 728 326 q 670 781 728 699 q 501 863 613 863 q 332 782 390 863 q 274 519 274 701 q 332 247 274 329 q 501 165 390 165 m 396 1359 l 513 1520 l 756 1520 l 606 1359 l 396 1359 m 616 1123 q 555 1131 583 1123 q 489 1152 526 1138 q 430 1171 452 1165 q 383 1177 408 1177 q 312 1165 343 1177 q 250 1126 281 1153 l 250 1256 q 309 1294 276 1282 q 386 1307 342 1307 q 447 1299 419 1307 q 513 1277 475 1292 q 572 1258 549 1264 q 619 1251 594 1251 q 690 1264 659 1251 q 752 1302 720 1276 l 752 1173 q 693 1135 726 1147 q 616 1123 661 1123 z "},"Ṏ":{"ha":1003,"x_min":52,"x_max":950,"o":"m 501 -13 q 263 43 364 -13 q 107 216 163 99 q 52 514 52 334 q 108 811 52 694 q 264 985 163 929 q 501 1041 364 1041 q 739 985 639 1041 q 895 811 840 928 q 950 514 950 693 q 894 217 950 335 q 739 43 839 99 q 501 -13 638 -13 m 501 165 q 670 245 612 165 q 728 509 728 326 q 670 781 728 699 q 501 863 613 863 q 332 782 390 863 q 274 519 274 701 q 332 247 274 329 q 501 165 390 165 m 616 1123 q 555 1131 583 1123 q 489 1152 526 1138 q 430 1171 452 1165 q 383 1177 408 1177 q 312 1165 343 1177 q 250 1126 281 1153 l 250 1256 q 309 1294 276 1282 q 386 1307 342 1307 q 447 1299 419 1307 q 513 1277 475 1292 q 572 1258 549 1264 q 619 1251 594 1251 q 690 1264 659 1251 q 752 1302 720 1276 l 752 1173 q 693 1135 726 1147 q 616 1123 661 1123 m 331 1358 q 243 1384 274 1358 q 213 1460 213 1410 q 243 1535 213 1508 q 331 1562 274 1562 q 417 1535 387 1562 q 448 1460 448 1508 q 417 1384 448 1411 q 331 1358 387 1358 m 672 1358 q 585 1384 615 1358 q 554 1460 554 1410 q 585 1535 554 1508 q 672 1562 616 1562 q 759 1535 728 1562 q 790 1460 790 1508 q 759 1384 790 1411 q 672 1358 728 1358 z "},"Ȭ":{"ha":1003,"x_min":52,"x_max":950,"o":"m 501 -13 q 263 43 364 -13 q 107 216 163 99 q 52 514 52 334 q 108 811 52 694 q 264 985 163 929 q 501 1041 364 1041 q 739 985 639 1041 q 895 811 840 928 q 950 514 950 693 q 894 217 950 335 q 739 43 839 99 q 501 -13 638 -13 m 501 165 q 670 245 612 165 q 728 509 728 326 q 670 781 728 699 q 501 863 613 863 q 332 782 390 863 q 274 519 274 701 q 332 247 274 329 q 501 165 390 165 m 616 1123 q 555 1131 583 1123 q 489 1152 526 1138 q 430 1171 452 1165 q 383 1177 408 1177 q 312 1165 343 1177 q 250 1126 281 1153 l 250 1256 q 309 1294 276 1282 q 386 1307 342 1307 q 447 1299 419 1307 q 513 1277 475 1292 q 572 1258 549 1264 q 619 1251 594 1251 q 690 1264 659 1251 q 752 1302 720 1276 l 752 1173 q 693 1135 726 1147 q 616 1123 661 1123 m 256 1390 l 256 1524 l 747 1524 l 747 1390 l 256 1390 z "},"Œ":{"ha":1360,"x_min":52,"x_max":1315,"o":"m 1315 181 l 1315 0 l 798 0 q 744 -1 776 0 q 698 -3 713 -3 q 588 -8 624 -8 q 186 120 319 -8 q 52 514 52 247 q 191 907 52 778 q 591 1036 329 1036 q 699 1032 628 1036 q 795 1028 767 1028 l 1308 1028 l 1308 847 l 867 847 l 867 616 l 1238 616 l 1238 435 l 867 435 l 867 181 l 1315 181 m 654 852 q 552 856 608 856 q 398 822 459 856 q 306 713 337 788 q 274 514 274 638 q 306 314 274 390 q 400 205 338 239 q 555 172 461 172 q 654 174 620 172 l 654 852 z "},"P":{"ha":863,"x_min":84,"x_max":818,"o":"m 84 1009 q 379 1040 231 1040 q 709 950 600 1040 q 818 669 818 860 q 710 392 818 486 q 392 297 602 297 q 300 301 354 297 l 300 0 l 84 0 l 84 1009 m 395 468 q 557 515 506 468 q 608 667 608 562 q 557 822 608 773 q 399 870 506 870 q 300 862 344 870 l 300 474 q 395 468 341 468 z "},"Þ":{"ha":870,"x_min":84,"x_max":818,"o":"m 84 1028 l 300 1028 l 300 894 q 331 898 306 895 q 381 900 356 900 q 709 809 601 900 q 818 528 818 719 q 711 251 818 344 q 394 157 604 157 q 300 160 365 157 l 300 0 l 84 0 l 84 1028 m 395 327 q 557 374 506 327 q 608 526 608 421 q 557 681 608 632 q 399 729 506 729 q 300 721 345 729 l 300 333 q 395 327 349 327 z "},"Q":{"ha":1003,"x_min":52,"x_max":950,"o":"m 950 514 q 871 180 950 306 q 640 19 792 53 q 935 -41 778 -22 l 896 -215 q 393 -69 577 -164 q 130 167 208 26 q 52 513 52 308 q 108 811 52 693 q 264 985 163 928 q 501 1041 364 1041 q 739 985 639 1041 q 895 811 840 929 q 950 514 950 694 m 274 519 q 332 247 274 329 q 501 165 390 165 q 670 245 612 165 q 728 509 728 326 q 670 781 728 699 q 501 863 613 863 q 332 782 390 863 q 274 519 274 701 z "},"R":{"ha":906,"x_min":84,"x_max":894,"o":"m 661 0 l 412 377 l 399 377 q 297 380 363 377 l 297 0 l 84 0 l 84 1008 q 386 1040 235 1040 q 709 959 602 1040 q 815 710 815 877 q 764 525 816 601 q 616 413 713 450 l 894 0 l 661 0 m 297 549 q 400 544 347 544 q 560 583 508 544 q 612 709 612 622 q 563 835 612 794 q 413 875 513 875 q 297 865 349 875 l 297 549 z "},"Ŕ":{"ha":906,"x_min":84,"x_max":894,"o":"m 661 0 l 412 377 l 399 377 q 297 380 363 377 l 297 0 l 84 0 l 84 1008 q 386 1040 235 1040 q 709 959 602 1040 q 815 710 815 877 q 764 525 816 601 q 616 413 713 450 l 894 0 l 661 0 m 297 549 q 400 544 347 544 q 560 583 508 544 q 612 709 612 622 q 563 835 612 794 q 413 875 513 875 q 297 865 349 875 l 297 549 m 346 1107 l 463 1318 l 686 1318 l 536 1107 l 346 1107 z "},"Ř":{"ha":906,"x_min":84,"x_max":894,"o":"m 661 0 l 412 377 l 399 377 q 297 380 363 377 l 297 0 l 84 0 l 84 1008 q 386 1040 235 1040 q 709 959 602 1040 q 815 710 815 877 q 764 525 816 601 q 616 413 713 450 l 894 0 l 661 0 m 297 549 q 400 544 347 544 q 560 583 508 544 q 612 709 612 622 q 563 835 612 794 q 413 875 513 875 q 297 865 349 875 l 297 549 m 533 1318 l 686 1318 l 532 1107 l 351 1107 l 197 1318 l 349 1318 l 442 1185 l 533 1318 z "},"Ŗ":{"ha":906,"x_min":84,"x_max":894,"o":"m 661 0 l 412 377 l 399 377 q 297 380 363 377 l 297 0 l 84 0 l 84 1008 q 386 1040 235 1040 q 709 959 602 1040 q 815 710 815 877 q 764 525 816 601 q 616 413 713 450 l 894 0 l 661 0 m 297 549 q 400 544 347 544 q 560 583 508 544 q 612 709 612 622 q 563 835 612 794 q 413 875 513 875 q 297 865 349 875 l 297 549 m 478 -88 q 599 -192 599 -88 q 584 -271 599 -228 q 546 -345 569 -314 l 413 -345 q 451 -244 443 -284 q 383 -219 405 -240 q 360 -166 360 -199 q 390 -109 360 -129 q 478 -88 419 -88 z "},"Ȑ":{"ha":906,"x_min":84,"x_max":894,"o":"m 661 0 l 412 377 l 399 377 q 297 380 363 377 l 297 0 l 84 0 l 84 1008 q 386 1040 235 1040 q 709 959 602 1040 q 815 710 815 877 q 764 525 816 601 q 616 413 713 450 l 894 0 l 661 0 m 297 549 q 400 544 347 544 q 560 583 508 544 q 612 709 612 622 q 563 835 612 794 q 413 875 513 875 q 297 865 349 875 l 297 549 m 223 1107 l 126 1318 l 297 1318 l 385 1107 l 223 1107 m 499 1107 l 401 1318 l 573 1318 l 660 1107 l 499 1107 z "},"Ṛ":{"ha":906,"x_min":84,"x_max":894,"o":"m 661 0 l 412 377 l 399 377 q 297 380 363 377 l 297 0 l 84 0 l 84 1008 q 386 1040 235 1040 q 709 959 602 1040 q 815 710 815 877 q 764 525 816 601 q 616 413 713 450 l 894 0 l 661 0 m 297 549 q 400 544 347 544 q 560 583 508 544 q 612 709 612 622 q 563 835 612 794 q 413 875 513 875 q 297 865 349 875 l 297 549 m 480 -292 q 382 -266 417 -292 q 347 -190 347 -240 q 382 -115 347 -141 q 480 -88 417 -88 q 577 -115 543 -88 q 612 -190 612 -141 q 577 -266 612 -240 q 480 -292 543 -292 z "},"Ȓ":{"ha":906,"x_min":84,"x_max":894,"o":"m 661 0 l 412 377 l 399 377 q 297 380 363 377 l 297 0 l 84 0 l 84 1008 q 386 1040 235 1040 q 709 959 602 1040 q 815 710 815 877 q 764 525 816 601 q 616 413 713 450 l 894 0 l 661 0 m 297 549 q 400 544 347 544 q 560 583 508 544 q 612 709 612 622 q 563 835 612 794 q 413 875 513 875 q 297 865 349 875 l 297 549 m 194 1113 q 267 1263 204 1210 q 441 1316 331 1316 q 615 1263 551 1316 q 688 1113 678 1210 l 558 1113 q 522 1186 550 1163 q 441 1210 494 1210 q 359 1186 387 1210 q 325 1113 332 1163 l 194 1113 z "},"Ṟ":{"ha":906,"x_min":84,"x_max":894,"o":"m 661 0 l 412 377 l 399 377 q 297 380 363 377 l 297 0 l 84 0 l 84 1008 q 386 1040 235 1040 q 709 959 602 1040 q 815 710 815 877 q 764 525 816 601 q 616 413 713 450 l 894 0 l 661 0 m 297 549 q 400 544 347 544 q 560 583 508 544 q 612 709 612 622 q 563 835 612 794 q 413 875 513 875 q 297 865 349 875 l 297 549 m 234 -252 l 234 -117 l 725 -117 l 725 -252 l 234 -252 z "},"S":{"ha":747,"x_min":30,"x_max":717,"o":"m 322 -13 q 184 -2 255 -13 q 56 29 113 9 l 56 208 q 187 177 118 189 q 318 166 256 166 q 500 285 500 166 q 487 339 500 317 q 442 378 474 361 q 354 412 410 395 l 281 434 q 30 728 30 507 q 75 896 30 826 q 211 1003 121 966 q 435 1041 302 1041 q 558 1033 499 1041 q 664 1013 617 1026 l 664 833 q 563 854 617 847 q 453 862 508 862 q 295 831 343 862 q 247 743 247 799 q 258 691 247 713 q 298 654 270 670 q 376 623 326 638 l 450 601 q 650 491 583 563 q 717 303 717 419 q 670 134 717 205 q 534 25 623 63 q 322 -13 445 -13 z "},"Ś":{"ha":747,"x_min":30,"x_max":717,"o":"m 322 -13 q 184 -2 255 -13 q 56 29 113 9 l 56 208 q 187 177 118 189 q 318 166 256 166 q 500 285 500 166 q 487 339 500 317 q 442 378 474 361 q 354 412 410 395 l 281 434 q 30 728 30 507 q 75 896 30 826 q 211 1003 121 966 q 435 1041 302 1041 q 558 1033 499 1041 q 664 1013 617 1026 l 664 833 q 563 854 617 847 q 453 862 508 862 q 295 831 343 862 q 247 743 247 799 q 258 691 247 713 q 298 654 270 670 q 376 623 326 638 l 450 601 q 650 491 583 563 q 717 303 717 419 q 670 134 717 205 q 534 25 623 63 q 322 -13 445 -13 m 285 1107 l 402 1318 l 625 1318 l 475 1107 l 285 1107 z "},"Ṥ":{"ha":747,"x_min":30,"x_max":717,"o":"m 322 -13 q 184 -2 255 -13 q 56 29 113 9 l 56 208 q 187 177 118 189 q 318 166 256 166 q 500 285 500 166 q 487 339 500 317 q 442 378 474 361 q 354 412 410 395 l 281 434 q 30 728 30 507 q 75 896 30 826 q 211 1003 121 966 q 435 1041 302 1041 q 558 1033 499 1041 q 664 1013 617 1026 l 664 833 q 563 854 617 847 q 453 862 508 862 q 295 831 343 862 q 247 743 247 799 q 258 691 247 713 q 298 654 270 670 q 376 623 326 638 l 450 601 q 650 491 583 563 q 717 303 717 419 q 670 134 717 205 q 534 25 623 63 q 322 -13 445 -13 m 223 1290 q 143 1312 172 1290 q 115 1374 115 1333 q 143 1437 115 1415 q 223 1458 172 1458 q 303 1437 274 1458 q 331 1374 331 1415 q 303 1312 331 1333 q 223 1290 274 1290 m 285 1107 l 402 1318 l 625 1318 l 475 1107 l 285 1107 z "},"Š":{"ha":747,"x_min":30,"x_max":717,"o":"m 322 -13 q 184 -2 255 -13 q 56 29 113 9 l 56 208 q 187 177 118 189 q 318 166 256 166 q 500 285 500 166 q 487 339 500 317 q 442 378 474 361 q 354 412 410 395 l 281 434 q 30 728 30 507 q 75 896 30 826 q 211 1003 121 966 q 435 1041 302 1041 q 558 1033 499 1041 q 664 1013 617 1026 l 664 833 q 563 854 617 847 q 453 862 508 862 q 295 831 343 862 q 247 743 247 799 q 258 691 247 713 q 298 654 270 670 q 376 623 326 638 l 450 601 q 650 491 583 563 q 717 303 717 419 q 670 134 717 205 q 534 25 623 63 q 322 -13 445 -13 m 472 1318 l 625 1318 l 471 1107 l 290 1107 l 135 1318 l 288 1318 l 381 1185 l 472 1318 z "},"Ṧ":{"ha":747,"x_min":30,"x_max":717,"o":"m 322 -13 q 184 -2 255 -13 q 56 29 113 9 l 56 208 q 187 177 118 189 q 318 166 256 166 q 500 285 500 166 q 487 339 500 317 q 442 378 474 361 q 354 412 410 395 l 281 434 q 30 728 30 507 q 75 896 30 826 q 211 1003 121 966 q 435 1041 302 1041 q 558 1033 499 1041 q 664 1013 617 1026 l 664 833 q 563 854 617 847 q 453 862 508 862 q 295 831 343 862 q 247 743 247 799 q 258 691 247 713 q 298 654 270 670 q 376 623 326 638 l 450 601 q 650 491 583 563 q 717 303 717 419 q 670 134 717 205 q 534 25 623 63 q 322 -13 445 -13 m 381 1338 q 300 1360 328 1338 q 272 1422 272 1381 q 300 1485 272 1463 q 381 1506 328 1506 q 460 1485 432 1506 q 488 1422 488 1463 q 460 1360 488 1381 q 381 1338 432 1338 m 472 1318 l 625 1318 l 471 1107 l 290 1107 l 135 1318 l 288 1318 l 381 1185 l 472 1318 z "},"Ş":{"ha":747,"x_min":30,"x_max":717,"o":"m 717 303 q 639 95 717 176 q 419 -6 562 15 l 419 -60 q 512 -100 480 -69 q 544 -181 544 -131 q 498 -274 544 -241 q 357 -308 451 -308 q 223 -287 283 -308 l 223 -201 q 285 -217 253 -212 q 347 -222 317 -222 q 408 -211 388 -222 q 428 -173 428 -199 q 344 -122 428 -122 l 315 -122 l 315 -13 q 180 -2 249 -12 q 56 29 112 9 l 56 208 q 187 177 118 189 q 318 166 256 166 q 500 285 500 166 q 487 339 500 317 q 442 378 474 361 q 354 412 410 395 l 281 434 q 30 728 30 507 q 75 896 30 826 q 211 1003 121 966 q 435 1041 302 1041 q 558 1033 499 1041 q 664 1013 617 1026 l 664 833 q 563 854 617 847 q 453 862 508 862 q 295 831 343 862 q 247 743 247 799 q 258 691 247 713 q 298 654 270 670 q 376 623 326 638 l 450 601 q 650 491 583 563 q 717 303 717 419 z "},"Ŝ":{"ha":747,"x_min":30,"x_max":717,"o":"m 322 -13 q 184 -2 255 -13 q 56 29 113 9 l 56 208 q 187 177 118 189 q 318 166 256 166 q 500 285 500 166 q 487 339 500 317 q 442 378 474 361 q 354 412 410 395 l 281 434 q 30 728 30 507 q 75 896 30 826 q 211 1003 121 966 q 435 1041 302 1041 q 558 1033 499 1041 q 664 1013 617 1026 l 664 833 q 563 854 617 847 q 453 862 508 862 q 295 831 343 862 q 247 743 247 799 q 258 691 247 713 q 298 654 270 670 q 376 623 326 638 l 450 601 q 650 491 583 563 q 717 303 717 419 q 670 134 717 205 q 534 25 623 63 q 322 -13 445 -13 m 625 1107 l 472 1107 l 381 1240 l 288 1107 l 135 1107 l 290 1318 l 471 1318 l 625 1107 z "},"Ș":{"ha":747,"x_min":30,"x_max":717,"o":"m 322 -13 q 184 -2 255 -13 q 56 29 113 9 l 56 208 q 187 177 118 189 q 318 166 256 166 q 500 285 500 166 q 487 339 500 317 q 442 378 474 361 q 354 412 410 395 l 281 434 q 30 728 30 507 q 75 896 30 826 q 211 1003 121 966 q 435 1041 302 1041 q 558 1033 499 1041 q 664 1013 617 1026 l 664 833 q 563 854 617 847 q 453 862 508 862 q 295 831 343 862 q 247 743 247 799 q 258 691 247 713 q 298 654 270 670 q 376 623 326 638 l 450 601 q 650 491 583 563 q 717 303 717 419 q 670 134 717 205 q 534 25 623 63 q 322 -13 445 -13 m 379 -88 q 499 -192 499 -88 q 484 -271 499 -228 q 447 -345 469 -314 l 313 -345 q 351 -244 344 -284 q 283 -219 306 -240 q 261 -166 261 -199 q 290 -109 261 -129 q 379 -88 319 -88 z "},"Ṡ":{"ha":747,"x_min":30,"x_max":717,"o":"m 322 -13 q 184 -2 255 -13 q 56 29 113 9 l 56 208 q 187 177 118 189 q 318 166 256 166 q 500 285 500 166 q 487 339 500 317 q 442 378 474 361 q 354 412 410 395 l 281 434 q 30 728 30 507 q 75 896 30 826 q 211 1003 121 966 q 435 1041 302 1041 q 558 1033 499 1041 q 664 1013 617 1026 l 664 833 q 563 854 617 847 q 453 862 508 862 q 295 831 343 862 q 247 743 247 799 q 258 691 247 713 q 298 654 270 670 q 376 623 326 638 l 450 601 q 650 491 583 563 q 717 303 717 419 q 670 134 717 205 q 534 25 623 63 q 322 -13 445 -13 m 381 1114 q 282 1140 317 1114 q 248 1216 248 1166 q 283 1292 248 1265 q 381 1318 317 1318 q 478 1292 444 1318 q 513 1216 513 1265 q 478 1140 513 1166 q 381 1114 444 1114 z "},"Ṣ":{"ha":747,"x_min":30,"x_max":717,"o":"m 322 -13 q 184 -2 255 -13 q 56 29 113 9 l 56 208 q 187 177 118 189 q 318 166 256 166 q 500 285 500 166 q 487 339 500 317 q 442 378 474 361 q 354 412 410 395 l 281 434 q 30 728 30 507 q 75 896 30 826 q 211 1003 121 966 q 435 1041 302 1041 q 558 1033 499 1041 q 664 1013 617 1026 l 664 833 q 563 854 617 847 q 453 862 508 862 q 295 831 343 862 q 247 743 247 799 q 258 691 247 713 q 298 654 270 670 q 376 623 326 638 l 450 601 q 650 491 583 563 q 717 303 717 419 q 670 134 717 205 q 534 25 623 63 q 322 -13 445 -13 m 381 -292 q 283 -266 317 -292 q 248 -190 248 -240 q 283 -115 248 -141 q 381 -88 317 -88 q 478 -115 444 -88 q 513 -190 513 -141 q 478 -266 513 -240 q 381 -292 444 -292 z "},"Ṩ":{"ha":747,"x_min":30,"x_max":717,"o":"m 322 -13 q 184 -2 255 -13 q 56 29 113 9 l 56 208 q 187 177 118 189 q 318 166 256 166 q 500 285 500 166 q 487 339 500 317 q 442 378 474 361 q 354 412 410 395 l 281 434 q 30 728 30 507 q 75 896 30 826 q 211 1003 121 966 q 435 1041 302 1041 q 558 1033 499 1041 q 664 1013 617 1026 l 664 833 q 563 854 617 847 q 453 862 508 862 q 295 831 343 862 q 247 743 247 799 q 258 691 247 713 q 298 654 270 670 q 376 623 326 638 l 450 601 q 650 491 583 563 q 717 303 717 419 q 670 134 717 205 q 534 25 623 63 q 322 -13 445 -13 m 381 -292 q 283 -266 317 -292 q 248 -190 248 -240 q 283 -115 248 -141 q 381 -88 317 -88 q 478 -115 444 -88 q 513 -190 513 -141 q 478 -266 513 -240 q 381 -292 444 -292 m 381 1114 q 282 1140 317 1114 q 248 1216 248 1166 q 283 1292 248 1265 q 381 1318 317 1318 q 478 1292 444 1318 q 513 1216 513 1265 q 478 1140 513 1166 q 381 1114 444 1114 z "},"ẞ":{"ha":1183,"x_min":84,"x_max":1153,"o":"m 894 601 q 1088 491 1024 563 q 1153 303 1153 419 q 1107 134 1153 205 q 974 25 1061 63 q 764 -13 887 -13 q 635 -3 703 -13 q 513 27 567 8 l 513 206 q 638 177 572 188 q 760 166 703 166 q 938 285 938 166 q 925 340 938 317 q 883 380 913 363 q 801 412 853 397 l 731 434 q 550 541 613 469 q 487 728 487 614 q 512 859 487 802 q 465 864 492 864 q 341 819 382 864 q 300 681 300 774 l 300 0 l 84 0 l 84 654 q 179 942 84 844 q 465 1041 274 1041 q 666 1004 584 1041 q 889 1041 759 1041 q 1001 1034 945 1041 q 1102 1015 1057 1027 l 1102 835 q 1006 855 1058 848 q 906 862 953 862 q 749 831 797 862 q 702 743 702 799 q 713 691 702 713 q 750 653 724 669 q 822 623 776 637 l 894 601 z "},"Ə":{"ha":989,"x_min":45,"x_max":937,"o":"m 388 1041 q 800 910 663 1041 q 937 503 937 779 q 881 216 937 332 q 727 43 826 100 q 497 -13 628 -13 q 259 42 360 -13 q 101 213 158 97 q 45 504 45 328 l 45 582 l 718 582 q 666 749 708 687 q 552 838 625 811 q 369 865 480 865 q 236 857 306 865 q 108 833 167 849 l 108 1011 q 244 1034 172 1026 q 388 1041 317 1041 m 497 160 q 611 184 565 160 q 685 266 658 208 q 719 420 712 323 l 270 420 q 304 267 277 324 q 378 185 331 210 q 497 160 426 160 z "},"T":{"ha":836,"x_min":6,"x_max":830,"o":"m 310 0 l 310 840 l 6 840 l 6 1028 l 830 1028 l 830 840 l 526 840 l 526 0 l 310 0 z "},"Ŧ":{"ha":836,"x_min":6,"x_max":830,"o":"m 830 840 l 526 840 l 526 577 l 721 577 l 721 434 l 526 434 l 526 0 l 310 0 l 310 434 l 117 434 l 117 577 l 310 577 l 310 840 l 6 840 l 6 1028 l 830 1028 l 830 840 z "},"Ť":{"ha":836,"x_min":6,"x_max":830,"o":"m 310 0 l 310 840 l 6 840 l 6 1028 l 830 1028 l 830 840 l 526 840 l 526 0 l 310 0 m 510 1318 l 663 1318 l 509 1107 l 328 1107 l 174 1318 l 326 1318 l 419 1185 l 510 1318 z "},"Ţ":{"ha":836,"x_min":6,"x_max":830,"o":"m 458 0 l 458 -60 q 550 -100 518 -69 q 582 -181 582 -131 q 536 -274 582 -241 q 395 -308 490 -308 q 261 -287 322 -308 l 261 -201 q 323 -217 291 -212 q 385 -222 356 -222 q 447 -211 426 -222 q 467 -173 467 -199 q 383 -122 467 -122 l 353 -122 l 353 0 l 310 0 l 310 840 l 6 840 l 6 1028 l 830 1028 l 830 840 l 526 840 l 526 0 l 458 0 z "},"Ț":{"ha":836,"x_min":6,"x_max":830,"o":"m 310 0 l 310 840 l 6 840 l 6 1028 l 830 1028 l 830 840 l 526 840 l 526 0 l 310 0 m 417 -88 q 538 -192 538 -88 q 523 -271 538 -228 q 485 -345 508 -314 l 351 -345 q 390 -244 382 -284 q 322 -219 344 -240 q 299 -166 299 -199 q 328 -109 299 -129 q 417 -88 358 -88 z "},"Ṭ":{"ha":836,"x_min":6,"x_max":830,"o":"m 310 0 l 310 840 l 6 840 l 6 1028 l 830 1028 l 830 840 l 526 840 l 526 0 l 310 0 m 419 -292 q 321 -266 356 -292 q 286 -190 286 -240 q 321 -115 286 -141 q 419 -88 356 -88 q 516 -115 482 -88 q 551 -190 551 -141 q 516 -266 551 -240 q 419 -292 482 -292 z "},"Ṯ":{"ha":836,"x_min":6,"x_max":830,"o":"m 310 0 l 310 840 l 6 840 l 6 1028 l 830 1028 l 830 840 l 526 840 l 526 0 l 310 0 m 173 -252 l 173 -117 l 664 -117 l 664 -252 l 173 -252 z "},"U":{"ha":968,"x_min":80,"x_max":889,"o":"m 487 -13 q 258 32 347 -13 q 124 170 168 76 q 80 412 80 264 l 80 1028 l 296 1028 l 296 388 q 343 219 296 272 q 487 167 390 167 q 630 219 583 167 q 677 388 677 272 l 677 1028 l 889 1028 l 889 412 q 845 170 889 264 q 714 32 802 76 q 487 -13 625 -13 z "},"Ú":{"ha":968,"x_min":80,"x_max":889,"o":"m 487 -13 q 258 32 347 -13 q 124 170 168 76 q 80 412 80 264 l 80 1028 l 296 1028 l 296 388 q 343 219 296 272 q 487 167 390 167 q 630 219 583 167 q 677 388 677 272 l 677 1028 l 889 1028 l 889 412 q 845 170 889 264 q 714 32 802 76 q 487 -13 625 -13 m 391 1107 l 508 1318 l 731 1318 l 581 1107 l 391 1107 z "},"Ŭ":{"ha":968,"x_min":80,"x_max":889,"o":"m 487 -13 q 258 32 347 -13 q 124 170 168 76 q 80 412 80 264 l 80 1028 l 296 1028 l 296 388 q 343 219 296 272 q 487 167 390 167 q 630 219 583 167 q 677 388 677 272 l 677 1028 l 889 1028 l 889 412 q 845 170 889 264 q 714 32 802 76 q 487 -13 625 -13 m 487 1110 q 313 1163 376 1110 q 240 1313 249 1216 l 370 1313 q 405 1239 378 1263 q 487 1216 433 1216 q 568 1239 541 1216 q 603 1313 596 1263 l 733 1313 q 660 1163 724 1215 q 487 1110 597 1110 z "},"Û":{"ha":968,"x_min":80,"x_max":889,"o":"m 487 -13 q 258 32 347 -13 q 124 170 168 76 q 80 412 80 264 l 80 1028 l 296 1028 l 296 388 q 343 219 296 272 q 487 167 390 167 q 630 219 583 167 q 677 388 677 272 l 677 1028 l 889 1028 l 889 412 q 845 170 889 264 q 714 32 802 76 q 487 -13 625 -13 m 731 1107 l 578 1107 l 487 1240 l 394 1107 l 242 1107 l 396 1318 l 577 1318 l 731 1107 z "},"Ȕ":{"ha":968,"x_min":80,"x_max":889,"o":"m 487 -13 q 258 32 347 -13 q 124 170 168 76 q 80 412 80 264 l 80 1028 l 296 1028 l 296 388 q 343 219 296 272 q 487 167 390 167 q 630 219 583 167 q 677 388 677 272 l 677 1028 l 889 1028 l 889 412 q 845 170 889 264 q 714 32 802 76 q 487 -13 625 -13 m 268 1107 l 171 1318 l 342 1318 l 430 1107 l 268 1107 m 544 1107 l 447 1318 l 618 1318 l 706 1107 l 544 1107 z "},"Ü":{"ha":968,"x_min":80,"x_max":889,"o":"m 487 -13 q 258 32 347 -13 q 124 170 168 76 q 80 412 80 264 l 80 1028 l 296 1028 l 296 388 q 343 219 296 272 q 487 167 390 167 q 630 219 583 167 q 677 388 677 272 l 677 1028 l 889 1028 l 889 412 q 845 170 889 264 q 714 32 802 76 q 487 -13 625 -13 m 316 1114 q 228 1140 259 1114 q 198 1216 198 1167 q 229 1291 198 1265 q 316 1318 260 1318 q 403 1291 372 1318 q 433 1216 433 1265 q 403 1141 433 1167 q 316 1114 372 1114 m 658 1114 q 570 1140 601 1114 q 540 1216 540 1167 q 570 1291 540 1265 q 658 1318 601 1318 q 744 1291 714 1318 q 775 1216 775 1265 q 744 1141 775 1167 q 658 1114 714 1114 z "},"Ụ":{"ha":968,"x_min":80,"x_max":889,"o":"m 487 -13 q 258 32 347 -13 q 124 170 168 76 q 80 412 80 264 l 80 1028 l 296 1028 l 296 388 q 343 219 296 272 q 487 167 390 167 q 630 219 583 167 q 677 388 677 272 l 677 1028 l 889 1028 l 889 412 q 845 170 889 264 q 714 32 802 76 q 487 -13 625 -13 m 487 -292 q 389 -266 424 -292 q 354 -190 354 -240 q 389 -115 354 -141 q 487 -88 424 -88 q 584 -115 550 -88 q 619 -190 619 -141 q 584 -266 619 -240 q 487 -292 550 -292 z "},"Ù":{"ha":968,"x_min":80,"x_max":889,"o":"m 487 -13 q 258 32 347 -13 q 124 170 168 76 q 80 412 80 264 l 80 1028 l 296 1028 l 296 388 q 343 219 296 272 q 487 167 390 167 q 630 219 583 167 q 677 388 677 272 l 677 1028 l 889 1028 l 889 412 q 845 170 889 264 q 714 32 802 76 q 487 -13 625 -13 m 391 1107 l 242 1318 l 464 1318 l 582 1107 l 391 1107 z "},"Ủ":{"ha":968,"x_min":80,"x_max":889,"o":"m 487 -13 q 258 32 347 -13 q 124 170 168 76 q 80 412 80 264 l 80 1028 l 296 1028 l 296 388 q 343 219 296 272 q 487 167 390 167 q 630 219 583 167 q 677 388 677 272 l 677 1028 l 889 1028 l 889 412 q 845 170 889 264 q 714 32 802 76 q 487 -13 625 -13 m 432 1107 q 454 1158 434 1140 q 506 1192 474 1176 q 533 1207 525 1201 q 542 1222 542 1213 q 524 1241 542 1235 q 469 1248 507 1248 q 341 1231 403 1248 l 341 1314 q 409 1327 368 1322 q 486 1332 450 1332 q 616 1309 574 1332 q 658 1238 658 1286 q 642 1195 658 1211 q 595 1163 626 1180 q 556 1136 569 1148 q 540 1107 543 1125 l 432 1107 z "},"Ư":{"ha":972,"x_min":80,"x_max":1018,"o":"m 487 -13 q 258 32 347 -13 q 124 170 168 76 q 80 412 80 264 l 80 1028 l 296 1028 l 296 388 q 343 219 296 272 q 487 167 390 167 q 630 219 583 167 q 677 388 677 272 l 677 1028 l 751 1028 q 839 1053 809 1028 q 868 1135 868 1078 q 856 1233 868 1179 l 1003 1233 q 1015 1182 1011 1208 q 1018 1124 1018 1156 q 984 1002 1018 1049 q 889 940 950 956 l 889 412 q 845 170 889 264 q 714 32 802 76 q 487 -13 625 -13 z "},"Ứ":{"ha":972,"x_min":80,"x_max":1018,"o":"m 487 -13 q 258 32 347 -13 q 124 170 168 76 q 80 412 80 264 l 80 1028 l 296 1028 l 296 388 q 343 219 296 272 q 487 167 390 167 q 630 219 583 167 q 677 388 677 272 l 677 1028 l 751 1028 q 839 1053 809 1028 q 868 1135 868 1078 q 856 1233 868 1179 l 1003 1233 q 1015 1182 1011 1208 q 1018 1124 1018 1156 q 984 1002 1018 1049 q 889 940 950 956 l 889 412 q 845 170 889 264 q 714 32 802 76 q 487 -13 625 -13 m 389 1107 l 506 1318 l 729 1318 l 579 1107 l 389 1107 z "},"Ự":{"ha":972,"x_min":80,"x_max":1018,"o":"m 487 -13 q 258 32 347 -13 q 124 170 168 76 q 80 412 80 264 l 80 1028 l 296 1028 l 296 388 q 343 219 296 272 q 487 167 390 167 q 630 219 583 167 q 677 388 677 272 l 677 1028 l 751 1028 q 839 1053 809 1028 q 868 1135 868 1078 q 856 1233 868 1179 l 1003 1233 q 1015 1182 1011 1208 q 1018 1124 1018 1156 q 984 1002 1018 1049 q 889 940 950 956 l 889 412 q 845 170 889 264 q 714 32 802 76 q 487 -13 625 -13 m 485 -292 q 387 -266 422 -292 q 352 -190 352 -240 q 387 -115 352 -141 q 485 -88 422 -88 q 582 -115 548 -88 q 617 -190 617 -141 q 582 -266 617 -240 q 485 -292 548 -292 z "},"Ừ":{"ha":972,"x_min":80,"x_max":1018,"o":"m 487 -13 q 258 32 347 -13 q 124 170 168 76 q 80 412 80 264 l 80 1028 l 296 1028 l 296 388 q 343 219 296 272 q 487 167 390 167 q 630 219 583 167 q 677 388 677 272 l 677 1028 l 751 1028 q 839 1053 809 1028 q 868 1135 868 1078 q 856 1233 868 1179 l 1003 1233 q 1015 1182 1011 1208 q 1018 1124 1018 1156 q 984 1002 1018 1049 q 889 940 950 956 l 889 412 q 845 170 889 264 q 714 32 802 76 q 487 -13 625 -13 m 389 1107 l 240 1318 l 462 1318 l 580 1107 l 389 1107 z "},"Ử":{"ha":972,"x_min":80,"x_max":1018,"o":"m 487 -13 q 258 32 347 -13 q 124 170 168 76 q 80 412 80 264 l 80 1028 l 296 1028 l 296 388 q 343 219 296 272 q 487 167 390 167 q 630 219 583 167 q 677 388 677 272 l 677 1028 l 751 1028 q 839 1053 809 1028 q 868 1135 868 1078 q 856 1233 868 1179 l 1003 1233 q 1015 1182 1011 1208 q 1018 1124 1018 1156 q 984 1002 1018 1049 q 889 940 950 956 l 889 412 q 845 170 889 264 q 714 32 802 76 q 487 -13 625 -13 m 430 1107 q 452 1158 432 1140 q 504 1192 472 1176 q 531 1207 523 1201 q 540 1222 540 1213 q 522 1241 540 1235 q 467 1248 505 1248 q 339 1231 401 1248 l 339 1314 q 407 1327 366 1322 q 484 1332 448 1332 q 614 1309 572 1332 q 656 1238 656 1286 q 640 1195 656 1211 q 593 1163 624 1180 q 554 1136 567 1148 q 538 1107 541 1125 l 430 1107 z "},"Ữ":{"ha":972,"x_min":80,"x_max":1018,"o":"m 487 -13 q 258 32 347 -13 q 124 170 168 76 q 80 412 80 264 l 80 1028 l 296 1028 l 296 388 q 343 219 296 272 q 487 167 390 167 q 630 219 583 167 q 677 388 677 272 l 677 1028 l 751 1028 q 839 1053 809 1028 q 868 1135 868 1078 q 856 1233 868 1179 l 1003 1233 q 1015 1182 1011 1208 q 1018 1124 1018 1156 q 984 1002 1018 1049 q 889 940 950 956 l 889 412 q 845 170 889 264 q 714 32 802 76 q 487 -13 625 -13 m 599 1123 q 538 1131 567 1123 q 472 1152 509 1138 q 413 1171 435 1165 q 367 1177 391 1177 q 295 1165 326 1177 q 233 1126 265 1153 l 233 1256 q 292 1294 260 1282 q 369 1307 325 1307 q 430 1299 402 1307 q 497 1277 458 1292 q 555 1258 532 1264 q 602 1251 578 1251 q 673 1264 642 1251 q 735 1302 703 1276 l 735 1173 q 677 1135 709 1147 q 599 1123 644 1123 z "},"Ű":{"ha":968,"x_min":80,"x_max":889,"o":"m 487 -13 q 258 32 347 -13 q 124 170 168 76 q 80 412 80 264 l 80 1028 l 296 1028 l 296 388 q 343 219 296 272 q 487 167 390 167 q 630 219 583 167 q 677 388 677 272 l 677 1028 l 889 1028 l 889 412 q 845 170 889 264 q 714 32 802 76 q 487 -13 625 -13 m 268 1107 l 355 1318 l 526 1318 l 430 1107 l 268 1107 m 544 1107 l 631 1318 l 802 1318 l 706 1107 l 544 1107 z "},"Ȗ":{"ha":968,"x_min":80,"x_max":889,"o":"m 487 -13 q 258 32 347 -13 q 124 170 168 76 q 80 412 80 264 l 80 1028 l 296 1028 l 296 388 q 343 219 296 272 q 487 167 390 167 q 630 219 583 167 q 677 388 677 272 l 677 1028 l 889 1028 l 889 412 q 845 170 889 264 q 714 32 802 76 q 487 -13 625 -13 m 240 1113 q 313 1263 249 1210 q 486 1316 376 1316 q 660 1263 597 1316 q 733 1113 724 1210 l 603 1113 q 567 1186 595 1163 q 486 1210 540 1210 q 405 1186 432 1210 q 370 1113 377 1163 l 240 1113 z "},"Ū":{"ha":968,"x_min":80,"x_max":889,"o":"m 487 -13 q 258 32 347 -13 q 124 170 168 76 q 80 412 80 264 l 80 1028 l 296 1028 l 296 388 q 343 219 296 272 q 487 167 390 167 q 630 219 583 167 q 677 388 677 272 l 677 1028 l 889 1028 l 889 412 q 845 170 889 264 q 714 32 802 76 q 487 -13 625 -13 m 241 1146 l 241 1281 l 732 1281 l 732 1146 l 241 1146 z "},"Ṻ":{"ha":968,"x_min":80,"x_max":889,"o":"m 487 -13 q 258 32 347 -13 q 124 170 168 76 q 80 412 80 264 l 80 1028 l 296 1028 l 296 388 q 343 219 296 272 q 487 167 390 167 q 630 219 583 167 q 677 388 677 272 l 677 1028 l 889 1028 l 889 412 q 845 170 889 264 q 714 32 802 76 q 487 -13 625 -13 m 241 1146 l 241 1281 l 732 1281 l 732 1146 l 241 1146 m 316 1358 q 228 1384 259 1358 q 198 1460 198 1410 q 229 1535 198 1508 q 316 1562 260 1562 q 403 1535 372 1562 q 433 1460 433 1508 q 403 1384 433 1411 q 316 1358 372 1358 m 658 1358 q 570 1384 601 1358 q 540 1460 540 1410 q 570 1535 540 1508 q 658 1562 601 1562 q 744 1535 714 1562 q 775 1460 775 1508 q 744 1384 775 1411 q 658 1358 714 1358 z "},"Ų":{"ha":968,"x_min":80,"x_max":889,"o":"m 889 1028 l 889 412 q 834 147 889 246 q 665 11 778 49 q 518 -64 558 -24 q 478 -150 478 -103 q 573 -219 478 -219 q 671 -199 616 -219 l 671 -285 q 546 -308 610 -308 q 404 -269 452 -308 q 356 -162 356 -231 q 378 -81 356 -118 q 449 -12 400 -44 q 170 99 260 -3 q 80 412 80 201 l 80 1028 l 296 1028 l 296 388 q 343 219 296 272 q 487 167 390 167 q 630 219 583 167 q 677 388 677 272 l 677 1028 l 889 1028 z "},"Ů":{"ha":968,"x_min":80,"x_max":889,"o":"m 487 -13 q 258 32 347 -13 q 124 170 168 76 q 80 412 80 264 l 80 1028 l 296 1028 l 296 388 q 343 219 296 272 q 487 167 390 167 q 630 219 583 167 q 677 388 677 272 l 677 1028 l 889 1028 l 889 412 q 845 170 889 264 q 714 32 802 76 q 487 -13 625 -13 m 487 1099 q 410 1117 444 1099 q 356 1169 376 1136 q 337 1244 337 1202 q 356 1319 337 1285 q 410 1371 376 1352 q 487 1390 444 1390 q 563 1371 529 1390 q 617 1319 597 1352 q 636 1244 636 1285 q 617 1169 636 1202 q 563 1117 597 1136 q 487 1099 529 1099 m 487 1177 q 533 1195 515 1177 q 551 1244 551 1213 q 533 1292 551 1274 q 487 1310 515 1310 q 440 1292 458 1310 q 422 1244 422 1274 q 440 1195 422 1213 q 487 1177 458 1177 z "},"Ũ":{"ha":968,"x_min":80,"x_max":889,"o":"m 487 -13 q 258 32 347 -13 q 124 170 168 76 q 80 412 80 264 l 80 1028 l 296 1028 l 296 388 q 343 219 296 272 q 487 167 390 167 q 630 219 583 167 q 677 388 677 272 l 677 1028 l 889 1028 l 889 412 q 845 170 889 264 q 714 32 802 76 q 487 -13 625 -13 m 601 1123 q 540 1131 569 1123 q 474 1152 511 1138 q 415 1171 438 1165 q 369 1177 393 1177 q 298 1165 328 1177 q 235 1126 267 1153 l 235 1256 q 294 1294 262 1282 q 372 1307 327 1307 q 432 1299 404 1307 q 499 1277 460 1292 q 557 1258 534 1264 q 604 1251 580 1251 q 675 1264 644 1251 q 738 1302 706 1276 l 738 1173 q 679 1135 711 1147 q 601 1123 647 1123 z "},"Ṹ":{"ha":968,"x_min":80,"x_max":889,"o":"m 487 -13 q 258 32 347 -13 q 124 170 168 76 q 80 412 80 264 l 80 1028 l 296 1028 l 296 388 q 343 219 296 272 q 487 167 390 167 q 630 219 583 167 q 677 388 677 272 l 677 1028 l 889 1028 l 889 412 q 845 170 889 264 q 714 32 802 76 q 487 -13 625 -13 m 381 1359 l 499 1520 l 741 1520 l 592 1359 l 381 1359 m 601 1123 q 540 1131 569 1123 q 474 1152 511 1138 q 415 1171 438 1165 q 369 1177 393 1177 q 298 1165 328 1177 q 235 1126 267 1153 l 235 1256 q 294 1294 262 1282 q 372 1307 327 1307 q 432 1299 404 1307 q 499 1277 460 1292 q 557 1258 534 1264 q 604 1251 580 1251 q 675 1264 644 1251 q 738 1302 706 1276 l 738 1173 q 679 1135 711 1147 q 601 1123 647 1123 z "},"V":{"ha":919,"x_min":-3,"x_max":922,"o":"m 714 1028 l 922 1028 l 622 0 l 297 0 l -3 1028 l 220 1028 l 465 163 l 714 1028 z "},"W":{"ha":1464,"x_min":17,"x_max":1447,"o":"m 1243 1028 l 1447 1028 l 1200 0 l 920 0 l 737 769 l 544 0 l 264 0 l 17 1028 l 235 1028 l 421 211 l 620 1028 l 858 1028 l 1051 203 l 1243 1028 z "},"Ẃ":{"ha":1464,"x_min":17,"x_max":1447,"o":"m 1243 1028 l 1447 1028 l 1200 0 l 920 0 l 737 769 l 544 0 l 264 0 l 17 1028 l 235 1028 l 421 211 l 620 1028 l 858 1028 l 1051 203 l 1243 1028 m 636 1107 l 753 1318 l 976 1318 l 826 1107 l 636 1107 z "},"Ŵ":{"ha":1464,"x_min":17,"x_max":1447,"o":"m 1243 1028 l 1447 1028 l 1200 0 l 920 0 l 737 769 l 544 0 l 264 0 l 17 1028 l 235 1028 l 421 211 l 620 1028 l 858 1028 l 1051 203 l 1243 1028 m 976 1107 l 824 1107 l 732 1240 l 640 1107 l 487 1107 l 641 1318 l 822 1318 l 976 1107 z "},"Ẅ":{"ha":1464,"x_min":17,"x_max":1447,"o":"m 1243 1028 l 1447 1028 l 1200 0 l 920 0 l 737 769 l 544 0 l 264 0 l 17 1028 l 235 1028 l 421 211 l 620 1028 l 858 1028 l 1051 203 l 1243 1028 m 561 1114 q 474 1140 504 1114 q 443 1216 443 1167 q 474 1291 443 1265 q 561 1318 505 1318 q 648 1291 617 1318 q 678 1216 678 1265 q 648 1141 678 1167 q 561 1114 617 1114 m 903 1114 q 815 1140 846 1114 q 785 1216 785 1167 q 816 1291 785 1265 q 903 1318 847 1318 q 990 1291 959 1318 q 1020 1216 1020 1265 q 990 1141 1020 1167 q 903 1114 959 1114 z "},"Ẁ":{"ha":1464,"x_min":17,"x_max":1447,"o":"m 1243 1028 l 1447 1028 l 1200 0 l 920 0 l 737 769 l 544 0 l 264 0 l 17 1028 l 235 1028 l 421 211 l 620 1028 l 858 1028 l 1051 203 l 1243 1028 m 636 1107 l 487 1318 l 709 1318 l 827 1107 l 636 1107 z "},"X":{"ha":906,"x_min":-21,"x_max":922,"o":"m 578 535 l 922 0 l 685 0 l 451 367 l 217 0 l -21 0 l 326 533 l 4 1028 l 243 1028 l 453 703 l 662 1028 l 895 1028 l 578 535 z "},"Y":{"ha":836,"x_min":-39,"x_max":869,"o":"m 869 1028 l 527 435 l 527 0 l 311 0 l 311 433 l -39 1028 l 190 1028 l 424 626 l 658 1028 l 869 1028 z "},"Ý":{"ha":836,"x_min":-39,"x_max":869,"o":"m 869 1028 l 527 435 l 527 0 l 311 0 l 311 433 l -39 1028 l 190 1028 l 424 626 l 658 1028 l 869 1028 m 324 1107 l 441 1318 l 664 1318 l 514 1107 l 324 1107 z "},"Ŷ":{"ha":836,"x_min":-39,"x_max":869,"o":"m 869 1028 l 527 435 l 527 0 l 311 0 l 311 433 l -39 1028 l 190 1028 l 424 626 l 658 1028 l 869 1028 m 664 1107 l 511 1107 l 419 1240 l 327 1107 l 174 1107 l 328 1318 l 510 1318 l 664 1107 z "},"Ÿ":{"ha":836,"x_min":-39,"x_max":869,"o":"m 869 1028 l 527 435 l 527 0 l 311 0 l 311 433 l -39 1028 l 190 1028 l 424 626 l 658 1028 l 869 1028 m 249 1114 q 161 1140 192 1114 q 131 1216 131 1167 q 161 1291 131 1265 q 249 1318 192 1318 q 335 1291 305 1318 q 366 1216 366 1265 q 335 1141 366 1167 q 249 1114 305 1114 m 590 1114 q 503 1140 533 1114 q 472 1216 472 1167 q 503 1291 472 1265 q 590 1318 534 1318 q 677 1291 647 1318 q 708 1216 708 1265 q 677 1141 708 1167 q 590 1114 647 1114 z "},"Ẏ":{"ha":836,"x_min":-39,"x_max":869,"o":"m 869 1028 l 527 435 l 527 0 l 311 0 l 311 433 l -39 1028 l 190 1028 l 424 626 l 658 1028 l 869 1028 m 419 1114 q 321 1140 356 1114 q 287 1216 287 1166 q 322 1292 287 1265 q 419 1318 356 1318 q 517 1292 483 1318 q 551 1216 551 1265 q 517 1140 551 1166 q 419 1114 483 1114 z "},"Ỵ":{"ha":836,"x_min":-39,"x_max":869,"o":"m 869 1028 l 527 435 l 527 0 l 311 0 l 311 433 l -39 1028 l 190 1028 l 424 626 l 658 1028 l 869 1028 m 418 -292 q 320 -266 355 -292 q 285 -190 285 -240 q 320 -115 285 -141 q 418 -88 355 -88 q 516 -115 481 -88 q 550 -190 550 -141 q 516 -266 550 -240 q 418 -292 481 -292 z "},"Ỳ":{"ha":836,"x_min":-39,"x_max":869,"o":"m 869 1028 l 527 435 l 527 0 l 311 0 l 311 433 l -39 1028 l 190 1028 l 424 626 l 658 1028 l 869 1028 m 324 1107 l 174 1318 l 397 1318 l 515 1107 l 324 1107 z "},"Ỷ":{"ha":836,"x_min":-39,"x_max":869,"o":"m 869 1028 l 527 435 l 527 0 l 311 0 l 311 433 l -39 1028 l 190 1028 l 424 626 l 658 1028 l 869 1028 m 365 1107 q 386 1158 367 1140 q 439 1192 406 1176 q 466 1207 458 1201 q 474 1222 474 1213 q 457 1241 474 1235 q 402 1248 440 1248 q 274 1231 336 1248 l 274 1314 q 342 1327 301 1322 q 419 1332 383 1332 q 549 1309 507 1332 q 590 1238 590 1286 q 575 1195 590 1211 q 528 1163 559 1180 q 489 1136 502 1148 q 473 1107 476 1125 l 365 1107 z "},"Ȳ":{"ha":836,"x_min":-39,"x_max":869,"o":"m 869 1028 l 527 435 l 527 0 l 311 0 l 311 433 l -39 1028 l 190 1028 l 424 626 l 658 1028 l 869 1028 m 174 1146 l 174 1281 l 665 1281 l 665 1146 l 174 1146 z "},"Ỹ":{"ha":836,"x_min":-39,"x_max":869,"o":"m 869 1028 l 527 435 l 527 0 l 311 0 l 311 433 l -39 1028 l 190 1028 l 424 626 l 658 1028 l 869 1028 m 534 1123 q 473 1131 501 1123 q 407 1152 444 1138 q 348 1171 370 1165 q 301 1177 326 1177 q 230 1165 261 1177 q 168 1126 199 1153 l 168 1256 q 227 1294 194 1282 q 304 1307 260 1307 q 365 1299 337 1307 q 431 1277 393 1292 q 490 1258 467 1264 q 537 1251 513 1251 q 608 1264 577 1251 q 670 1302 638 1276 l 670 1173 q 611 1135 644 1147 q 534 1123 579 1123 z "},"Z":{"ha":799,"x_min":33,"x_max":767,"o":"m 313 187 l 767 187 l 767 0 l 33 0 l 33 120 l 479 841 l 40 841 l 40 1028 l 759 1028 l 759 908 l 313 187 z "},"Ź":{"ha":799,"x_min":33,"x_max":767,"o":"m 313 187 l 767 187 l 767 0 l 33 0 l 33 120 l 479 841 l 40 841 l 40 1028 l 759 1028 l 759 908 l 313 187 m 305 1107 l 422 1318 l 645 1318 l 495 1107 l 305 1107 z "},"Ž":{"ha":799,"x_min":33,"x_max":767,"o":"m 313 187 l 767 187 l 767 0 l 33 0 l 33 120 l 479 841 l 40 841 l 40 1028 l 759 1028 l 759 908 l 313 187 m 492 1318 l 645 1318 l 491 1107 l 310 1107 l 156 1318 l 308 1318 l 401 1185 l 492 1318 z "},"Ż":{"ha":799,"x_min":33,"x_max":767,"o":"m 313 187 l 767 187 l 767 0 l 33 0 l 33 120 l 479 841 l 40 841 l 40 1028 l 759 1028 l 759 908 l 313 187 m 401 1114 q 302 1140 337 1114 q 268 1216 268 1166 q 303 1292 268 1265 q 401 1318 338 1318 q 498 1292 464 1318 q 533 1216 533 1265 q 498 1140 533 1166 q 401 1114 464 1114 z "},"Ẓ":{"ha":799,"x_min":33,"x_max":767,"o":"m 313 187 l 767 187 l 767 0 l 33 0 l 33 120 l 479 841 l 40 841 l 40 1028 l 759 1028 l 759 908 l 313 187 m 397 -292 q 299 -266 334 -292 q 265 -190 265 -240 q 299 -115 265 -141 q 397 -88 334 -88 q 495 -115 460 -88 q 529 -190 529 -141 q 495 -266 529 -240 q 397 -292 460 -292 z "},"a":{"ha":721,"x_min":38,"x_max":651,"o":"m 326 772 q 511 742 440 772 q 616 645 582 713 q 651 462 651 577 l 651 0 l 477 0 l 462 79 l 452 79 q 375 9 423 32 q 265 -14 326 -14 q 145 13 197 -14 q 66 90 94 40 q 38 206 38 140 q 109 376 38 316 q 335 447 180 435 l 444 456 l 444 473 q 428 552 444 524 q 379 593 413 581 q 286 605 345 605 q 191 598 242 605 q 94 576 140 590 l 94 742 q 207 765 144 757 q 326 772 269 772 m 338 140 q 394 151 367 140 q 444 186 422 163 l 444 333 l 358 325 q 247 228 247 316 q 270 163 247 185 q 338 140 294 140 z "},"á":{"ha":721,"x_min":38,"x_max":651,"o":"m 326 772 q 511 742 440 772 q 616 645 582 713 q 651 462 651 577 l 651 0 l 477 0 l 462 79 l 452 79 q 375 9 423 32 q 265 -14 326 -14 q 145 13 197 -14 q 66 90 94 40 q 38 206 38 140 q 109 376 38 316 q 335 447 180 435 l 444 456 l 444 473 q 428 552 444 524 q 379 593 413 581 q 286 605 345 605 q 191 598 242 605 q 94 576 140 590 l 94 742 q 207 765 144 757 q 326 772 269 772 m 338 140 q 394 151 367 140 q 444 186 422 163 l 444 333 l 358 325 q 247 228 247 316 q 270 163 247 185 q 338 140 294 140 m 264 856 l 411 1122 l 630 1122 l 453 856 l 264 856 z "},"ă":{"ha":721,"x_min":38,"x_max":651,"o":"m 326 772 q 511 742 440 772 q 616 645 582 713 q 651 462 651 577 l 651 0 l 477 0 l 462 79 l 452 79 q 375 9 423 32 q 265 -14 326 -14 q 145 13 197 -14 q 66 90 94 40 q 38 206 38 140 q 109 376 38 316 q 335 447 180 435 l 444 456 l 444 473 q 428 552 444 524 q 379 593 413 581 q 286 605 345 605 q 191 598 242 605 q 94 576 140 590 l 94 742 q 207 765 144 757 q 326 772 269 772 m 338 140 q 394 151 367 140 q 444 186 422 163 l 444 333 l 358 325 q 247 228 247 316 q 270 163 247 185 q 338 140 294 140 m 358 863 q 190 924 252 863 q 122 1107 128 985 l 252 1107 q 283 1007 256 1039 q 358 974 309 974 q 434 1007 408 974 q 464 1107 460 1039 l 594 1107 q 526 924 588 985 q 358 863 465 863 z "},"ắ":{"ha":721,"x_min":38,"x_max":651,"o":"m 326 772 q 511 742 440 772 q 616 645 582 713 q 651 462 651 577 l 651 0 l 477 0 l 462 79 l 452 79 q 375 9 423 32 q 265 -14 326 -14 q 145 13 197 -14 q 66 90 94 40 q 38 206 38 140 q 109 376 38 316 q 335 447 180 435 l 444 456 l 444 473 q 428 552 444 524 q 379 593 413 581 q 286 605 345 605 q 191 598 242 605 q 94 576 140 590 l 94 742 q 207 765 144 757 q 326 772 269 772 m 338 140 q 394 151 367 140 q 444 186 422 163 l 444 333 l 358 325 q 247 228 247 316 q 270 163 247 185 q 338 140 294 140 m 284 1109 l 401 1297 l 581 1297 l 431 1109 l 284 1109 m 358 864 q 187 921 250 864 q 115 1083 124 978 l 246 1083 q 280 998 252 1025 q 358 970 307 970 q 437 998 410 970 q 471 1083 465 1025 l 601 1083 q 529 921 592 978 q 358 864 467 864 z "},"ặ":{"ha":721,"x_min":38,"x_max":651,"o":"m 326 772 q 511 742 440 772 q 616 645 582 713 q 651 462 651 577 l 651 0 l 477 0 l 462 79 l 452 79 q 375 9 423 32 q 265 -14 326 -14 q 145 13 197 -14 q 66 90 94 40 q 38 206 38 140 q 109 376 38 316 q 335 447 180 435 l 444 456 l 444 473 q 428 552 444 524 q 379 593 413 581 q 286 605 345 605 q 191 598 242 605 q 94 576 140 590 l 94 742 q 207 765 144 757 q 326 772 269 772 m 338 140 q 394 151 367 140 q 444 186 422 163 l 444 333 l 358 325 q 247 228 247 316 q 270 163 247 185 q 338 140 294 140 m 360 -310 q 275 -280 306 -310 q 244 -199 244 -251 q 275 -118 244 -148 q 360 -88 306 -88 q 445 -118 414 -88 q 476 -199 476 -148 q 445 -280 476 -251 q 360 -310 414 -310 m 358 863 q 190 924 252 863 q 122 1107 128 985 l 252 1107 q 283 1007 256 1039 q 358 974 309 974 q 434 1007 408 974 q 464 1107 460 1039 l 594 1107 q 526 924 588 985 q 358 863 465 863 z "},"ằ":{"ha":721,"x_min":38,"x_max":651,"o":"m 326 772 q 511 742 440 772 q 616 645 582 713 q 651 462 651 577 l 651 0 l 477 0 l 462 79 l 452 79 q 375 9 423 32 q 265 -14 326 -14 q 145 13 197 -14 q 66 90 94 40 q 38 206 38 140 q 109 376 38 316 q 335 447 180 435 l 444 456 l 444 473 q 428 552 444 524 q 379 593 413 581 q 286 605 345 605 q 191 598 242 605 q 94 576 140 590 l 94 742 q 207 765 144 757 q 326 772 269 772 m 338 140 q 394 151 367 140 q 444 186 422 163 l 444 333 l 358 325 q 247 228 247 316 q 270 163 247 185 q 338 140 294 140 m 285 1109 l 135 1297 l 315 1297 l 432 1109 l 285 1109 m 358 864 q 187 921 250 864 q 115 1083 124 978 l 246 1083 q 280 998 252 1025 q 358 970 307 970 q 437 998 410 970 q 471 1083 465 1025 l 601 1083 q 529 921 592 978 q 358 864 467 864 z "},"ẳ":{"ha":721,"x_min":38,"x_max":651,"o":"m 326 772 q 511 742 440 772 q 616 645 582 713 q 651 462 651 577 l 651 0 l 477 0 l 462 79 l 452 79 q 375 9 423 32 q 265 -14 326 -14 q 145 13 197 -14 q 66 90 94 40 q 38 206 38 140 q 109 376 38 316 q 335 447 180 435 l 444 456 l 444 473 q 428 552 444 524 q 379 593 413 581 q 286 605 345 605 q 191 598 242 605 q 94 576 140 590 l 94 742 q 207 765 144 757 q 326 772 269 772 m 338 140 q 394 151 367 140 q 444 186 422 163 l 444 333 l 358 325 q 247 228 247 316 q 270 163 247 185 q 338 140 294 140 m 303 1109 q 325 1154 306 1138 q 377 1184 344 1170 q 405 1199 396 1193 q 413 1213 413 1205 q 396 1230 413 1224 q 341 1236 379 1236 q 213 1221 274 1236 l 213 1293 q 281 1306 240 1301 q 358 1310 322 1310 q 488 1290 446 1310 q 529 1226 529 1269 q 513 1188 529 1202 q 467 1159 497 1174 q 428 1135 441 1146 q 412 1109 415 1125 l 303 1109 m 358 864 q 187 921 250 864 q 115 1083 124 978 l 246 1083 q 280 998 252 1025 q 358 970 307 970 q 437 998 410 970 q 471 1083 465 1025 l 601 1083 q 529 921 592 978 q 358 864 467 864 z "},"ẵ":{"ha":721,"x_min":38,"x_max":651,"o":"m 326 772 q 511 742 440 772 q 616 645 582 713 q 651 462 651 577 l 651 0 l 477 0 l 462 79 l 452 79 q 375 9 423 32 q 265 -14 326 -14 q 145 13 197 -14 q 66 90 94 40 q 38 206 38 140 q 109 376 38 316 q 335 447 180 435 l 444 456 l 444 473 q 428 552 444 524 q 379 593 413 581 q 286 605 345 605 q 191 598 242 605 q 94 576 140 590 l 94 742 q 207 765 144 757 q 326 772 269 772 m 338 140 q 394 151 367 140 q 444 186 422 163 l 444 333 l 358 325 q 247 228 247 316 q 270 163 247 185 q 338 140 294 140 m 471 1124 q 413 1131 440 1124 q 347 1150 385 1138 q 289 1167 310 1162 q 242 1172 267 1172 q 172 1161 203 1172 q 110 1127 142 1151 l 110 1240 q 169 1275 137 1264 q 245 1285 201 1285 q 304 1279 276 1285 q 369 1259 332 1272 q 426 1242 403 1247 q 474 1236 449 1236 q 544 1247 513 1236 q 606 1281 574 1258 l 606 1169 q 548 1135 580 1145 q 471 1124 516 1124 m 358 864 q 187 921 250 864 q 115 1083 124 978 l 246 1083 q 280 998 252 1025 q 358 970 307 970 q 437 998 410 970 q 471 1083 465 1025 l 601 1083 q 529 921 592 978 q 358 864 467 864 z "},"â":{"ha":721,"x_min":38,"x_max":651,"o":"m 326 772 q 511 742 440 772 q 616 645 582 713 q 651 462 651 577 l 651 0 l 477 0 l 462 79 l 452 79 q 375 9 423 32 q 265 -14 326 -14 q 145 13 197 -14 q 66 90 94 40 q 38 206 38 140 q 109 376 38 316 q 335 447 180 435 l 444 456 l 444 473 q 428 552 444 524 q 379 593 413 581 q 286 605 345 605 q 191 598 242 605 q 94 576 140 590 l 94 742 q 207 765 144 757 q 326 772 269 772 m 338 140 q 394 151 367 140 q 444 186 422 163 l 444 333 l 358 325 q 247 228 247 316 q 270 163 247 185 q 338 140 294 140 m 593 856 l 445 856 l 358 1024 l 271 856 l 123 856 l 269 1122 l 448 1122 l 593 856 z "},"ấ":{"ha":721,"x_min":38,"x_max":810,"o":"m 326 772 q 511 742 440 772 q 616 645 582 713 q 651 462 651 577 l 651 0 l 477 0 l 462 79 l 452 79 q 375 9 423 32 q 265 -14 326 -14 q 145 13 197 -14 q 66 90 94 40 q 38 206 38 140 q 109 376 38 316 q 335 447 180 435 l 444 456 l 444 473 q 428 552 444 524 q 379 593 413 581 q 286 605 345 605 q 191 598 242 605 q 94 576 140 590 l 94 742 q 207 765 144 757 q 326 772 269 772 m 338 140 q 394 151 367 140 q 444 186 422 163 l 444 333 l 358 325 q 247 228 247 316 q 270 163 247 185 q 338 140 294 140 m 631 1297 l 810 1297 l 660 1109 l 513 1109 l 631 1297 m 269 1122 l 448 1122 l 593 856 l 445 856 l 358 1024 l 271 856 l 123 856 l 269 1122 z "},"ậ":{"ha":721,"x_min":38,"x_max":651,"o":"m 326 772 q 511 742 440 772 q 616 645 582 713 q 651 462 651 577 l 651 0 l 477 0 l 462 79 l 452 79 q 375 9 423 32 q 265 -14 326 -14 q 145 13 197 -14 q 66 90 94 40 q 38 206 38 140 q 109 376 38 316 q 335 447 180 435 l 444 456 l 444 473 q 428 552 444 524 q 379 593 413 581 q 286 605 345 605 q 191 598 242 605 q 94 576 140 590 l 94 742 q 207 765 144 757 q 326 772 269 772 m 338 140 q 394 151 367 140 q 444 186 422 163 l 444 333 l 358 325 q 247 228 247 316 q 270 163 247 185 q 338 140 294 140 m 360 -310 q 275 -280 306 -310 q 244 -199 244 -251 q 275 -118 244 -148 q 360 -88 306 -88 q 445 -118 414 -88 q 476 -199 476 -148 q 445 -280 476 -251 q 360 -310 414 -310 m 593 856 l 445 856 l 358 1024 l 271 856 l 123 856 l 269 1122 l 448 1122 l 593 856 z "},"ầ":{"ha":721,"x_min":38,"x_max":683,"o":"m 326 772 q 511 742 440 772 q 616 645 582 713 q 651 462 651 577 l 651 0 l 477 0 l 462 79 l 452 79 q 375 9 423 32 q 265 -14 326 -14 q 145 13 197 -14 q 66 90 94 40 q 38 206 38 140 q 109 376 38 316 q 335 447 180 435 l 444 456 l 444 473 q 428 552 444 524 q 379 593 413 581 q 286 605 345 605 q 191 598 242 605 q 94 576 140 590 l 94 742 q 207 765 144 757 q 326 772 269 772 m 338 140 q 394 151 367 140 q 444 186 422 163 l 444 333 l 358 325 q 247 228 247 316 q 270 163 247 185 q 338 140 294 140 m 683 1109 l 535 1109 l 386 1297 l 565 1297 l 683 1109 m 269 1122 l 448 1122 l 593 856 l 445 856 l 358 1024 l 271 856 l 123 856 l 269 1122 z "},"ẩ":{"ha":721,"x_min":38,"x_max":731,"o":"m 326 772 q 511 742 440 772 q 616 645 582 713 q 651 462 651 577 l 651 0 l 477 0 l 462 79 l 452 79 q 375 9 423 32 q 265 -14 326 -14 q 145 13 197 -14 q 66 90 94 40 q 38 206 38 140 q 109 376 38 316 q 335 447 180 435 l 444 456 l 444 473 q 428 552 444 524 q 379 593 413 581 q 286 605 345 605 q 191 598 242 605 q 94 576 140 590 l 94 742 q 207 765 144 757 q 326 772 269 772 m 338 140 q 394 151 367 140 q 444 186 422 163 l 444 333 l 358 325 q 247 228 247 316 q 270 163 247 185 q 338 140 294 140 m 563 1310 q 691 1290 650 1310 q 731 1226 731 1269 q 717 1190 731 1203 q 672 1161 702 1176 q 633 1138 647 1149 q 617 1109 619 1126 l 510 1109 q 523 1144 512 1130 q 548 1168 534 1159 q 583 1186 561 1176 q 609 1199 601 1194 q 617 1213 617 1205 q 600 1231 617 1225 q 547 1237 584 1237 q 421 1222 478 1237 l 421 1293 q 488 1306 447 1301 q 563 1310 528 1310 m 269 1122 l 448 1122 l 593 856 l 445 856 l 358 1024 l 271 856 l 123 856 l 269 1122 z "},"ẫ":{"ha":721,"x_min":38,"x_max":651,"o":"m 326 772 q 511 742 440 772 q 616 645 582 713 q 651 462 651 577 l 651 0 l 477 0 l 462 79 l 452 79 q 375 9 423 32 q 265 -14 326 -14 q 145 13 197 -14 q 66 90 94 40 q 38 206 38 140 q 109 376 38 316 q 335 447 180 435 l 444 456 l 444 473 q 428 552 444 524 q 379 593 413 581 q 286 605 345 605 q 191 598 242 605 q 94 576 140 590 l 94 742 q 207 765 144 757 q 326 772 269 772 m 338 140 q 394 151 367 140 q 444 186 422 163 l 444 333 l 358 325 q 247 228 247 316 q 270 163 247 185 q 338 140 294 140 m 474 1236 q 544 1247 513 1236 q 606 1282 575 1258 l 606 1168 q 548 1135 581 1145 q 471 1124 516 1124 q 412 1131 440 1124 q 346 1150 385 1138 q 289 1167 312 1162 q 242 1173 266 1173 q 173 1162 203 1173 q 110 1127 142 1151 l 110 1240 q 168 1274 136 1263 q 245 1285 201 1285 q 305 1279 276 1285 q 370 1259 333 1272 q 427 1242 404 1247 q 474 1236 450 1236 m 267 1083 l 449 1083 l 599 857 l 448 857 l 358 1003 l 268 857 l 117 857 l 267 1083 z "},"ȁ":{"ha":721,"x_min":32,"x_max":651,"o":"m 326 772 q 511 742 440 772 q 616 645 582 713 q 651 462 651 577 l 651 0 l 477 0 l 462 79 l 452 79 q 375 9 423 32 q 265 -14 326 -14 q 145 13 197 -14 q 66 90 94 40 q 38 206 38 140 q 109 376 38 316 q 335 447 180 435 l 444 456 l 444 473 q 428 552 444 524 q 379 593 413 581 q 286 605 345 605 q 191 598 242 605 q 94 576 140 590 l 94 742 q 207 765 144 757 q 326 772 269 772 m 338 140 q 394 151 367 140 q 444 186 422 163 l 444 333 l 358 325 q 247 228 247 316 q 270 163 247 185 q 338 140 294 140 m 140 856 l 32 1122 l 204 1122 l 301 856 l 140 856 m 415 856 l 308 1122 l 480 1122 l 577 856 l 415 856 z "},"ä":{"ha":721,"x_min":38,"x_max":651,"o":"m 326 772 q 511 742 440 772 q 616 645 582 713 q 651 462 651 577 l 651 0 l 477 0 l 462 79 l 452 79 q 375 9 423 32 q 265 -14 326 -14 q 145 13 197 -14 q 66 90 94 40 q 38 206 38 140 q 109 376 38 316 q 335 447 180 435 l 444 456 l 444 473 q 428 552 444 524 q 379 593 413 581 q 286 605 345 605 q 191 598 242 605 q 94 576 140 590 l 94 742 q 207 765 144 757 q 326 772 269 772 m 338 140 q 394 151 367 140 q 444 186 422 163 l 444 333 l 358 325 q 247 228 247 316 q 270 163 247 185 q 338 140 294 140 m 195 874 q 110 903 141 874 q 79 985 79 933 q 110 1068 79 1038 q 195 1098 141 1098 q 281 1068 249 1098 q 312 985 312 1038 q 281 903 312 933 q 195 874 249 874 m 521 874 q 435 903 467 874 q 404 985 404 933 q 435 1068 404 1038 q 521 1098 467 1098 q 606 1068 575 1098 q 638 985 638 1038 q 606 903 638 933 q 521 874 575 874 z "},"ạ":{"ha":721,"x_min":38,"x_max":651,"o":"m 326 772 q 511 742 440 772 q 616 645 582 713 q 651 462 651 577 l 651 0 l 477 0 l 462 79 l 452 79 q 375 9 423 32 q 265 -14 326 -14 q 145 13 197 -14 q 66 90 94 40 q 38 206 38 140 q 109 376 38 316 q 335 447 180 435 l 444 456 l 444 473 q 428 552 444 524 q 379 593 413 581 q 286 605 345 605 q 191 598 242 605 q 94 576 140 590 l 94 742 q 207 765 144 757 q 326 772 269 772 m 338 140 q 394 151 367 140 q 444 186 422 163 l 444 333 l 358 325 q 247 228 247 316 q 270 163 247 185 q 338 140 294 140 m 360 -310 q 275 -280 306 -310 q 244 -199 244 -251 q 275 -118 244 -148 q 360 -88 306 -88 q 445 -118 414 -88 q 476 -199 476 -148 q 445 -280 476 -251 q 360 -310 414 -310 z "},"à":{"ha":721,"x_min":38,"x_max":651,"o":"m 326 772 q 511 742 440 772 q 616 645 582 713 q 651 462 651 577 l 651 0 l 477 0 l 462 79 l 452 79 q 375 9 423 32 q 265 -14 326 -14 q 145 13 197 -14 q 66 90 94 40 q 38 206 38 140 q 109 376 38 316 q 335 447 180 435 l 444 456 l 444 473 q 428 552 444 524 q 379 593 413 581 q 286 605 345 605 q 191 598 242 605 q 94 576 140 590 l 94 742 q 207 765 144 757 q 326 772 269 772 m 338 140 q 394 151 367 140 q 444 186 422 163 l 444 333 l 358 325 q 247 228 247 316 q 270 163 247 185 q 338 140 294 140 m 264 856 l 86 1122 l 305 1122 l 453 856 l 264 856 z "},"ả":{"ha":721,"x_min":38,"x_max":651,"o":"m 326 772 q 511 742 440 772 q 616 645 582 713 q 651 462 651 577 l 651 0 l 477 0 l 462 79 l 452 79 q 375 9 423 32 q 265 -14 326 -14 q 145 13 197 -14 q 66 90 94 40 q 38 206 38 140 q 109 376 38 316 q 335 447 180 435 l 444 456 l 444 473 q 428 552 444 524 q 379 593 413 581 q 286 605 345 605 q 191 598 242 605 q 94 576 140 590 l 94 742 q 207 765 144 757 q 326 772 269 772 m 338 140 q 394 151 367 140 q 444 186 422 163 l 444 333 l 358 325 q 247 228 247 316 q 270 163 247 185 q 338 140 294 140 m 304 856 q 323 918 306 895 q 368 965 340 942 q 394 988 386 978 q 402 1010 402 997 q 338 1044 402 1044 q 228 1028 283 1044 l 228 1113 q 289 1126 254 1121 q 355 1131 324 1131 q 478 1104 438 1131 q 518 1024 518 1078 q 504 969 518 990 q 462 928 490 949 q 426 894 438 909 q 412 856 414 879 l 304 856 z "},"ȃ":{"ha":721,"x_min":38,"x_max":651,"o":"m 326 772 q 511 742 440 772 q 616 645 582 713 q 651 462 651 577 l 651 0 l 477 0 l 462 79 l 452 79 q 375 9 423 32 q 265 -14 326 -14 q 145 13 197 -14 q 66 90 94 40 q 38 206 38 140 q 109 376 38 316 q 335 447 180 435 l 444 456 l 444 473 q 428 552 444 524 q 379 593 413 581 q 286 605 345 605 q 191 598 242 605 q 94 576 140 590 l 94 742 q 207 765 144 757 q 326 772 269 772 m 338 140 q 394 151 367 140 q 444 186 422 163 l 444 333 l 358 325 q 247 228 247 316 q 270 163 247 185 q 338 140 294 140 m 122 875 q 189 1058 128 997 q 358 1119 250 1119 q 526 1058 463 1119 q 594 875 588 997 l 464 875 q 433 977 460 944 q 358 1010 406 1010 q 281 977 307 1010 q 252 875 256 945 l 122 875 z "},"ā":{"ha":721,"x_min":38,"x_max":651,"o":"m 326 772 q 511 742 440 772 q 616 645 582 713 q 651 462 651 577 l 651 0 l 477 0 l 462 79 l 452 79 q 375 9 423 32 q 265 -14 326 -14 q 145 13 197 -14 q 66 90 94 40 q 38 206 38 140 q 109 376 38 316 q 335 447 180 435 l 444 456 l 444 473 q 428 552 444 524 q 379 593 413 581 q 286 605 345 605 q 191 598 242 605 q 94 576 140 590 l 94 742 q 207 765 144 757 q 326 772 269 772 m 338 140 q 394 151 367 140 q 444 186 422 163 l 444 333 l 358 325 q 247 228 247 316 q 270 163 247 185 q 338 140 294 140 m 121 919 l 121 1053 l 595 1053 l 595 919 l 121 919 z "},"ą":{"ha":721,"x_min":38,"x_max":674,"o":"m 585 -219 q 674 -198 626 -219 l 674 -285 q 558 -308 618 -308 q 427 -269 473 -308 q 382 -164 382 -231 q 406 -74 382 -114 q 484 0 430 -34 l 477 0 l 462 79 l 452 79 q 375 9 423 32 q 265 -14 326 -14 q 145 13 197 -14 q 66 90 94 40 q 38 206 38 140 q 109 376 38 316 q 335 447 180 435 l 444 456 l 444 473 q 428 552 444 524 q 379 593 413 581 q 286 605 345 605 q 191 598 242 605 q 94 576 140 590 l 94 742 q 207 765 144 757 q 326 772 269 772 q 511 742 440 772 q 616 645 582 713 q 651 462 651 577 l 651 0 q 536 -72 569 -35 q 504 -151 504 -108 q 525 -201 504 -183 q 585 -219 546 -219 m 338 140 q 394 151 367 140 q 444 186 422 163 l 444 333 l 358 325 q 247 228 247 316 q 270 163 247 185 q 338 140 294 140 z "},"å":{"ha":721,"x_min":38,"x_max":651,"o":"m 326 772 q 511 742 440 772 q 616 645 582 713 q 651 462 651 577 l 651 0 l 477 0 l 462 79 l 452 79 q 375 9 423 32 q 265 -14 326 -14 q 145 13 197 -14 q 66 90 94 40 q 38 206 38 140 q 109 376 38 316 q 335 447 180 435 l 444 456 l 444 473 q 428 552 444 524 q 379 593 413 581 q 286 605 345 605 q 191 598 242 605 q 94 576 140 590 l 94 742 q 207 765 144 757 q 326 772 269 772 m 338 140 q 394 151 367 140 q 444 186 422 163 l 444 333 l 358 325 q 247 228 247 316 q 270 163 247 185 q 338 140 294 140 m 358 852 q 281 871 315 852 q 228 923 247 890 q 208 998 208 956 q 228 1073 208 1040 q 281 1125 247 1106 q 358 1144 315 1144 q 435 1125 401 1144 q 488 1073 469 1106 q 508 998 508 1040 q 488 923 508 956 q 435 871 469 890 q 358 852 401 852 m 358 931 q 405 949 387 931 q 422 998 422 967 q 405 1047 422 1028 q 358 1065 387 1065 q 311 1047 329 1065 q 294 998 294 1028 q 311 949 294 967 q 358 931 329 931 z "},"ǻ":{"ha":721,"x_min":38,"x_max":651,"o":"m 326 772 q 511 742 440 772 q 616 645 582 713 q 651 462 651 577 l 651 0 l 477 0 l 462 79 l 452 79 q 375 9 423 32 q 265 -14 326 -14 q 145 13 197 -14 q 66 90 94 40 q 38 206 38 140 q 109 376 38 316 q 335 447 180 435 l 444 456 l 444 473 q 428 552 444 524 q 379 593 413 581 q 286 605 345 605 q 191 598 242 605 q 94 576 140 590 l 94 742 q 207 765 144 757 q 326 772 269 772 m 338 140 q 394 151 367 140 q 444 186 422 163 l 444 333 l 358 325 q 247 228 247 316 q 270 163 247 185 q 338 140 294 140 m 488 1075 q 508 998 508 1039 q 488 923 508 956 q 435 871 469 890 q 358 852 401 852 q 281 871 315 852 q 228 923 247 890 q 208 998 208 956 q 228 1073 208 1040 q 281 1125 247 1106 q 358 1144 315 1144 q 390 1141 376 1144 l 465 1236 l 627 1236 l 488 1075 m 358 931 q 405 949 387 931 q 422 998 422 967 q 405 1047 422 1028 q 358 1065 387 1065 q 311 1047 329 1065 q 294 998 294 1028 q 311 949 294 967 q 358 931 329 931 z "},"ã":{"ha":721,"x_min":38,"x_max":651,"o":"m 326 772 q 511 742 440 772 q 616 645 582 713 q 651 462 651 577 l 651 0 l 477 0 l 462 79 l 452 79 q 375 9 423 32 q 265 -14 326 -14 q 145 13 197 -14 q 66 90 94 40 q 38 206 38 140 q 109 376 38 316 q 335 447 180 435 l 444 456 l 444 473 q 428 552 444 524 q 379 593 413 581 q 286 605 345 605 q 191 598 242 605 q 94 576 140 590 l 94 742 q 207 765 144 757 q 326 772 269 772 m 338 140 q 394 151 367 140 q 444 186 422 163 l 444 333 l 358 325 q 247 228 247 316 q 270 163 247 185 q 338 140 294 140 m 465 892 q 408 901 435 892 q 346 926 382 910 q 291 949 313 942 q 249 956 270 956 q 182 942 212 956 q 121 897 151 928 l 121 1036 q 178 1076 147 1063 q 251 1089 210 1089 q 308 1080 281 1089 q 370 1055 334 1072 q 426 1033 406 1040 q 467 1026 446 1026 q 535 1040 505 1026 q 595 1085 565 1053 l 595 946 q 538 905 569 918 q 465 892 506 892 z "},"æ":{"ha":1104,"x_min":38,"x_max":1069,"o":"m 1069 316 l 651 316 q 675 219 654 255 q 737 168 695 184 q 850 153 779 153 q 1031 178 928 153 l 1031 12 q 824 -15 921 -15 q 641 13 716 -15 q 522 97 567 40 q 415 11 474 37 q 285 -14 356 -14 q 152 13 208 -14 q 67 89 97 40 q 38 208 38 139 q 113 380 38 317 q 342 443 187 443 l 447 443 l 447 472 q 430 551 447 522 q 378 593 413 581 q 285 605 343 605 q 192 598 242 605 q 95 576 142 590 l 95 742 q 317 772 205 772 q 467 749 406 772 q 563 678 528 726 q 774 772 638 772 q 932 728 866 772 q 1034 595 999 684 q 1069 376 1069 507 l 1069 316 m 763 633 q 702 616 726 633 q 665 557 678 599 q 651 443 651 515 l 871 443 q 858 557 870 516 q 822 616 845 599 q 763 633 799 633 m 341 141 q 409 156 377 141 q 469 203 440 170 q 449 322 453 254 l 365 322 q 275 296 303 322 q 247 226 247 271 q 271 163 247 185 q 341 141 296 141 z "},"ǽ":{"ha":1104,"x_min":38,"x_max":1069,"o":"m 1069 316 l 651 316 q 675 219 654 255 q 737 168 695 184 q 850 153 779 153 q 1031 178 928 153 l 1031 12 q 824 -15 921 -15 q 641 13 716 -15 q 522 97 567 40 q 415 11 474 37 q 285 -14 356 -14 q 152 13 208 -14 q 67 89 97 40 q 38 208 38 139 q 113 380 38 317 q 342 443 187 443 l 447 443 l 447 472 q 430 551 447 522 q 378 593 413 581 q 285 605 343 605 q 192 598 242 605 q 95 576 142 590 l 95 742 q 317 772 205 772 q 467 749 406 772 q 563 678 528 726 q 774 772 638 772 q 932 728 866 772 q 1034 595 999 684 q 1069 376 1069 507 l 1069 316 m 763 633 q 702 616 726 633 q 665 557 678 599 q 651 443 651 515 l 871 443 q 858 557 870 516 q 822 616 845 599 q 763 633 799 633 m 341 141 q 409 156 377 141 q 469 203 440 170 q 449 322 453 254 l 365 322 q 275 296 303 322 q 247 226 247 271 q 271 163 247 185 q 341 141 296 141 m 456 856 l 603 1122 l 822 1122 l 645 856 l 456 856 z "},"b":{"ha":790,"x_min":75,"x_max":747,"o":"m 345 -14 q 205 -3 276 -14 q 75 28 134 8 l 75 1122 l 288 1122 l 288 683 l 298 683 q 371 749 326 726 q 475 772 417 772 q 613 732 551 772 q 711 607 674 692 q 747 393 747 522 q 648 89 747 192 q 345 -14 549 -14 m 360 149 q 456 171 419 149 q 512 242 493 192 q 531 375 531 292 q 514 508 531 460 q 466 575 497 556 q 389 594 435 594 q 333 584 360 594 q 288 554 306 574 l 288 158 q 360 149 320 149 z "},"c":{"ha":610,"x_min":43,"x_max":583,"o":"m 406 -15 q 135 82 228 -15 q 43 378 43 179 q 143 676 43 581 q 431 772 244 772 q 583 756 515 772 l 583 585 q 467 597 522 597 q 351 575 395 597 q 285 507 306 553 q 263 382 263 460 q 284 252 263 301 q 344 182 304 203 q 447 161 385 161 q 583 185 505 161 l 583 13 q 497 -7 542 0 q 406 -15 451 -15 z "},"ć":{"ha":610,"x_min":43,"x_max":613,"o":"m 406 -15 q 135 82 228 -15 q 43 378 43 179 q 143 676 43 581 q 431 772 244 772 q 583 756 515 772 l 583 585 q 467 597 522 597 q 351 575 395 597 q 285 507 306 553 q 263 382 263 460 q 284 252 263 301 q 344 182 304 203 q 447 161 385 161 q 583 185 505 161 l 583 13 q 497 -7 542 0 q 406 -15 451 -15 m 247 856 l 394 1122 l 613 1122 l 435 856 l 247 856 z "},"č":{"ha":610,"x_min":43,"x_max":583,"o":"m 406 -15 q 135 82 228 -15 q 43 378 43 179 q 143 676 43 581 q 431 772 244 772 q 583 756 515 772 l 583 585 q 467 597 522 597 q 351 575 395 597 q 285 507 306 553 q 263 382 263 460 q 284 252 263 301 q 344 182 304 203 q 447 161 385 161 q 583 185 505 161 l 583 13 q 497 -7 542 0 q 406 -15 451 -15 m 428 1122 l 576 1122 l 431 856 l 251 856 l 105 1122 l 253 1122 l 341 953 l 428 1122 z "},"ç":{"ha":610,"x_min":43,"x_max":583,"o":"m 467 597 q 351 575 395 597 q 285 507 306 553 q 263 382 263 460 q 284 252 263 301 q 344 182 304 203 q 447 161 385 161 q 583 185 505 161 l 583 13 q 410 -15 501 -13 l 410 -62 q 492 -102 463 -72 q 520 -181 520 -133 q 477 -274 520 -241 q 347 -308 433 -308 q 227 -287 281 -308 l 227 -201 q 282 -217 253 -212 q 336 -222 311 -222 q 388 -211 372 -222 q 405 -173 405 -199 q 334 -122 405 -122 l 306 -122 l 306 -6 q 110 114 176 19 q 43 378 43 210 q 143 676 43 581 q 431 772 244 772 q 583 756 515 772 l 583 585 q 467 597 522 597 z "},"ḉ":{"ha":610,"x_min":43,"x_max":613,"o":"m 613 1122 l 435 856 l 247 856 l 394 1122 l 613 1122 m 43 378 q 143 676 43 581 q 431 772 244 772 q 583 756 515 772 l 583 585 q 467 597 522 597 q 351 575 395 597 q 285 507 306 553 q 263 382 263 460 q 284 252 263 301 q 344 182 304 203 q 447 161 385 161 q 583 185 505 161 l 583 13 q 410 -15 501 -13 l 410 -62 q 492 -102 463 -72 q 520 -181 520 -133 q 477 -274 520 -241 q 347 -308 433 -308 q 227 -287 281 -308 l 227 -201 q 282 -217 253 -212 q 336 -222 311 -222 q 388 -211 372 -222 q 405 -173 405 -199 q 334 -122 405 -122 l 306 -122 l 306 -6 q 110 114 176 19 q 43 378 43 210 z "},"ĉ":{"ha":610,"x_min":43,"x_max":583,"o":"m 406 -15 q 135 82 228 -15 q 43 378 43 179 q 143 676 43 581 q 431 772 244 772 q 583 756 515 772 l 583 585 q 467 597 522 597 q 351 575 395 597 q 285 507 306 553 q 263 382 263 460 q 284 252 263 301 q 344 182 304 203 q 447 161 385 161 q 583 185 505 161 l 583 13 q 497 -7 542 0 q 406 -15 451 -15 m 576 856 l 428 856 l 341 1024 l 253 856 l 106 856 l 251 1122 l 431 1122 l 576 856 z "},"ċ":{"ha":610,"x_min":43,"x_max":583,"o":"m 406 -15 q 135 82 228 -15 q 43 378 43 179 q 143 676 43 581 q 431 772 244 772 q 583 756 515 772 l 583 585 q 467 597 522 597 q 351 575 395 597 q 285 507 306 553 q 263 382 263 460 q 284 252 263 301 q 344 182 304 203 q 447 161 385 161 q 583 185 505 161 l 583 13 q 497 -7 542 0 q 406 -15 451 -15 m 341 869 q 241 900 274 869 q 208 985 208 930 q 241 1072 208 1042 q 341 1102 274 1102 q 440 1072 407 1102 q 473 985 473 1041 q 440 900 473 930 q 341 869 407 869 z "},"d":{"ha":790,"x_min":43,"x_max":715,"o":"m 330 -14 q 185 26 249 -14 q 82 151 120 66 q 43 365 43 235 q 142 668 43 565 q 442 772 241 772 q 503 767 467 772 l 503 1122 l 715 1122 l 715 0 l 536 0 l 522 82 l 512 82 q 438 11 484 37 q 330 -14 391 -14 m 397 163 q 456 175 428 163 q 503 208 483 186 l 503 602 q 431 609 463 609 q 335 587 372 609 q 278 516 297 565 q 259 383 259 466 q 276 250 259 298 q 323 182 292 201 q 397 163 353 163 z "},"ð":{"ha":771,"x_min":43,"x_max":728,"o":"m 576 915 q 688 674 647 803 q 728 421 728 545 q 640 90 728 195 q 386 -16 552 -16 q 132 82 222 -16 q 43 376 43 179 q 130 671 43 574 q 369 768 217 768 q 460 749 417 768 q 388 878 433 812 l 122 826 l 97 940 l 305 982 q 156 1122 238 1056 l 395 1122 q 499 1020 448 1081 l 684 1057 l 710 942 l 576 915 m 386 144 q 456 165 428 144 q 497 236 483 185 q 512 374 512 286 q 497 517 512 465 q 455 589 483 569 q 385 610 428 610 q 316 589 343 610 q 274 518 288 569 q 259 376 259 467 q 273 235 259 286 q 315 164 288 184 q 386 144 342 144 z "},"ď":{"ha":790,"x_min":43,"x_max":924,"o":"m 330 -14 q 185 26 249 -14 q 82 151 120 66 q 43 365 43 235 q 142 668 43 565 q 442 772 241 772 q 503 767 467 772 l 503 1122 l 715 1122 l 715 0 l 536 0 l 522 82 l 512 82 q 438 11 484 37 q 330 -14 391 -14 m 397 163 q 456 175 428 163 q 503 208 483 186 l 503 602 q 431 609 463 609 q 335 587 372 609 q 278 516 297 565 q 259 383 259 466 q 276 250 259 298 q 323 182 292 201 q 397 163 353 163 m 760 819 q 775 967 771 894 q 780 1122 780 1039 l 924 1122 q 911 960 924 1039 q 877 819 899 881 l 760 819 z "},"đ":{"ha":790,"x_min":43,"x_max":788,"o":"m 788 869 l 715 869 l 715 0 l 536 0 l 522 82 l 512 82 q 438 11 484 37 q 330 -14 391 -14 q 185 26 249 -14 q 82 151 120 66 q 43 365 43 235 q 142 668 43 565 q 442 772 241 772 q 503 767 467 772 l 503 869 l 302 869 l 302 1010 l 503 1010 l 503 1122 l 715 1122 l 715 1010 l 788 1010 l 788 869 m 503 602 q 431 609 463 609 q 335 587 372 609 q 278 516 297 565 q 259 383 259 466 q 276 250 259 298 q 323 182 292 201 q 397 163 353 163 q 456 175 428 163 q 503 208 483 186 l 503 602 z "},"ḍ":{"ha":790,"x_min":43,"x_max":715,"o":"m 330 -14 q 185 26 249 -14 q 82 151 120 66 q 43 365 43 235 q 142 668 43 565 q 442 772 241 772 q 503 767 467 772 l 503 1122 l 715 1122 l 715 0 l 536 0 l 522 82 l 512 82 q 438 11 484 37 q 330 -14 391 -14 m 397 163 q 456 175 428 163 q 503 208 483 186 l 503 602 q 431 609 463 609 q 335 587 372 609 q 278 516 297 565 q 259 383 259 466 q 276 250 259 298 q 323 182 292 201 q 397 163 353 163 m 400 -310 q 315 -280 346 -310 q 283 -199 283 -251 q 315 -118 283 -148 q 400 -88 346 -88 q 485 -118 453 -88 q 516 -199 516 -148 q 485 -280 516 -251 q 400 -310 453 -310 z "},"ḏ":{"ha":790,"x_min":43,"x_max":715,"o":"m 330 -14 q 185 26 249 -14 q 82 151 120 66 q 43 365 43 235 q 142 668 43 565 q 442 772 241 772 q 503 767 467 772 l 503 1122 l 715 1122 l 715 0 l 536 0 l 522 82 l 512 82 q 438 11 484 37 q 330 -14 391 -14 m 397 163 q 456 175 428 163 q 503 208 483 186 l 503 602 q 431 609 463 609 q 335 587 372 609 q 278 516 297 565 q 259 383 259 466 q 276 250 259 298 q 323 182 292 201 q 397 163 353 163 m 169 -264 l 169 -131 l 631 -131 l 631 -264 l 169 -264 z "},"ǳ":{"ha":1428,"x_min":43,"x_max":1401,"o":"m 330 -14 q 185 26 249 -14 q 82 151 120 66 q 43 365 43 235 q 142 668 43 565 q 442 772 241 772 q 503 767 467 772 l 503 1122 l 715 1122 l 715 0 l 536 0 l 522 82 l 512 82 q 438 11 484 37 q 330 -14 391 -14 m 397 163 q 456 175 428 163 q 503 208 483 186 l 503 602 q 431 609 463 609 q 335 587 372 609 q 278 516 297 565 q 259 383 259 466 q 276 250 259 298 q 323 182 292 201 q 397 163 353 163 m 1074 167 l 1401 167 l 1401 0 l 827 0 l 827 133 l 1146 592 l 835 592 l 835 760 l 1393 760 l 1393 627 l 1074 167 z "},"ǆ":{"ha":1428,"x_min":43,"x_max":1401,"o":"m 330 -14 q 185 26 249 -14 q 82 151 120 66 q 43 365 43 235 q 142 668 43 565 q 442 772 241 772 q 503 767 467 772 l 503 1122 l 715 1122 l 715 0 l 536 0 l 522 82 l 512 82 q 438 11 484 37 q 330 -14 391 -14 m 397 163 q 456 175 428 163 q 503 208 483 186 l 503 602 q 431 609 463 609 q 335 587 372 609 q 278 516 297 565 q 259 383 259 466 q 276 250 259 298 q 323 182 292 201 q 397 163 353 163 m 1074 167 l 1401 167 l 1401 0 l 827 0 l 827 133 l 1146 592 l 835 592 l 835 760 l 1393 760 l 1393 627 l 1074 167 m 1202 1122 l 1350 1122 l 1204 856 l 1025 856 l 878 1122 l 1026 1122 l 1115 953 l 1202 1122 z "},"e":{"ha":716,"x_min":43,"x_max":681,"o":"m 681 316 l 258 316 q 281 219 260 254 q 344 168 301 184 q 461 153 388 153 q 642 178 539 153 l 642 12 q 535 -8 585 -2 q 433 -15 485 -15 q 211 26 297 -15 q 84 155 126 67 q 43 382 43 242 q 129 672 43 572 q 374 772 215 772 q 603 671 525 772 q 681 376 681 570 l 681 316 m 372 633 q 309 616 334 633 q 271 557 285 599 q 257 443 258 515 l 483 443 q 469 557 482 515 q 433 616 457 599 q 372 633 410 633 z "},"é":{"ha":716,"x_min":43,"x_max":681,"o":"m 681 316 l 258 316 q 281 219 260 254 q 344 168 301 184 q 461 153 388 153 q 642 178 539 153 l 642 12 q 535 -8 585 -2 q 433 -15 485 -15 q 211 26 297 -15 q 84 155 126 67 q 43 382 43 242 q 129 672 43 572 q 374 772 215 772 q 603 671 525 772 q 681 376 681 570 l 681 316 m 372 633 q 309 616 334 633 q 271 557 285 599 q 257 443 258 515 l 483 443 q 469 557 482 515 q 433 616 457 599 q 372 633 410 633 m 274 856 l 422 1122 l 640 1122 l 463 856 l 274 856 z "},"ĕ":{"ha":716,"x_min":43,"x_max":681,"o":"m 681 316 l 258 316 q 281 219 260 254 q 344 168 301 184 q 461 153 388 153 q 642 178 539 153 l 642 12 q 535 -8 585 -2 q 433 -15 485 -15 q 211 26 297 -15 q 84 155 126 67 q 43 382 43 242 q 129 672 43 572 q 374 772 215 772 q 603 671 525 772 q 681 376 681 570 l 681 316 m 372 633 q 309 616 334 633 q 271 557 285 599 q 257 443 258 515 l 483 443 q 469 557 482 515 q 433 616 457 599 q 372 633 410 633 m 369 863 q 201 924 263 863 q 133 1107 139 985 l 263 1107 q 293 1007 267 1039 q 369 974 319 974 q 444 1007 418 974 q 474 1107 471 1039 l 605 1107 q 537 924 599 985 q 369 863 475 863 z "},"ě":{"ha":716,"x_min":43,"x_max":681,"o":"m 681 316 l 258 316 q 281 219 260 254 q 344 168 301 184 q 461 153 388 153 q 642 178 539 153 l 642 12 q 535 -8 585 -2 q 433 -15 485 -15 q 211 26 297 -15 q 84 155 126 67 q 43 382 43 242 q 129 672 43 572 q 374 772 215 772 q 603 671 525 772 q 681 376 681 570 l 681 316 m 372 633 q 309 616 334 633 q 271 557 285 599 q 257 443 258 515 l 483 443 q 469 557 482 515 q 433 616 457 599 q 372 633 410 633 m 456 1122 l 604 1122 l 458 856 l 279 856 l 133 1122 l 281 1122 l 369 953 l 456 1122 z "},"ḝ":{"ha":716,"x_min":43,"x_max":681,"o":"m 369 863 q 201 924 263 863 q 133 1107 139 985 l 263 1107 q 293 1007 267 1039 q 369 974 319 974 q 444 1007 418 974 q 474 1107 471 1039 l 605 1107 q 537 924 599 985 q 369 863 475 863 m 681 316 l 258 316 q 281 219 260 254 q 344 168 301 184 q 461 153 388 153 q 642 178 539 153 l 642 12 q 535 -8 585 -2 q 433 -15 485 -15 l 428 -15 l 428 -62 q 509 -102 481 -72 q 538 -181 538 -133 q 494 -274 538 -241 q 364 -308 451 -308 q 244 -287 298 -308 l 244 -201 q 300 -217 271 -212 q 353 -222 328 -222 q 406 -211 389 -222 q 422 -173 422 -199 q 351 -122 422 -122 l 323 -122 l 323 -7 q 111 110 178 16 q 43 382 43 203 q 129 672 43 572 q 374 772 215 772 q 603 671 525 772 q 681 376 681 570 l 681 316 m 372 633 q 309 616 334 633 q 271 557 285 599 q 257 443 258 515 l 483 443 q 469 557 482 515 q 433 616 457 599 q 372 633 410 633 z "},"ê":{"ha":716,"x_min":43,"x_max":681,"o":"m 681 316 l 258 316 q 281 219 260 254 q 344 168 301 184 q 461 153 388 153 q 642 178 539 153 l 642 12 q 535 -8 585 -2 q 433 -15 485 -15 q 211 26 297 -15 q 84 155 126 67 q 43 382 43 242 q 129 672 43 572 q 374 772 215 772 q 603 671 525 772 q 681 376 681 570 l 681 316 m 372 633 q 309 616 334 633 q 271 557 285 599 q 257 443 258 515 l 483 443 q 469 557 482 515 q 433 616 457 599 q 372 633 410 633 m 603 856 l 456 856 l 369 1024 l 281 856 l 133 856 l 279 1122 l 458 1122 l 603 856 z "},"ế":{"ha":716,"x_min":43,"x_max":820,"o":"m 681 316 l 258 316 q 281 219 260 254 q 344 168 301 184 q 461 153 388 153 q 642 178 539 153 l 642 12 q 535 -8 585 -2 q 433 -15 485 -15 q 211 26 297 -15 q 84 155 126 67 q 43 382 43 242 q 129 672 43 572 q 374 772 215 772 q 603 671 525 772 q 681 376 681 570 l 681 316 m 372 633 q 309 616 334 633 q 271 557 285 599 q 257 443 258 515 l 483 443 q 469 557 482 515 q 433 616 457 599 q 372 633 410 633 m 642 1297 l 820 1297 l 671 1109 l 524 1109 l 642 1297 m 279 1122 l 458 1122 l 603 856 l 456 856 l 369 1024 l 281 856 l 133 856 l 279 1122 z "},"ệ":{"ha":716,"x_min":43,"x_max":681,"o":"m 681 316 l 258 316 q 281 219 260 254 q 344 168 301 184 q 461 153 388 153 q 642 178 539 153 l 642 12 q 535 -8 585 -2 q 433 -15 485 -15 q 211 26 297 -15 q 84 155 126 67 q 43 382 43 242 q 129 672 43 572 q 374 772 215 772 q 603 671 525 772 q 681 376 681 570 l 681 316 m 372 633 q 309 616 334 633 q 271 557 285 599 q 257 443 258 515 l 483 443 q 469 557 482 515 q 433 616 457 599 q 372 633 410 633 m 369 -310 q 283 -280 315 -310 q 252 -199 252 -251 q 283 -118 252 -148 q 369 -88 315 -88 q 453 -118 422 -88 q 485 -199 485 -148 q 453 -280 485 -251 q 369 -310 422 -310 m 603 856 l 456 856 l 369 1024 l 281 856 l 133 856 l 279 1122 l 458 1122 l 603 856 z "},"ề":{"ha":716,"x_min":43,"x_max":693,"o":"m 681 316 l 258 316 q 281 219 260 254 q 344 168 301 184 q 461 153 388 153 q 642 178 539 153 l 642 12 q 535 -8 585 -2 q 433 -15 485 -15 q 211 26 297 -15 q 84 155 126 67 q 43 382 43 242 q 129 672 43 572 q 374 772 215 772 q 603 671 525 772 q 681 376 681 570 l 681 316 m 372 633 q 309 616 334 633 q 271 557 285 599 q 257 443 258 515 l 483 443 q 469 557 482 515 q 433 616 457 599 q 372 633 410 633 m 693 1109 l 546 1109 l 397 1297 l 576 1297 l 693 1109 m 279 1122 l 458 1122 l 603 856 l 456 856 l 369 1024 l 281 856 l 133 856 l 279 1122 z "},"ể":{"ha":716,"x_min":43,"x_max":742,"o":"m 681 316 l 258 316 q 281 219 260 254 q 344 168 301 184 q 461 153 388 153 q 642 178 539 153 l 642 12 q 535 -8 585 -2 q 433 -15 485 -15 q 211 26 297 -15 q 84 155 126 67 q 43 382 43 242 q 129 672 43 572 q 374 772 215 772 q 603 671 525 772 q 681 376 681 570 l 681 316 m 372 633 q 309 616 334 633 q 271 557 285 599 q 257 443 258 515 l 483 443 q 469 557 482 515 q 433 616 457 599 q 372 633 410 633 m 574 1310 q 701 1290 660 1310 q 742 1226 742 1269 q 727 1190 742 1203 q 683 1161 713 1176 q 643 1138 657 1149 q 627 1109 630 1126 l 521 1109 q 533 1144 522 1130 q 558 1168 544 1159 q 593 1186 572 1176 q 619 1199 611 1194 q 627 1213 627 1205 q 611 1231 627 1225 q 557 1237 594 1237 q 431 1222 488 1237 l 431 1293 q 498 1306 458 1301 q 574 1310 538 1310 m 279 1122 l 458 1122 l 603 856 l 456 856 l 369 1024 l 281 856 l 133 856 l 279 1122 z "},"ễ":{"ha":716,"x_min":43,"x_max":681,"o":"m 681 316 l 258 316 q 281 219 260 254 q 344 168 301 184 q 461 153 388 153 q 642 178 539 153 l 642 12 q 535 -8 585 -2 q 433 -15 485 -15 q 211 26 297 -15 q 84 155 126 67 q 43 382 43 242 q 129 672 43 572 q 374 772 215 772 q 603 671 525 772 q 681 376 681 570 l 681 316 m 372 633 q 309 616 334 633 q 271 557 285 599 q 257 443 258 515 l 483 443 q 469 557 482 515 q 433 616 457 599 q 372 633 410 633 m 484 1236 q 555 1247 524 1236 q 617 1282 585 1258 l 617 1168 q 559 1135 591 1145 q 481 1124 526 1124 q 423 1131 450 1124 q 356 1150 395 1138 q 299 1167 322 1162 q 253 1173 276 1173 q 183 1162 214 1173 q 120 1127 153 1151 l 120 1240 q 179 1274 147 1263 q 256 1285 211 1285 q 315 1279 287 1285 q 381 1259 343 1272 q 438 1242 415 1247 q 484 1236 460 1236 m 278 1083 l 459 1083 l 609 857 l 458 857 l 369 1003 l 278 857 l 128 857 l 278 1083 z "},"ȅ":{"ha":716,"x_min":42,"x_max":681,"o":"m 681 316 l 258 316 q 281 219 260 254 q 344 168 301 184 q 461 153 388 153 q 642 178 539 153 l 642 12 q 535 -8 585 -2 q 433 -15 485 -15 q 211 26 297 -15 q 84 155 126 67 q 43 382 43 242 q 129 672 43 572 q 374 772 215 772 q 603 671 525 772 q 681 376 681 570 l 681 316 m 372 633 q 309 616 334 633 q 271 557 285 599 q 257 443 258 515 l 483 443 q 469 557 482 515 q 433 616 457 599 q 372 633 410 633 m 150 856 l 42 1122 l 215 1122 l 312 856 l 150 856 m 426 856 l 318 1122 l 490 1122 l 588 856 l 426 856 z "},"ë":{"ha":716,"x_min":43,"x_max":681,"o":"m 681 316 l 258 316 q 281 219 260 254 q 344 168 301 184 q 461 153 388 153 q 642 178 539 153 l 642 12 q 535 -8 585 -2 q 433 -15 485 -15 q 211 26 297 -15 q 84 155 126 67 q 43 382 43 242 q 129 672 43 572 q 374 772 215 772 q 603 671 525 772 q 681 376 681 570 l 681 316 m 372 633 q 309 616 334 633 q 271 557 285 599 q 257 443 258 515 l 483 443 q 469 557 482 515 q 433 616 457 599 q 372 633 410 633 m 206 874 q 120 903 151 874 q 90 985 90 933 q 120 1068 90 1038 q 206 1098 151 1098 q 291 1068 260 1098 q 322 985 322 1038 q 291 903 322 933 q 206 874 260 874 m 531 874 q 446 903 477 874 q 415 985 415 933 q 446 1068 415 1038 q 531 1098 477 1098 q 617 1068 585 1098 q 648 985 648 1038 q 617 903 648 933 q 531 874 585 874 z "},"ė":{"ha":716,"x_min":43,"x_max":681,"o":"m 681 316 l 258 316 q 281 219 260 254 q 344 168 301 184 q 461 153 388 153 q 642 178 539 153 l 642 12 q 535 -8 585 -2 q 433 -15 485 -15 q 211 26 297 -15 q 84 155 126 67 q 43 382 43 242 q 129 672 43 572 q 374 772 215 772 q 603 671 525 772 q 681 376 681 570 l 681 316 m 372 633 q 309 616 334 633 q 271 557 285 599 q 257 443 258 515 l 483 443 q 469 557 482 515 q 433 616 457 599 q 372 633 410 633 m 369 869 q 269 900 302 869 q 236 985 236 930 q 269 1072 236 1042 q 369 1102 302 1102 q 468 1072 435 1102 q 501 985 501 1041 q 468 900 501 930 q 369 869 435 869 z "},"ẹ":{"ha":716,"x_min":43,"x_max":681,"o":"m 681 316 l 258 316 q 281 219 260 254 q 344 168 301 184 q 461 153 388 153 q 642 178 539 153 l 642 12 q 535 -8 585 -2 q 433 -15 485 -15 q 211 26 297 -15 q 84 155 126 67 q 43 382 43 242 q 129 672 43 572 q 374 772 215 772 q 603 671 525 772 q 681 376 681 570 l 681 316 m 372 633 q 309 616 334 633 q 271 557 285 599 q 257 443 258 515 l 483 443 q 469 557 482 515 q 433 616 457 599 q 372 633 410 633 m 369 -310 q 283 -280 315 -310 q 252 -199 252 -251 q 283 -118 252 -148 q 369 -88 315 -88 q 453 -118 422 -88 q 485 -199 485 -148 q 453 -280 485 -251 q 369 -310 422 -310 z "},"è":{"ha":716,"x_min":43,"x_max":681,"o":"m 681 316 l 258 316 q 281 219 260 254 q 344 168 301 184 q 461 153 388 153 q 642 178 539 153 l 642 12 q 535 -8 585 -2 q 433 -15 485 -15 q 211 26 297 -15 q 84 155 126 67 q 43 382 43 242 q 129 672 43 572 q 374 772 215 772 q 603 671 525 772 q 681 376 681 570 l 681 316 m 372 633 q 309 616 334 633 q 271 557 285 599 q 257 443 258 515 l 483 443 q 469 557 482 515 q 433 616 457 599 q 372 633 410 633 m 274 856 l 97 1122 l 315 1122 l 463 856 l 274 856 z "},"ẻ":{"ha":716,"x_min":43,"x_max":681,"o":"m 681 316 l 258 316 q 281 219 260 254 q 344 168 301 184 q 461 153 388 153 q 642 178 539 153 l 642 12 q 535 -8 585 -2 q 433 -15 485 -15 q 211 26 297 -15 q 84 155 126 67 q 43 382 43 242 q 129 672 43 572 q 374 772 215 772 q 603 671 525 772 q 681 376 681 570 l 681 316 m 372 633 q 309 616 334 633 q 271 557 285 599 q 257 443 258 515 l 483 443 q 469 557 482 515 q 433 616 457 599 q 372 633 410 633 m 315 856 q 333 918 317 895 q 378 965 350 942 q 405 988 397 978 q 413 1010 413 997 q 349 1044 413 1044 q 239 1028 293 1044 l 239 1113 q 299 1126 265 1121 q 365 1131 334 1131 q 488 1104 448 1131 q 528 1024 528 1078 q 514 969 528 990 q 472 928 500 949 q 436 894 449 909 q 422 856 424 879 l 315 856 z "},"ȇ":{"ha":716,"x_min":43,"x_max":681,"o":"m 681 316 l 258 316 q 281 219 260 254 q 344 168 301 184 q 461 153 388 153 q 642 178 539 153 l 642 12 q 535 -8 585 -2 q 433 -15 485 -15 q 211 26 297 -15 q 84 155 126 67 q 43 382 43 242 q 129 672 43 572 q 374 772 215 772 q 603 671 525 772 q 681 376 681 570 l 681 316 m 372 633 q 309 616 334 633 q 271 557 285 599 q 257 443 258 515 l 483 443 q 469 557 482 515 q 433 616 457 599 q 372 633 410 633 m 133 875 q 200 1058 139 997 q 368 1119 260 1119 q 536 1058 474 1119 q 605 875 599 997 l 474 875 q 443 977 470 944 q 368 1010 417 1010 q 292 977 317 1010 q 263 875 266 945 l 133 875 z "},"ē":{"ha":716,"x_min":43,"x_max":681,"o":"m 681 316 l 258 316 q 281 219 260 254 q 344 168 301 184 q 461 153 388 153 q 642 178 539 153 l 642 12 q 535 -8 585 -2 q 433 -15 485 -15 q 211 26 297 -15 q 84 155 126 67 q 43 382 43 242 q 129 672 43 572 q 374 772 215 772 q 603 671 525 772 q 681 376 681 570 l 681 316 m 372 633 q 309 616 334 633 q 271 557 285 599 q 257 443 258 515 l 483 443 q 469 557 482 515 q 433 616 457 599 q 372 633 410 633 m 131 919 l 131 1053 l 606 1053 l 606 919 l 131 919 z "},"ḗ":{"ha":716,"x_min":43,"x_max":681,"o":"m 681 316 l 258 316 q 281 219 260 254 q 344 168 301 184 q 461 153 388 153 q 642 178 539 153 l 642 12 q 535 -8 585 -2 q 433 -15 485 -15 q 211 26 297 -15 q 84 155 126 67 q 43 382 43 242 q 129 672 43 572 q 374 772 215 772 q 603 671 525 772 q 681 376 681 570 l 681 316 m 372 633 q 309 616 334 633 q 271 557 285 599 q 257 443 258 515 l 483 443 q 469 557 482 515 q 433 616 457 599 q 372 633 410 633 m 131 919 l 131 1053 l 606 1053 l 606 919 l 131 919 m 273 1151 l 390 1362 l 613 1362 l 463 1151 l 273 1151 z "},"ḕ":{"ha":716,"x_min":43,"x_max":681,"o":"m 681 316 l 258 316 q 281 219 260 254 q 344 168 301 184 q 461 153 388 153 q 642 178 539 153 l 642 12 q 535 -8 585 -2 q 433 -15 485 -15 q 211 26 297 -15 q 84 155 126 67 q 43 382 43 242 q 129 672 43 572 q 374 772 215 772 q 603 671 525 772 q 681 376 681 570 l 681 316 m 372 633 q 309 616 334 633 q 271 557 285 599 q 257 443 258 515 l 483 443 q 469 557 482 515 q 433 616 457 599 q 372 633 410 633 m 131 919 l 131 1053 l 606 1053 l 606 919 l 131 919 m 273 1151 l 124 1362 l 346 1362 l 464 1151 l 273 1151 z "},"ę":{"ha":716,"x_min":43,"x_max":681,"o":"m 681 316 l 258 316 q 281 219 260 254 q 344 168 301 184 q 461 153 388 153 q 642 178 539 153 l 642 12 q 510 -65 547 -24 q 473 -151 473 -105 q 494 -201 473 -183 q 554 -219 515 -219 q 642 -198 595 -219 l 642 -285 q 527 -308 587 -308 q 397 -269 442 -308 q 351 -164 351 -231 q 371 -82 351 -119 q 433 -15 390 -45 q 211 26 297 -15 q 84 155 126 67 q 43 382 43 242 q 129 672 43 572 q 374 772 215 772 q 603 671 525 772 q 681 376 681 570 l 681 316 m 372 628 q 309 611 334 628 q 271 552 285 594 q 257 438 258 510 l 483 438 q 469 552 482 510 q 433 611 457 594 q 372 628 410 628 z "},"ẽ":{"ha":716,"x_min":43,"x_max":681,"o":"m 681 316 l 258 316 q 281 219 260 254 q 344 168 301 184 q 461 153 388 153 q 642 178 539 153 l 642 12 q 535 -8 585 -2 q 433 -15 485 -15 q 211 26 297 -15 q 84 155 126 67 q 43 382 43 242 q 129 672 43 572 q 374 772 215 772 q 603 671 525 772 q 681 376 681 570 l 681 316 m 372 633 q 309 616 334 633 q 271 557 285 599 q 257 443 258 515 l 483 443 q 469 557 482 515 q 433 616 457 599 q 372 633 410 633 m 475 892 q 419 901 445 892 q 356 926 392 910 q 302 949 323 942 q 259 956 281 956 q 192 942 222 956 q 131 897 162 928 l 131 1036 q 189 1076 158 1063 q 262 1089 220 1089 q 318 1080 292 1089 q 381 1055 344 1072 q 436 1033 416 1040 q 478 1026 456 1026 q 545 1040 515 1026 q 606 1085 575 1053 l 606 946 q 548 905 579 918 q 475 892 517 892 z "},"ə":{"ha":716,"x_min":35,"x_max":673,"o":"m 283 774 q 505 733 419 774 q 632 605 590 692 q 673 378 673 517 q 587 88 673 188 q 342 -12 501 -12 q 113 89 191 -12 q 35 384 35 190 l 35 444 l 458 444 q 435 541 456 506 q 372 591 415 576 q 255 607 328 607 q 74 582 177 607 l 74 748 q 181 768 131 762 q 283 774 231 774 m 344 126 q 407 144 382 126 q 445 203 431 161 q 459 317 458 244 l 233 317 q 247 203 234 244 q 283 144 259 161 q 344 126 306 126 z "},"f":{"ha":518,"x_min":10,"x_max":556,"o":"m 484 965 q 371 933 406 965 q 336 833 336 902 l 336 760 l 526 760 l 526 592 l 336 592 l 336 0 l 126 0 l 126 592 l 10 592 l 10 760 l 126 760 l 126 820 q 209 1055 126 973 q 452 1136 292 1136 q 556 1128 508 1136 l 556 959 q 484 965 522 965 z "},"g":{"ha":790,"x_min":43,"x_max":715,"o":"m 324 -319 q 208 -312 268 -319 q 96 -291 147 -306 l 96 -123 q 306 -153 204 -153 q 456 -111 408 -153 q 503 31 503 -69 l 503 81 l 492 81 q 419 16 464 40 q 315 -7 374 -7 q 180 33 241 -7 q 81 156 118 72 q 43 365 43 240 q 448 772 43 772 q 587 761 516 772 q 715 731 658 751 l 715 68 q 672 -154 715 -68 q 543 -280 629 -240 q 324 -319 456 -319 m 401 168 q 457 178 430 168 q 503 208 484 189 l 503 601 q 428 610 463 610 q 301 558 343 610 q 259 384 259 506 q 276 254 259 301 q 323 187 292 206 q 401 168 354 168 z "},"ǵ":{"ha":790,"x_min":43,"x_max":715,"o":"m 324 -319 q 208 -312 268 -319 q 96 -291 147 -306 l 96 -123 q 306 -153 204 -153 q 456 -111 408 -153 q 503 31 503 -69 l 503 81 l 492 81 q 419 16 464 40 q 315 -7 374 -7 q 180 33 241 -7 q 81 156 118 72 q 43 365 43 240 q 448 772 43 772 q 587 761 516 772 q 715 731 658 751 l 715 68 q 672 -154 715 -68 q 543 -280 629 -240 q 324 -319 456 -319 m 401 168 q 457 178 430 168 q 503 208 484 189 l 503 601 q 428 610 463 610 q 301 558 343 610 q 259 384 259 506 q 276 254 259 301 q 323 187 292 206 q 401 168 354 168 m 315 856 l 463 1122 l 681 1122 l 504 856 l 315 856 z "},"ğ":{"ha":790,"x_min":43,"x_max":715,"o":"m 324 -319 q 208 -312 268 -319 q 96 -291 147 -306 l 96 -123 q 306 -153 204 -153 q 456 -111 408 -153 q 503 31 503 -69 l 503 81 l 492 81 q 419 16 464 40 q 315 -7 374 -7 q 180 33 241 -7 q 81 156 118 72 q 43 365 43 240 q 448 772 43 772 q 587 761 516 772 q 715 731 658 751 l 715 68 q 672 -154 715 -68 q 543 -280 629 -240 q 324 -319 456 -319 m 401 168 q 457 178 430 168 q 503 208 484 189 l 503 601 q 428 610 463 610 q 301 558 343 610 q 259 384 259 506 q 276 254 259 301 q 323 187 292 206 q 401 168 354 168 m 410 863 q 242 924 303 863 q 174 1107 180 985 l 303 1107 q 334 1007 308 1039 q 410 974 360 974 q 485 1007 459 974 q 515 1107 512 1039 l 646 1107 q 578 924 640 985 q 410 863 516 863 z "},"ǧ":{"ha":790,"x_min":43,"x_max":715,"o":"m 324 -319 q 208 -312 268 -319 q 96 -291 147 -306 l 96 -123 q 306 -153 204 -153 q 456 -111 408 -153 q 503 31 503 -69 l 503 81 l 492 81 q 419 16 464 40 q 315 -7 374 -7 q 180 33 241 -7 q 81 156 118 72 q 43 365 43 240 q 448 772 43 772 q 587 761 516 772 q 715 731 658 751 l 715 68 q 672 -154 715 -68 q 543 -280 629 -240 q 324 -319 456 -319 m 401 168 q 457 178 430 168 q 503 208 484 189 l 503 601 q 428 610 463 610 q 301 558 343 610 q 259 384 259 506 q 276 254 259 301 q 323 187 292 206 q 401 168 354 168 m 497 1122 l 645 1122 l 499 856 l 320 856 l 174 1122 l 322 1122 l 410 953 l 497 1122 z "},"ĝ":{"ha":790,"x_min":43,"x_max":715,"o":"m 324 -319 q 208 -312 268 -319 q 96 -291 147 -306 l 96 -123 q 306 -153 204 -153 q 456 -111 408 -153 q 503 31 503 -69 l 503 81 l 492 81 q 419 16 464 40 q 315 -7 374 -7 q 180 33 241 -7 q 81 156 118 72 q 43 365 43 240 q 448 772 43 772 q 587 761 516 772 q 715 731 658 751 l 715 68 q 672 -154 715 -68 q 543 -280 629 -240 q 324 -319 456 -319 m 401 168 q 457 178 430 168 q 503 208 484 189 l 503 601 q 428 610 463 610 q 301 558 343 610 q 259 384 259 506 q 276 254 259 301 q 323 187 292 206 q 401 168 354 168 m 644 856 l 497 856 l 410 1024 l 322 856 l 174 856 l 320 1122 l 499 1122 l 644 856 z "},"ģ":{"ha":790,"x_min":43,"x_max":715,"o":"m 324 -319 q 208 -312 268 -319 q 96 -291 147 -306 l 96 -123 q 306 -153 204 -153 q 456 -111 408 -153 q 503 31 503 -69 l 503 81 l 492 81 q 419 16 464 40 q 315 -7 374 -7 q 180 33 241 -7 q 81 156 118 72 q 43 365 43 240 q 448 772 43 772 q 587 761 516 772 q 715 731 658 751 l 715 68 q 672 -154 715 -68 q 543 -280 629 -240 q 324 -319 456 -319 m 401 168 q 457 178 430 168 q 503 208 484 189 l 503 601 q 428 610 463 610 q 301 558 343 610 q 259 384 259 506 q 276 254 259 301 q 323 187 292 206 q 401 168 354 168 m 438 1027 q 506 1002 484 1022 q 528 949 528 982 q 499 891 528 912 q 410 871 470 871 q 290 974 290 871 q 305 1054 290 1011 q 343 1128 319 1097 l 476 1128 q 438 1027 446 1067 z "},"ġ":{"ha":790,"x_min":43,"x_max":715,"o":"m 324 -319 q 208 -312 268 -319 q 96 -291 147 -306 l 96 -123 q 306 -153 204 -153 q 456 -111 408 -153 q 503 31 503 -69 l 503 81 l 492 81 q 419 16 464 40 q 315 -7 374 -7 q 180 33 241 -7 q 81 156 118 72 q 43 365 43 240 q 448 772 43 772 q 587 761 516 772 q 715 731 658 751 l 715 68 q 672 -154 715 -68 q 543 -280 629 -240 q 324 -319 456 -319 m 401 168 q 457 178 430 168 q 503 208 484 189 l 503 601 q 428 610 463 610 q 301 558 343 610 q 259 384 259 506 q 276 254 259 301 q 323 187 292 206 q 401 168 354 168 m 410 869 q 310 900 343 869 q 277 985 277 930 q 310 1072 277 1042 q 410 1102 343 1102 q 509 1072 476 1102 q 542 985 542 1041 q 509 900 542 930 q 410 869 476 869 z "},"ḡ":{"ha":790,"x_min":43,"x_max":715,"o":"m 324 -319 q 208 -312 268 -319 q 96 -291 147 -306 l 96 -123 q 306 -153 204 -153 q 456 -111 408 -153 q 503 31 503 -69 l 503 81 l 492 81 q 419 16 464 40 q 315 -7 374 -7 q 180 33 241 -7 q 81 156 118 72 q 43 365 43 240 q 448 772 43 772 q 587 761 516 772 q 715 731 658 751 l 715 68 q 672 -154 715 -68 q 543 -280 629 -240 q 324 -319 456 -319 m 401 168 q 457 178 430 168 q 503 208 484 189 l 503 601 q 428 610 463 610 q 301 558 343 610 q 259 384 259 506 q 276 254 259 301 q 323 187 292 206 q 401 168 354 168 m 172 919 l 172 1053 l 647 1053 l 647 919 l 172 919 z "},"h":{"ha":788,"x_min":75,"x_max":719,"o":"m 75 1122 l 288 1122 l 288 681 l 298 681 q 494 772 369 772 q 657 704 595 772 q 719 490 719 636 l 719 0 l 506 0 l 506 473 q 482 559 506 533 q 410 585 457 585 q 343 570 376 585 q 288 528 309 556 l 288 0 l 75 0 l 75 1122 z "},"ħ":{"ha":788,"x_min":2,"x_max":719,"o":"m 494 772 q 657 704 595 772 q 719 490 719 636 l 719 0 l 506 0 l 506 473 q 482 559 506 533 q 410 585 457 585 q 343 570 376 585 q 288 528 309 556 l 288 0 l 75 0 l 75 869 l 2 869 l 2 1010 l 75 1010 l 75 1122 l 288 1122 l 288 1010 l 489 1010 l 489 869 l 288 869 l 288 681 l 298 681 q 494 772 369 772 z "},"ḫ":{"ha":788,"x_min":75,"x_max":719,"o":"m 75 1122 l 288 1122 l 288 681 l 298 681 q 494 772 369 772 q 657 704 595 772 q 719 490 719 636 l 719 0 l 506 0 l 506 473 q 482 559 506 533 q 410 585 457 585 q 343 570 376 585 q 288 528 309 556 l 288 0 l 75 0 l 75 1122 m 397 -318 q 226 -261 288 -318 q 161 -101 165 -203 l 291 -101 q 319 -182 293 -155 q 397 -209 345 -209 q 475 -182 449 -209 q 503 -101 501 -156 l 633 -101 q 568 -261 630 -203 q 397 -318 507 -318 z "},"ĥ":{"ha":788,"x_min":75,"x_max":719,"o":"m 75 1122 l 288 1122 l 288 681 l 298 681 q 494 772 369 772 q 657 704 595 772 q 719 490 719 636 l 719 0 l 506 0 l 506 473 q 482 559 506 533 q 410 585 457 585 q 343 570 376 585 q 288 528 309 556 l 288 0 l 75 0 l 75 1122 m 642 1174 l 489 1174 l 397 1306 l 305 1174 l 152 1174 l 306 1385 l 488 1385 l 642 1174 z "},"ḥ":{"ha":788,"x_min":75,"x_max":719,"o":"m 75 1122 l 288 1122 l 288 681 l 298 681 q 494 772 369 772 q 657 704 595 772 q 719 490 719 636 l 719 0 l 506 0 l 506 473 q 482 559 506 533 q 410 585 457 585 q 343 570 376 585 q 288 528 309 556 l 288 0 l 75 0 l 75 1122 m 397 -310 q 312 -280 343 -310 q 281 -199 281 -251 q 312 -118 281 -148 q 397 -88 343 -88 q 482 -118 451 -88 q 513 -199 513 -148 q 482 -280 513 -251 q 397 -310 451 -310 z "},"i":{"ha":363,"x_min":49,"x_max":314,"o":"m 75 0 l 75 760 l 288 760 l 288 0 l 75 0 m 182 869 q 82 900 115 869 q 49 985 49 930 q 82 1072 49 1042 q 182 1102 115 1102 q 281 1072 248 1102 q 314 985 314 1041 q 281 900 314 930 q 182 869 248 869 z "},"ı":{"ha":363,"x_min":75,"x_max":288,"o":"m 75 0 l 75 760 l 288 760 l 288 0 l 75 0 z "},"í":{"ha":363,"x_min":75,"x_max":453,"o":"m 75 0 l 75 760 l 288 760 l 288 0 l 75 0 m 87 856 l 234 1122 l 453 1122 l 276 856 l 87 856 z "},"ĭ":{"ha":363,"x_min":-55,"x_max":417,"o":"m 75 0 l 75 760 l 288 760 l 288 0 l 75 0 m 181 863 q 13 924 75 863 q -55 1107 -49 985 l 75 1107 q 106 1007 79 1039 q 181 974 132 974 q 257 1007 231 974 q 287 1107 283 1039 l 417 1107 q 349 924 411 985 q 181 863 288 863 z "},"î":{"ha":363,"x_min":-54,"x_max":416,"o":"m 75 0 l 75 760 l 288 760 l 288 0 l 75 0 m 416 856 l 268 856 l 181 1024 l 94 856 l -54 856 l 92 1122 l 271 1122 l 416 856 z "},"ȉ":{"ha":363,"x_min":-145,"x_max":400,"o":"m 75 0 l 75 760 l 288 760 l 288 0 l 75 0 m -37 856 l -145 1122 l 27 1122 l 124 856 l -37 856 m 238 856 l 131 1122 l 303 1122 l 400 856 l 238 856 z "},"ï":{"ha":363,"x_min":-98,"x_max":460,"o":"m 75 0 l 75 760 l 288 760 l 288 0 l 75 0 m 18 874 q -67 903 -36 874 q -98 985 -98 933 q -67 1068 -98 1038 q 18 1098 -36 1098 q 103 1068 72 1098 q 135 985 135 1038 q 103 903 135 933 q 18 874 72 874 m 344 874 q 258 903 290 874 q 227 985 227 933 q 258 1068 227 1038 q 344 1098 290 1098 q 429 1068 398 1098 q 460 985 460 1038 q 429 903 460 933 q 344 874 398 874 z "},"ḯ":{"ha":363,"x_min":-98,"x_max":460,"o":"m 75 0 l 75 760 l 288 760 l 288 0 l 75 0 m 18 874 q -67 903 -36 874 q -98 985 -98 933 q -67 1068 -98 1038 q 18 1098 -36 1098 q 103 1068 72 1098 q 135 985 135 1038 q 103 903 135 933 q 18 874 72 874 m 344 874 q 258 903 290 874 q 227 985 227 933 q 258 1068 227 1038 q 344 1098 290 1098 q 429 1068 398 1098 q 460 985 460 1038 q 429 903 460 933 q 344 874 398 874 m 112 1217 l 229 1428 l 452 1428 l 302 1217 l 112 1217 z "},"ị":{"ha":363,"x_min":49,"x_max":314,"o":"m 75 0 l 75 760 l 288 760 l 288 0 l 75 0 m 182 869 q 82 900 115 869 q 49 985 49 930 q 82 1072 49 1042 q 182 1102 115 1102 q 281 1072 248 1102 q 314 985 314 1041 q 281 900 314 930 q 182 869 248 869 m 181 -310 q 96 -280 127 -310 q 65 -199 65 -251 q 96 -118 65 -148 q 181 -88 127 -88 q 266 -118 235 -88 q 297 -199 297 -148 q 266 -280 297 -251 q 181 -310 235 -310 z "},"ì":{"ha":363,"x_min":-91,"x_max":288,"o":"m 75 0 l 75 760 l 288 760 l 288 0 l 75 0 m 87 856 l -91 1122 l 128 1122 l 276 856 l 87 856 z "},"ỉ":{"ha":363,"x_min":51,"x_max":341,"o":"m 75 0 l 75 760 l 288 760 l 288 0 l 75 0 m 127 856 q 146 918 129 895 q 191 965 163 942 q 217 988 209 978 q 225 1010 225 997 q 161 1044 225 1044 q 51 1028 106 1044 l 51 1113 q 112 1126 77 1121 q 178 1131 147 1131 q 301 1104 260 1131 q 341 1024 341 1078 q 327 969 341 990 q 285 928 313 949 q 249 894 261 909 q 235 856 237 879 l 127 856 z "},"ȋ":{"ha":363,"x_min":-55,"x_max":417,"o":"m 75 0 l 75 760 l 288 760 l 288 0 l 75 0 m -55 875 q 12 1058 -49 997 q 181 1119 73 1119 q 349 1058 286 1119 q 417 875 411 997 l 287 875 q 256 977 283 944 q 181 1010 229 1010 q 104 977 130 1010 q 75 875 78 945 l -55 875 z "},"ī":{"ha":363,"x_min":-56,"x_max":418,"o":"m 75 0 l 75 760 l 288 760 l 288 0 l 75 0 m -56 919 l -56 1053 l 418 1053 l 418 919 l -56 919 z "},"į":{"ha":363,"x_min":19,"x_max":313,"o":"m 181 869 q 82 900 115 869 q 49 985 49 930 q 82 1072 49 1042 q 181 1102 115 1102 q 280 1072 247 1102 q 313 985 313 1041 q 280 900 313 930 q 181 869 247 869 m 142 -151 q 163 -201 142 -183 q 223 -219 183 -219 q 311 -198 264 -219 l 311 -285 q 196 -308 256 -308 q 65 -269 110 -308 q 19 -164 19 -231 q 43 -74 19 -114 q 122 0 67 -34 l 75 0 l 75 760 l 288 760 l 288 0 q 174 -72 206 -35 q 142 -151 142 -108 z "},"ĩ":{"ha":363,"x_min":-56,"x_max":418,"o":"m 75 0 l 75 760 l 288 760 l 288 0 l 75 0 m 288 892 q 231 901 258 892 q 169 926 205 910 q 114 949 135 942 q 72 956 93 956 q 5 942 35 956 q -56 897 -26 928 l -56 1036 q 1 1076 -30 1063 q 74 1089 33 1089 q 131 1080 104 1089 q 193 1055 157 1072 q 249 1033 228 1040 q 290 1026 269 1026 q 358 1040 328 1026 q 418 1085 388 1053 l 418 946 q 360 905 392 918 q 288 892 329 892 z "},"j":{"ha":363,"x_min":-31,"x_max":313,"o":"m -31 -235 q 51 -71 28 -151 q 75 122 75 9 l 75 760 l 288 760 l 288 132 q 247 -111 288 -3 q 108 -327 206 -219 l -31 -235 m 181 871 q 82 901 115 871 q 49 987 49 931 q 82 1073 49 1043 q 181 1103 115 1103 q 280 1073 247 1103 q 313 987 313 1042 q 280 901 313 931 q 181 871 247 871 z "},"ȷ":{"ha":363,"x_min":-31,"x_max":288,"o":"m -31 -235 q 51 -71 28 -151 q 75 122 75 9 l 75 760 l 288 760 l 288 132 q 247 -111 288 -3 q 108 -327 206 -219 l -31 -235 z "},"ĵ":{"ha":363,"x_min":-55,"x_max":415,"o":"m -31 -235 q 51 -71 28 -151 q 75 122 75 9 l 75 760 l 288 760 l 288 132 q 247 -111 288 -3 q 108 -327 206 -219 l -31 -235 m 415 857 l 267 857 l 181 1026 l 93 857 l -55 857 l 91 1124 l 270 1124 l 415 857 z "},"k":{"ha":760,"x_min":75,"x_max":785,"o":"m 554 0 l 358 306 l 288 306 l 288 0 l 75 0 l 75 1122 l 288 1122 l 288 474 l 357 474 l 535 760 l 760 760 l 535 394 l 785 0 l 554 0 z "},"ķ":{"ha":760,"x_min":75,"x_max":785,"o":"m 554 0 l 358 306 l 288 306 l 288 0 l 75 0 l 75 1122 l 288 1122 l 288 474 l 357 474 l 535 760 l 760 760 l 535 394 l 785 0 l 554 0 m 406 -88 q 526 -192 526 -88 q 511 -271 526 -228 q 473 -345 496 -314 l 340 -345 q 378 -244 370 -284 q 310 -219 332 -240 q 288 -166 288 -199 q 317 -109 288 -129 q 406 -88 346 -88 z "},"ĸ":{"ha":760,"x_min":75,"x_max":785,"o":"m 554 0 l 358 306 l 288 306 l 288 0 l 75 0 l 75 760 l 288 760 l 288 474 l 357 474 l 535 760 l 760 760 l 535 394 l 785 0 l 554 0 z "},"l":{"ha":363,"x_min":75,"x_max":288,"o":"m 75 0 l 75 1122 l 288 1122 l 288 0 l 75 0 z "},"ĺ":{"ha":363,"x_min":75,"x_max":426,"o":"m 75 0 l 75 1122 l 288 1122 l 288 0 l 75 0 m 85 1174 l 203 1385 l 426 1385 l 276 1174 l 85 1174 z "},"ľ":{"ha":363,"x_min":75,"x_max":496,"o":"m 75 0 l 75 1122 l 288 1122 l 288 0 l 75 0 m 332 819 q 348 967 343 894 q 352 1122 352 1039 l 496 1122 q 484 960 496 1039 q 449 819 472 881 l 332 819 z "},"ļ":{"ha":363,"x_min":62,"x_max":300,"o":"m 75 0 l 75 1122 l 288 1122 l 288 0 l 75 0 m 180 -88 q 300 -192 300 -88 q 285 -271 300 -228 q 247 -345 270 -314 l 114 -345 q 152 -244 144 -284 q 84 -219 106 -240 q 62 -166 62 -199 q 91 -109 62 -129 q 180 -88 120 -88 z "},"ŀ":{"ha":576,"x_min":75,"x_max":599,"o":"m 75 0 l 75 1122 l 288 1122 l 288 0 l 75 0 m 467 435 q 367 465 400 435 q 335 551 335 494 q 368 637 335 607 q 467 667 401 667 q 566 637 533 667 q 599 551 599 607 q 566 465 599 495 q 467 435 533 435 z "},"ḷ":{"ha":363,"x_min":65,"x_max":297,"o":"m 75 0 l 75 1122 l 288 1122 l 288 0 l 75 0 m 181 -310 q 96 -280 127 -310 q 65 -199 65 -251 q 96 -118 65 -148 q 181 -88 127 -88 q 266 -118 235 -88 q 297 -199 297 -148 q 266 -280 297 -251 q 181 -310 235 -310 z "},"ǉ":{"ha":726,"x_min":75,"x_max":676,"o":"m 75 0 l 75 1122 l 288 1122 l 288 0 l 75 0 m 331 -235 q 414 -71 390 -151 q 438 122 438 9 l 438 760 l 651 760 l 651 132 q 609 -111 651 -3 q 471 -327 568 -219 l 331 -235 m 544 871 q 444 901 477 871 q 411 987 411 931 q 444 1073 411 1043 q 544 1103 477 1103 q 643 1073 610 1103 q 676 987 676 1042 q 643 901 676 931 q 544 871 610 871 z "},"ḻ":{"ha":363,"x_min":-50,"x_max":412,"o":"m 75 0 l 75 1122 l 288 1122 l 288 0 l 75 0 m -50 -264 l -50 -131 l 412 -131 l 412 -264 l -50 -264 z "},"ł":{"ha":363,"x_min":-44,"x_max":407,"o":"m 407 542 l 288 476 l 288 0 l 75 0 l 75 360 l 19 329 l -44 450 l 75 515 l 75 1122 l 288 1122 l 288 632 l 344 663 l 407 542 z "},"m":{"ha":1171,"x_min":75,"x_max":1101,"o":"m 868 772 q 1038 705 975 772 q 1101 488 1101 637 l 1101 0 l 888 0 l 888 476 q 865 560 888 535 q 799 585 841 585 q 742 573 771 585 q 692 538 714 561 q 694 499 694 513 l 694 0 l 485 0 l 485 476 q 463 560 485 535 q 399 585 441 585 q 338 570 368 585 q 288 527 307 556 l 288 0 l 75 0 l 75 760 l 251 760 l 267 680 l 276 680 q 477 772 353 772 q 582 748 536 772 q 657 674 628 724 q 753 748 699 724 q 868 772 808 772 z "},"ṃ":{"ha":1171,"x_min":75,"x_max":1101,"o":"m 868 772 q 1038 705 975 772 q 1101 488 1101 637 l 1101 0 l 888 0 l 888 476 q 865 560 888 535 q 799 585 841 585 q 742 573 771 585 q 692 538 714 561 q 694 499 694 513 l 694 0 l 485 0 l 485 476 q 463 560 485 535 q 399 585 441 585 q 338 570 368 585 q 288 527 307 556 l 288 0 l 75 0 l 75 760 l 251 760 l 267 680 l 276 680 q 477 772 353 772 q 582 748 536 772 q 657 674 628 724 q 753 748 699 724 q 868 772 808 772 m 590 -310 q 504 -280 535 -310 q 473 -199 473 -251 q 504 -118 473 -148 q 590 -88 535 -88 q 674 -118 643 -88 q 706 -199 706 -148 q 674 -280 706 -251 q 590 -310 643 -310 z "},"n":{"ha":788,"x_min":75,"x_max":719,"o":"m 75 760 l 251 760 l 267 681 l 276 681 q 368 749 315 726 q 483 772 420 772 q 655 705 592 772 q 719 490 719 637 l 719 0 l 506 0 l 506 475 q 482 560 506 535 q 410 585 457 585 q 342 570 376 585 q 288 528 309 556 l 288 0 l 75 0 l 75 760 z "},"ń":{"ha":788,"x_min":75,"x_max":719,"o":"m 75 760 l 251 760 l 267 681 l 276 681 q 368 749 315 726 q 483 772 420 772 q 655 705 592 772 q 719 490 719 637 l 719 0 l 506 0 l 506 475 q 482 560 506 535 q 410 585 457 585 q 342 570 376 585 q 288 528 309 556 l 288 0 l 75 0 l 75 760 m 303 856 l 450 1122 l 669 1122 l 492 856 l 303 856 z "},"ŉ":{"ha":788,"x_min":8,"x_max":719,"o":"m 75 760 l 251 760 l 267 681 l 276 681 q 368 749 315 726 q 483 772 420 772 q 655 705 592 772 q 719 490 719 637 l 719 0 l 506 0 l 506 475 q 482 560 506 535 q 410 585 457 585 q 342 570 376 585 q 288 528 309 556 l 288 0 l 75 0 l 75 760 m 126 1128 q 246 1024 246 1128 q 231 945 246 988 q 193 871 216 902 l 60 871 q 98 972 90 933 q 30 997 52 977 q 8 1050 8 1017 q 37 1108 8 1088 q 126 1128 66 1128 z "},"ň":{"ha":788,"x_min":75,"x_max":719,"o":"m 75 760 l 251 760 l 267 681 l 276 681 q 368 749 315 726 q 483 772 420 772 q 655 705 592 772 q 719 490 719 637 l 719 0 l 506 0 l 506 475 q 482 560 506 535 q 410 585 457 585 q 342 570 376 585 q 288 528 309 556 l 288 0 l 75 0 l 75 760 m 485 1122 l 633 1122 l 487 856 l 308 856 l 161 1122 l 309 1122 l 397 953 l 485 1122 z "},"ņ":{"ha":788,"x_min":75,"x_max":719,"o":"m 75 760 l 251 760 l 267 681 l 276 681 q 368 749 315 726 q 483 772 420 772 q 655 705 592 772 q 719 490 719 637 l 719 0 l 506 0 l 506 475 q 482 560 506 535 q 410 585 457 585 q 342 570 376 585 q 288 528 309 556 l 288 0 l 75 0 l 75 760 m 396 -88 q 516 -192 516 -88 q 501 -271 516 -228 q 463 -345 486 -314 l 330 -345 q 368 -244 360 -284 q 300 -219 322 -240 q 278 -166 278 -199 q 307 -109 278 -129 q 396 -88 336 -88 z "},"ṅ":{"ha":788,"x_min":75,"x_max":719,"o":"m 75 760 l 251 760 l 267 681 l 276 681 q 368 749 315 726 q 483 772 420 772 q 655 705 592 772 q 719 490 719 637 l 719 0 l 506 0 l 506 475 q 482 560 506 535 q 410 585 457 585 q 342 570 376 585 q 288 528 309 556 l 288 0 l 75 0 l 75 760 m 397 869 q 298 900 331 869 q 265 985 265 930 q 298 1072 265 1042 q 397 1102 331 1102 q 496 1072 463 1102 q 529 985 529 1041 q 496 900 529 930 q 397 869 463 869 z "},"ṇ":{"ha":788,"x_min":75,"x_max":719,"o":"m 75 760 l 251 760 l 267 681 l 276 681 q 368 749 315 726 q 483 772 420 772 q 655 705 592 772 q 719 490 719 637 l 719 0 l 506 0 l 506 475 q 482 560 506 535 q 410 585 457 585 q 342 570 376 585 q 288 528 309 556 l 288 0 l 75 0 l 75 760 m 397 -310 q 312 -280 343 -310 q 281 -199 281 -251 q 312 -118 281 -148 q 397 -88 343 -88 q 482 -118 451 -88 q 513 -199 513 -148 q 482 -280 513 -251 q 397 -310 451 -310 z "},"ŋ":{"ha":788,"x_min":75,"x_max":719,"o":"m 399 -235 q 483 -71 459 -151 q 506 122 506 9 l 506 477 q 482 563 506 538 q 410 589 457 589 q 343 574 376 589 q 288 532 309 560 l 288 0 l 75 0 l 75 760 l 251 760 l 267 681 l 276 681 q 483 772 358 772 q 655 705 592 772 q 719 490 719 638 l 719 124 q 677 -114 717 -8 q 540 -327 636 -219 l 399 -235 z "},"ǌ":{"ha":1151,"x_min":75,"x_max":1101,"o":"m 75 760 l 251 760 l 267 681 l 276 681 q 368 749 315 726 q 483 772 420 772 q 655 705 592 772 q 719 490 719 637 l 719 0 l 506 0 l 506 475 q 482 560 506 535 q 410 585 457 585 q 342 570 376 585 q 288 528 309 556 l 288 0 l 75 0 l 75 760 m 757 -235 q 840 -71 816 -151 q 863 122 863 9 l 863 760 l 1076 760 l 1076 132 q 1035 -111 1076 -3 q 897 -327 994 -219 l 757 -235 m 969 871 q 870 901 903 871 q 837 987 837 931 q 870 1073 837 1043 q 969 1103 903 1103 q 1068 1073 1035 1103 q 1101 987 1101 1042 q 1068 901 1101 931 q 969 871 1035 871 z "},"ṉ":{"ha":788,"x_min":75,"x_max":719,"o":"m 75 760 l 251 760 l 267 681 l 276 681 q 368 749 315 726 q 483 772 420 772 q 655 705 592 772 q 719 490 719 637 l 719 0 l 506 0 l 506 475 q 482 560 506 535 q 410 585 457 585 q 342 570 376 585 q 288 528 309 556 l 288 0 l 75 0 l 75 760 m 166 -264 l 166 -131 l 628 -131 l 628 -264 l 166 -264 z "},"ñ":{"ha":788,"x_min":75,"x_max":719,"o":"m 75 760 l 251 760 l 267 681 l 276 681 q 368 749 315 726 q 483 772 420 772 q 655 705 592 772 q 719 490 719 637 l 719 0 l 506 0 l 506 475 q 482 560 506 535 q 410 585 457 585 q 342 570 376 585 q 288 528 309 556 l 288 0 l 75 0 l 75 760 m 503 892 q 447 901 474 892 q 385 926 421 910 q 330 949 351 942 q 288 956 309 956 q 220 942 251 956 q 160 897 190 928 l 160 1036 q 217 1076 186 1063 q 290 1089 249 1089 q 347 1080 320 1089 q 409 1055 373 1072 q 465 1033 444 1040 q 506 1026 485 1026 q 574 1040 544 1026 q 634 1085 603 1053 l 634 946 q 576 905 608 918 q 503 892 545 892 z "},"o":{"ha":771,"x_min":43,"x_max":728,"o":"m 385 -15 q 132 83 221 -15 q 43 376 43 180 q 132 674 43 576 q 385 772 220 772 q 639 673 550 772 q 728 378 728 574 q 639 83 728 181 q 385 -15 550 -15 m 385 146 q 456 166 428 146 q 497 236 483 186 q 512 376 512 287 q 497 519 512 468 q 455 591 483 571 q 385 612 428 612 q 316 591 343 612 q 274 520 288 571 q 259 379 259 469 q 274 237 259 288 q 315 166 288 186 q 385 146 342 146 z "},"ó":{"ha":771,"x_min":43,"x_max":728,"o":"m 385 -15 q 132 83 221 -15 q 43 376 43 180 q 132 674 43 576 q 385 772 220 772 q 639 673 550 772 q 728 378 728 574 q 639 83 728 181 q 385 -15 550 -15 m 385 146 q 456 166 428 146 q 497 236 483 186 q 512 376 512 287 q 497 519 512 468 q 455 591 483 571 q 385 612 428 612 q 316 591 343 612 q 274 520 288 571 q 259 379 259 469 q 274 237 259 288 q 315 166 288 186 q 385 146 342 146 m 291 856 l 438 1122 l 657 1122 l 480 856 l 291 856 z "},"ŏ":{"ha":771,"x_min":43,"x_max":728,"o":"m 385 -15 q 132 83 221 -15 q 43 376 43 180 q 132 674 43 576 q 385 772 220 772 q 639 673 550 772 q 728 378 728 574 q 639 83 728 181 q 385 -15 550 -15 m 385 146 q 456 166 428 146 q 497 236 483 186 q 512 376 512 287 q 497 519 512 468 q 455 591 483 571 q 385 612 428 612 q 316 591 343 612 q 274 520 288 571 q 259 379 259 469 q 274 237 259 288 q 315 166 288 186 q 385 146 342 146 m 385 863 q 217 924 279 863 q 149 1107 156 985 l 279 1107 q 310 1007 283 1039 q 385 974 336 974 q 461 1007 435 974 q 491 1107 488 1039 l 622 1107 q 553 924 615 985 q 385 863 492 863 z "},"ô":{"ha":771,"x_min":43,"x_max":728,"o":"m 385 -15 q 132 83 221 -15 q 43 376 43 180 q 132 674 43 576 q 385 772 220 772 q 639 673 550 772 q 728 378 728 574 q 639 83 728 181 q 385 -15 550 -15 m 385 146 q 456 166 428 146 q 497 236 483 186 q 512 376 512 287 q 497 519 512 468 q 455 591 483 571 q 385 612 428 612 q 316 591 343 612 q 274 520 288 571 q 259 379 259 469 q 274 237 259 288 q 315 166 288 186 q 385 146 342 146 m 620 856 l 472 856 l 385 1024 l 298 856 l 150 856 l 296 1122 l 475 1122 l 620 856 z "},"ố":{"ha":771,"x_min":43,"x_max":837,"o":"m 385 -15 q 132 83 221 -15 q 43 376 43 180 q 132 674 43 576 q 385 772 220 772 q 639 673 550 772 q 728 378 728 574 q 639 83 728 181 q 385 -15 550 -15 m 385 146 q 456 166 428 146 q 497 236 483 186 q 512 376 512 287 q 497 519 512 468 q 455 591 483 571 q 385 612 428 612 q 316 591 343 612 q 274 520 288 571 q 259 379 259 469 q 274 237 259 288 q 315 166 288 186 q 385 146 342 146 m 658 1297 l 837 1297 l 688 1109 l 540 1109 l 658 1297 m 296 1122 l 475 1122 l 620 856 l 472 856 l 385 1024 l 298 856 l 150 856 l 296 1122 z "},"ộ":{"ha":771,"x_min":43,"x_max":728,"o":"m 385 -15 q 132 83 221 -15 q 43 376 43 180 q 132 674 43 576 q 385 772 220 772 q 639 673 550 772 q 728 378 728 574 q 639 83 728 181 q 385 -15 550 -15 m 385 146 q 456 166 428 146 q 497 236 483 186 q 512 376 512 287 q 497 519 512 468 q 455 591 483 571 q 385 612 428 612 q 316 591 343 612 q 274 520 288 571 q 259 379 259 469 q 274 237 259 288 q 315 166 288 186 q 385 146 342 146 m 385 -310 q 300 -280 331 -310 q 269 -199 269 -251 q 300 -118 269 -148 q 385 -88 331 -88 q 470 -118 439 -88 q 501 -199 501 -148 q 470 -280 501 -251 q 385 -310 439 -310 m 620 856 l 472 856 l 385 1024 l 298 856 l 150 856 l 296 1122 l 475 1122 l 620 856 z "},"ồ":{"ha":771,"x_min":43,"x_max":728,"o":"m 385 -15 q 132 83 221 -15 q 43 376 43 180 q 132 674 43 576 q 385 772 220 772 q 639 673 550 772 q 728 378 728 574 q 639 83 728 181 q 385 -15 550 -15 m 385 146 q 456 166 428 146 q 497 236 483 186 q 512 376 512 287 q 497 519 512 468 q 455 591 483 571 q 385 612 428 612 q 316 591 343 612 q 274 520 288 571 q 259 379 259 469 q 274 237 259 288 q 315 166 288 186 q 385 146 342 146 m 710 1109 l 563 1109 l 413 1297 l 592 1297 l 710 1109 m 296 1122 l 475 1122 l 620 856 l 472 856 l 385 1024 l 298 856 l 150 856 l 296 1122 z "},"ổ":{"ha":771,"x_min":43,"x_max":758,"o":"m 385 -15 q 132 83 221 -15 q 43 376 43 180 q 132 674 43 576 q 385 772 220 772 q 639 673 550 772 q 728 378 728 574 q 639 83 728 181 q 385 -15 550 -15 m 385 146 q 456 166 428 146 q 497 236 483 186 q 512 376 512 287 q 497 519 512 468 q 455 591 483 571 q 385 612 428 612 q 316 591 343 612 q 274 520 288 571 q 259 379 259 469 q 274 237 259 288 q 315 166 288 186 q 385 146 342 146 m 590 1310 q 718 1290 677 1310 q 758 1226 758 1269 q 744 1190 758 1203 q 699 1161 729 1176 q 660 1138 674 1149 q 644 1109 647 1126 l 538 1109 q 550 1144 539 1130 q 575 1168 561 1159 q 610 1186 588 1176 q 636 1199 628 1194 q 644 1213 644 1205 q 627 1231 644 1225 q 574 1237 611 1237 q 448 1222 505 1237 l 448 1293 q 515 1306 474 1301 q 590 1310 555 1310 m 296 1122 l 475 1122 l 620 856 l 472 856 l 385 1024 l 298 856 l 150 856 l 296 1122 z "},"ỗ":{"ha":771,"x_min":43,"x_max":728,"o":"m 385 -15 q 132 83 221 -15 q 43 376 43 180 q 132 674 43 576 q 385 772 220 772 q 639 673 550 772 q 728 378 728 574 q 639 83 728 181 q 385 -15 550 -15 m 385 146 q 456 166 428 146 q 497 236 483 186 q 512 376 512 287 q 497 519 512 468 q 455 591 483 571 q 385 612 428 612 q 316 591 343 612 q 274 520 288 571 q 259 379 259 469 q 274 237 259 288 q 315 166 288 186 q 385 146 342 146 m 501 1236 q 571 1247 540 1236 q 633 1282 602 1258 l 633 1168 q 575 1135 608 1145 q 498 1124 543 1124 q 439 1131 467 1124 q 373 1150 412 1138 q 316 1167 339 1162 q 269 1173 293 1173 q 200 1162 231 1173 q 137 1127 169 1151 l 137 1240 q 195 1274 163 1263 q 272 1285 228 1285 q 332 1279 303 1285 q 397 1259 360 1272 q 454 1242 431 1247 q 501 1236 477 1236 m 294 1083 l 476 1083 l 626 857 l 475 857 l 385 1003 l 295 857 l 144 857 l 294 1083 z "},"ȍ":{"ha":771,"x_min":43,"x_max":728,"o":"m 385 -15 q 132 83 221 -15 q 43 376 43 180 q 132 674 43 576 q 385 772 220 772 q 639 673 550 772 q 728 378 728 574 q 639 83 728 181 q 385 -15 550 -15 m 385 146 q 456 166 428 146 q 497 236 483 186 q 512 376 512 287 q 497 519 512 468 q 455 591 483 571 q 385 612 428 612 q 316 591 343 612 q 274 520 288 571 q 259 379 259 469 q 274 237 259 288 q 315 166 288 186 q 385 146 342 146 m 167 856 l 59 1122 l 231 1122 l 328 856 l 167 856 m 442 856 l 335 1122 l 507 1122 l 604 856 l 442 856 z "},"ö":{"ha":771,"x_min":43,"x_max":728,"o":"m 385 -15 q 132 83 221 -15 q 43 376 43 180 q 132 674 43 576 q 385 772 220 772 q 639 673 550 772 q 728 378 728 574 q 639 83 728 181 q 385 -15 550 -15 m 385 146 q 456 166 428 146 q 497 236 483 186 q 512 376 512 287 q 497 519 512 468 q 455 591 483 571 q 385 612 428 612 q 316 591 343 612 q 274 520 288 571 q 259 379 259 469 q 274 237 259 288 q 315 166 288 186 q 385 146 342 146 m 222 874 q 137 903 168 874 q 106 985 106 933 q 137 1068 106 1038 q 222 1098 168 1098 q 308 1068 276 1098 q 339 985 339 1038 q 308 903 339 933 q 222 874 276 874 m 548 874 q 463 903 494 874 q 431 985 431 933 q 463 1068 431 1038 q 548 1098 494 1098 q 633 1068 602 1098 q 665 985 665 1038 q 633 903 665 933 q 548 874 602 874 z "},"ȫ":{"ha":771,"x_min":43,"x_max":728,"o":"m 385 -15 q 132 83 221 -15 q 43 376 43 180 q 132 674 43 576 q 385 772 220 772 q 639 673 550 772 q 728 378 728 574 q 639 83 728 181 q 385 -15 550 -15 m 385 146 q 456 166 428 146 q 497 236 483 186 q 512 376 512 287 q 497 519 512 468 q 455 591 483 571 q 385 612 428 612 q 316 591 343 612 q 274 520 288 571 q 259 379 259 469 q 274 237 259 288 q 315 166 288 186 q 385 146 342 146 m 222 874 q 137 903 168 874 q 106 985 106 933 q 137 1068 106 1038 q 222 1098 168 1098 q 308 1068 276 1098 q 339 985 339 1038 q 308 903 339 933 q 222 874 276 874 m 548 874 q 463 903 494 874 q 431 985 431 933 q 463 1068 431 1038 q 548 1098 494 1098 q 633 1068 602 1098 q 665 985 665 1038 q 633 903 665 933 q 548 874 602 874 m 148 1178 l 148 1313 l 622 1313 l 622 1178 l 148 1178 z "},"ȱ":{"ha":771,"x_min":43,"x_max":728,"o":"m 385 -15 q 132 83 221 -15 q 43 376 43 180 q 132 674 43 576 q 385 772 220 772 q 639 673 550 772 q 728 378 728 574 q 639 83 728 181 q 385 -15 550 -15 m 385 146 q 456 166 428 146 q 497 236 483 186 q 512 376 512 287 q 497 519 512 468 q 455 591 483 571 q 385 612 428 612 q 316 591 343 612 q 274 520 288 571 q 259 379 259 469 q 274 237 259 288 q 315 166 288 186 q 385 146 342 146 m 385 869 q 286 900 319 869 q 253 985 253 930 q 286 1072 253 1042 q 385 1102 319 1102 q 484 1072 451 1102 q 517 985 517 1041 q 484 900 517 930 q 385 869 451 869 m 148 1180 l 148 1315 l 622 1315 l 622 1180 l 148 1180 z "},"ọ":{"ha":771,"x_min":43,"x_max":728,"o":"m 385 -15 q 132 83 221 -15 q 43 376 43 180 q 132 674 43 576 q 385 772 220 772 q 639 673 550 772 q 728 378 728 574 q 639 83 728 181 q 385 -15 550 -15 m 385 146 q 456 166 428 146 q 497 236 483 186 q 512 376 512 287 q 497 519 512 468 q 455 591 483 571 q 385 612 428 612 q 316 591 343 612 q 274 520 288 571 q 259 379 259 469 q 274 237 259 288 q 315 166 288 186 q 385 146 342 146 m 385 -310 q 300 -280 331 -310 q 269 -199 269 -251 q 300 -118 269 -148 q 385 -88 331 -88 q 470 -118 439 -88 q 501 -199 501 -148 q 470 -280 501 -251 q 385 -310 439 -310 z "},"ò":{"ha":771,"x_min":43,"x_max":728,"o":"m 385 -15 q 132 83 221 -15 q 43 376 43 180 q 132 674 43 576 q 385 772 220 772 q 639 673 550 772 q 728 378 728 574 q 639 83 728 181 q 385 -15 550 -15 m 385 146 q 456 166 428 146 q 497 236 483 186 q 512 376 512 287 q 497 519 512 468 q 455 591 483 571 q 385 612 428 612 q 316 591 343 612 q 274 520 288 571 q 259 379 259 469 q 274 237 259 288 q 315 166 288 186 q 385 146 342 146 m 291 856 l 113 1122 l 332 1122 l 480 856 l 291 856 z "},"ỏ":{"ha":771,"x_min":43,"x_max":728,"o":"m 385 -15 q 132 83 221 -15 q 43 376 43 180 q 132 674 43 576 q 385 772 220 772 q 639 673 550 772 q 728 378 728 574 q 639 83 728 181 q 385 -15 550 -15 m 385 146 q 456 166 428 146 q 497 236 483 186 q 512 376 512 287 q 497 519 512 468 q 455 591 483 571 q 385 612 428 612 q 316 591 343 612 q 274 520 288 571 q 259 379 259 469 q 274 237 259 288 q 315 166 288 186 q 385 146 342 146 m 331 856 q 350 918 333 895 q 395 965 367 942 q 421 988 413 978 q 429 1010 429 997 q 365 1044 429 1044 q 256 1028 310 1044 l 256 1113 q 316 1126 281 1121 q 382 1131 351 1131 q 505 1104 465 1131 q 545 1024 545 1078 q 531 969 545 990 q 489 928 517 949 q 453 894 465 909 q 439 856 441 879 l 331 856 z "},"ơ":{"ha":771,"x_min":43,"x_max":757,"o":"m 757 863 q 725 742 757 788 q 635 676 693 695 q 728 378 728 578 q 639 83 728 181 q 385 -15 550 -15 q 132 83 221 -15 q 43 376 43 180 q 132 674 43 576 q 387 772 220 772 q 460 768 418 772 q 501 765 492 765 q 587 791 558 765 q 617 874 617 816 q 604 969 617 919 l 742 969 q 757 863 757 923 m 385 146 q 456 166 428 146 q 497 236 483 186 q 512 376 512 287 q 497 519 512 468 q 455 591 483 571 q 385 612 428 612 q 316 591 343 612 q 274 520 288 571 q 259 379 259 469 q 274 237 259 288 q 315 166 288 186 q 385 146 342 146 z "},"ớ":{"ha":771,"x_min":43,"x_max":757,"o":"m 624 1122 l 463 856 l 290 856 l 425 1122 l 624 1122 m 757 863 q 725 742 757 788 q 635 676 693 695 q 728 378 728 578 q 639 83 728 181 q 385 -15 550 -15 q 132 83 221 -15 q 43 376 43 180 q 132 674 43 576 q 387 772 220 772 q 460 768 418 772 q 501 765 492 765 q 587 791 558 765 q 617 874 617 816 q 604 969 617 919 l 742 969 q 757 863 757 923 m 385 146 q 456 166 428 146 q 497 236 483 186 q 512 376 512 287 q 497 519 512 468 q 455 591 483 571 q 385 612 428 612 q 316 591 343 612 q 274 520 288 571 q 259 379 259 469 q 274 237 259 288 q 315 166 288 186 q 385 146 342 146 z "},"ợ":{"ha":771,"x_min":43,"x_max":757,"o":"m 757 863 q 725 742 757 788 q 635 676 693 695 q 728 378 728 578 q 639 83 728 181 q 385 -15 550 -15 q 132 83 221 -15 q 43 376 43 180 q 132 674 43 576 q 387 772 220 772 q 460 768 418 772 q 501 765 492 765 q 587 791 558 765 q 617 874 617 816 q 604 969 617 919 l 742 969 q 757 863 757 923 m 385 146 q 456 166 428 146 q 497 236 483 186 q 512 376 512 287 q 497 519 512 468 q 455 591 483 571 q 385 612 428 612 q 316 591 343 612 q 274 520 288 571 q 259 379 259 469 q 274 237 259 288 q 315 166 288 186 q 385 146 342 146 m 385 -310 q 299 -280 331 -310 q 268 -199 268 -251 q 299 -118 268 -148 q 385 -88 331 -88 q 469 -118 438 -88 q 501 -199 501 -148 q 469 -280 501 -251 q 385 -310 438 -310 z "},"ờ":{"ha":771,"x_min":43,"x_max":757,"o":"m 757 863 q 725 742 757 788 q 635 676 693 695 q 728 378 728 578 q 639 83 728 181 q 385 -15 550 -15 q 132 83 221 -15 q 43 376 43 180 q 132 674 43 576 q 387 772 220 772 q 460 768 418 772 q 501 765 492 765 q 587 791 558 765 q 617 874 617 816 q 604 969 617 919 l 742 969 q 757 863 757 923 m 385 146 q 456 166 428 146 q 497 236 483 186 q 512 376 512 287 q 497 519 512 468 q 455 591 483 571 q 385 612 428 612 q 316 591 343 612 q 274 520 288 571 q 259 379 259 469 q 274 237 259 288 q 315 166 288 186 q 385 146 342 146 m 282 856 l 104 1122 l 323 1122 l 471 856 l 282 856 z "},"ở":{"ha":771,"x_min":43,"x_max":757,"o":"m 757 863 q 725 742 757 788 q 635 676 693 695 q 728 378 728 578 q 639 83 728 181 q 385 -15 550 -15 q 132 83 221 -15 q 43 376 43 180 q 132 674 43 576 q 387 772 220 772 q 460 768 418 772 q 501 765 492 765 q 587 791 558 765 q 617 874 617 816 q 604 969 617 919 l 742 969 q 757 863 757 923 m 385 146 q 456 166 428 146 q 497 236 483 186 q 512 376 512 287 q 497 519 512 468 q 455 591 483 571 q 385 612 428 612 q 316 591 343 612 q 274 520 288 571 q 259 379 259 469 q 274 237 259 288 q 315 166 288 186 q 385 146 342 146 m 322 856 q 341 918 324 895 q 386 965 358 942 q 412 988 404 978 q 420 1010 420 997 q 356 1044 420 1044 q 247 1028 301 1044 l 247 1113 q 307 1126 272 1121 q 373 1131 342 1131 q 496 1104 456 1131 q 536 1024 536 1078 q 522 969 536 990 q 480 928 508 949 q 444 894 456 909 q 430 856 432 879 l 322 856 z "},"ỡ":{"ha":771,"x_min":43,"x_max":757,"o":"m 458 892 q 405 901 428 892 q 349 926 381 910 q 301 949 320 942 q 260 956 282 956 q 200 942 229 956 q 141 897 172 928 l 141 1036 q 263 1089 192 1089 q 316 1080 292 1089 q 372 1055 340 1072 q 420 1033 402 1040 q 460 1026 439 1026 q 521 1040 492 1026 q 579 1085 550 1054 l 579 946 q 458 892 530 892 m 757 863 q 725 742 757 788 q 635 676 693 695 q 728 378 728 578 q 639 83 728 181 q 385 -15 550 -15 q 132 83 221 -15 q 43 376 43 180 q 132 674 43 576 q 387 772 220 772 q 460 768 418 772 q 501 765 492 765 q 587 791 558 765 q 617 874 617 816 q 604 969 617 919 l 742 969 q 757 863 757 923 m 385 146 q 456 166 428 146 q 497 236 483 186 q 512 376 512 287 q 497 519 512 468 q 455 591 483 571 q 385 612 428 612 q 316 591 343 612 q 274 520 288 571 q 259 379 259 469 q 274 237 259 288 q 315 166 288 186 q 385 146 342 146 z "},"ő":{"ha":771,"x_min":43,"x_max":728,"o":"m 385 -15 q 132 83 221 -15 q 43 376 43 180 q 132 674 43 576 q 385 772 220 772 q 639 673 550 772 q 728 378 728 574 q 639 83 728 181 q 385 -15 550 -15 m 385 146 q 456 166 428 146 q 497 236 483 186 q 512 376 512 287 q 497 519 512 468 q 455 591 483 571 q 385 612 428 612 q 316 591 343 612 q 274 520 288 571 q 259 379 259 469 q 274 237 259 288 q 315 166 288 186 q 385 146 342 146 m 167 856 l 264 1122 l 435 1122 l 328 856 l 167 856 m 442 856 l 539 1122 l 710 1122 l 603 856 l 442 856 z "},"ȏ":{"ha":771,"x_min":43,"x_max":728,"o":"m 385 -15 q 132 83 221 -15 q 43 376 43 180 q 132 674 43 576 q 385 772 220 772 q 639 673 550 772 q 728 378 728 574 q 639 83 728 181 q 385 -15 550 -15 m 385 146 q 456 166 428 146 q 497 236 483 186 q 512 376 512 287 q 497 519 512 468 q 455 591 483 571 q 385 612 428 612 q 316 591 343 612 q 274 520 288 571 q 259 379 259 469 q 274 237 259 288 q 315 166 288 186 q 385 146 342 146 m 149 875 q 216 1058 156 997 q 385 1119 277 1119 q 553 1058 490 1119 q 622 875 615 997 l 491 875 q 460 977 487 944 q 385 1010 433 1010 q 308 977 334 1010 q 279 875 283 945 l 149 875 z "},"ō":{"ha":771,"x_min":43,"x_max":728,"o":"m 385 -15 q 132 83 221 -15 q 43 376 43 180 q 132 674 43 576 q 385 772 220 772 q 639 673 550 772 q 728 378 728 574 q 639 83 728 181 q 385 -15 550 -15 m 385 146 q 456 166 428 146 q 497 236 483 186 q 512 376 512 287 q 497 519 512 468 q 455 591 483 571 q 385 612 428 612 q 316 591 343 612 q 274 520 288 571 q 259 379 259 469 q 274 237 259 288 q 315 166 288 186 q 385 146 342 146 m 148 919 l 148 1053 l 622 1053 l 622 919 l 148 919 z "},"ṓ":{"ha":771,"x_min":43,"x_max":728,"o":"m 385 -15 q 132 83 221 -15 q 43 376 43 180 q 132 674 43 576 q 385 772 220 772 q 639 673 550 772 q 728 378 728 574 q 639 83 728 181 q 385 -15 550 -15 m 385 146 q 456 166 428 146 q 497 236 483 186 q 512 376 512 287 q 497 519 512 468 q 455 591 483 571 q 385 612 428 612 q 316 591 343 612 q 274 520 288 571 q 259 379 259 469 q 274 237 259 288 q 315 166 288 186 q 385 146 342 146 m 148 919 l 148 1053 l 622 1053 l 622 919 l 148 919 m 290 1151 l 407 1362 l 630 1362 l 480 1151 l 290 1151 z "},"ṑ":{"ha":771,"x_min":43,"x_max":728,"o":"m 385 -15 q 132 83 221 -15 q 43 376 43 180 q 132 674 43 576 q 385 772 220 772 q 639 673 550 772 q 728 378 728 574 q 639 83 728 181 q 385 -15 550 -15 m 385 146 q 456 166 428 146 q 497 236 483 186 q 512 376 512 287 q 497 519 512 468 q 455 591 483 571 q 385 612 428 612 q 316 591 343 612 q 274 520 288 571 q 259 379 259 469 q 274 237 259 288 q 315 166 288 186 q 385 146 342 146 m 148 919 l 148 1053 l 622 1053 l 622 919 l 148 919 m 290 1151 l 140 1362 l 363 1362 l 481 1151 l 290 1151 z "},"ǫ":{"ha":771,"x_min":43,"x_max":728,"o":"m 527 8 q 402 -65 436 -27 q 368 -148 368 -103 q 389 -200 368 -181 q 449 -219 410 -219 q 533 -200 489 -219 l 537 -285 q 422 -308 482 -308 q 291 -269 337 -308 q 246 -164 246 -231 q 266 -80 246 -117 q 332 -12 287 -42 q 118 100 192 3 q 43 376 43 197 q 132 674 43 576 q 385 772 220 772 q 639 673 550 772 q 728 378 728 574 q 677 137 728 228 q 527 8 626 46 m 259 379 q 274 237 259 288 q 315 166 288 186 q 385 146 342 146 q 456 166 428 146 q 497 236 483 186 q 512 376 512 287 q 497 519 512 468 q 455 591 483 571 q 385 612 428 612 q 316 591 343 612 q 274 520 288 571 q 259 379 259 469 z "},"ø":{"ha":771,"x_min":43,"x_max":728,"o":"m 647 664 q 728 378 728 563 q 639 83 728 181 q 385 -15 550 -15 q 208 24 282 -15 l 166 -37 l 73 28 l 120 97 q 43 376 43 196 q 132 674 43 576 q 385 772 220 772 q 558 735 485 772 l 601 797 l 694 731 l 647 664 m 385 616 q 311 595 341 616 q 265 522 281 574 q 249 379 249 470 q 256 275 249 316 l 470 586 q 385 616 440 616 m 385 142 q 461 162 431 142 q 506 234 490 183 q 522 376 522 286 q 513 489 522 443 l 297 174 q 335 149 313 157 q 385 142 357 142 z "},"ǿ":{"ha":771,"x_min":43,"x_max":728,"o":"m 647 664 q 728 378 728 563 q 639 83 728 181 q 385 -15 550 -15 q 208 24 282 -15 l 166 -37 l 73 28 l 120 97 q 43 376 43 196 q 132 674 43 576 q 385 772 220 772 q 558 735 485 772 l 601 797 l 694 731 l 647 664 m 385 616 q 311 595 341 616 q 265 522 281 574 q 249 379 249 470 q 256 275 249 316 l 470 586 q 385 616 440 616 m 385 142 q 461 162 431 142 q 506 234 490 183 q 522 376 522 286 q 513 489 522 443 l 297 174 q 335 149 313 157 q 385 142 357 142 m 290 856 l 437 1122 l 656 1122 l 478 856 l 290 856 z "},"õ":{"ha":771,"x_min":43,"x_max":728,"o":"m 385 -15 q 132 83 221 -15 q 43 376 43 180 q 132 674 43 576 q 385 772 220 772 q 639 673 550 772 q 728 378 728 574 q 639 83 728 181 q 385 -15 550 -15 m 385 146 q 456 166 428 146 q 497 236 483 186 q 512 376 512 287 q 497 519 512 468 q 455 591 483 571 q 385 612 428 612 q 316 591 343 612 q 274 520 288 571 q 259 379 259 469 q 274 237 259 288 q 315 166 288 186 q 385 146 342 146 m 492 892 q 435 901 462 892 q 373 926 409 910 q 318 949 340 942 q 276 956 297 956 q 209 942 239 956 q 148 897 178 928 l 148 1036 q 206 1076 174 1063 q 278 1089 237 1089 q 335 1080 308 1089 q 397 1055 361 1072 q 453 1033 433 1040 q 494 1026 473 1026 q 562 1040 532 1026 q 622 1085 592 1053 l 622 946 q 565 905 596 918 q 492 892 533 892 z "},"ṍ":{"ha":771,"x_min":43,"x_max":728,"o":"m 385 -15 q 132 83 221 -15 q 43 376 43 180 q 132 674 43 576 q 385 772 220 772 q 639 673 550 772 q 728 378 728 574 q 639 83 728 181 q 385 -15 550 -15 m 385 146 q 456 166 428 146 q 497 236 483 186 q 512 376 512 287 q 497 519 512 468 q 455 591 483 571 q 385 612 428 612 q 316 591 343 612 q 274 520 288 571 q 259 379 259 469 q 274 237 259 288 q 315 166 288 186 q 385 146 342 146 m 492 892 q 435 901 462 892 q 373 926 409 910 q 318 949 340 942 q 276 956 297 956 q 209 942 239 956 q 148 897 178 928 l 148 1036 q 206 1076 174 1063 q 278 1089 237 1089 q 335 1080 308 1089 q 397 1055 361 1072 q 453 1033 433 1040 q 494 1026 473 1026 q 562 1040 532 1026 q 622 1085 592 1053 l 622 946 q 565 905 596 918 q 492 892 533 892 m 316 1217 l 433 1428 l 656 1428 l 506 1217 l 316 1217 z "},"ṏ":{"ha":771,"x_min":43,"x_max":728,"o":"m 385 -15 q 132 83 221 -15 q 43 376 43 180 q 132 674 43 576 q 385 772 220 772 q 639 673 550 772 q 728 378 728 574 q 639 83 728 181 q 385 -15 550 -15 m 385 146 q 456 166 428 146 q 497 236 483 186 q 512 376 512 287 q 497 519 512 468 q 455 591 483 571 q 385 612 428 612 q 316 591 343 612 q 274 520 288 571 q 259 379 259 469 q 274 237 259 288 q 315 166 288 186 q 385 146 342 146 m 492 892 q 435 901 462 892 q 373 926 409 910 q 318 949 340 942 q 276 956 297 956 q 209 942 239 956 q 148 897 178 928 l 148 1036 q 206 1076 174 1063 q 278 1089 237 1089 q 335 1080 308 1089 q 397 1055 361 1072 q 453 1033 433 1040 q 494 1026 473 1026 q 562 1040 532 1026 q 622 1085 592 1053 l 622 946 q 565 905 596 918 q 492 892 533 892 m 222 1133 q 137 1163 168 1133 q 106 1244 106 1192 q 137 1327 106 1297 q 222 1357 168 1357 q 308 1327 276 1357 q 339 1244 339 1297 q 308 1163 339 1192 q 222 1133 276 1133 m 548 1133 q 463 1163 494 1133 q 431 1244 431 1192 q 463 1327 431 1297 q 548 1357 494 1357 q 633 1327 602 1357 q 665 1244 665 1297 q 633 1163 665 1192 q 548 1133 602 1133 z "},"ȭ":{"ha":771,"x_min":43,"x_max":728,"o":"m 385 -15 q 132 83 221 -15 q 43 376 43 180 q 132 674 43 576 q 385 772 220 772 q 639 673 550 772 q 728 378 728 574 q 639 83 728 181 q 385 -15 550 -15 m 385 146 q 456 166 428 146 q 497 236 483 186 q 512 376 512 287 q 497 519 512 468 q 455 591 483 571 q 385 612 428 612 q 316 591 343 612 q 274 520 288 571 q 259 379 259 469 q 274 237 259 288 q 315 166 288 186 q 385 146 342 146 m 492 892 q 435 901 462 892 q 373 926 409 910 q 318 949 340 942 q 276 956 297 956 q 209 942 239 956 q 148 897 178 928 l 148 1036 q 206 1076 174 1063 q 278 1089 237 1089 q 335 1080 308 1089 q 397 1055 361 1072 q 453 1033 433 1040 q 494 1026 473 1026 q 562 1040 532 1026 q 622 1085 592 1053 l 622 946 q 565 905 596 918 q 492 892 533 892 m 148 1178 l 148 1313 l 622 1313 l 622 1178 l 148 1178 z "},"œ":{"ha":1179,"x_min":43,"x_max":1144,"o":"m 1144 316 l 727 316 q 750 219 730 255 q 813 168 771 184 q 926 153 855 153 q 1106 178 1003 153 l 1106 12 q 899 -15 996 -15 q 724 11 795 -15 q 609 90 652 37 q 375 -15 530 -15 q 131 83 218 -15 q 43 376 43 181 q 130 674 43 575 q 375 772 217 772 q 519 741 458 772 q 619 651 581 710 q 714 741 656 710 q 849 772 772 772 q 1008 728 942 772 q 1109 595 1074 684 q 1144 376 1144 507 l 1144 316 m 838 633 q 777 616 801 633 q 740 557 753 599 q 726 443 727 515 l 947 443 q 933 557 946 515 q 898 616 921 599 q 838 633 874 633 m 385 146 q 455 166 427 146 q 496 236 482 186 q 510 376 510 287 q 495 519 510 467 q 453 591 481 571 q 385 612 426 612 q 316 591 343 612 q 274 520 288 571 q 259 379 259 469 q 273 237 259 288 q 315 166 288 186 q 385 146 342 146 z "},"p":{"ha":790,"x_min":75,"x_max":747,"o":"m 75 760 l 254 760 l 269 676 l 278 676 q 353 747 306 722 q 460 772 399 772 q 605 732 540 772 q 709 607 670 692 q 747 393 747 522 q 648 89 747 192 q 348 -14 549 -14 q 288 -10 324 -14 l 288 -306 l 75 -306 l 75 760 m 359 149 q 456 171 418 149 q 512 243 493 193 q 531 375 531 292 q 514 508 531 460 q 467 576 497 556 q 393 595 437 595 q 335 584 363 595 q 288 550 307 572 l 288 156 q 359 149 321 149 z "},"þ":{"ha":790,"x_min":75,"x_max":747,"o":"m 75 1122 l 288 1122 l 288 683 l 298 683 q 371 749 326 726 q 476 772 417 772 q 613 732 552 772 q 711 607 674 692 q 747 393 747 522 q 648 89 747 192 q 348 -14 549 -14 q 288 -10 324 -14 l 288 -306 l 75 -306 l 75 1122 m 359 149 q 456 171 418 149 q 512 243 493 193 q 531 375 531 292 q 514 508 531 460 q 466 575 497 556 q 389 594 435 594 q 333 584 360 594 q 288 553 306 574 l 288 156 q 359 149 321 149 z "},"q":{"ha":790,"x_min":43,"x_max":715,"o":"m 503 75 l 492 75 q 419 9 465 33 q 315 -14 374 -14 q 177 26 238 -14 q 80 152 116 67 q 43 365 43 237 q 143 670 43 567 q 447 772 242 772 q 587 761 516 772 q 715 731 658 751 l 715 -306 l 503 -306 l 503 75 m 401 164 q 457 174 430 164 q 503 204 484 185 l 503 601 q 428 610 463 610 q 301 558 343 610 q 259 383 259 506 q 276 250 259 299 q 324 183 293 202 q 401 164 356 164 z "},"r":{"ha":533,"x_min":75,"x_max":525,"o":"m 75 760 l 249 760 l 266 657 l 276 657 q 354 743 304 715 q 467 771 403 771 q 525 765 493 771 l 525 569 q 453 575 499 575 q 359 556 405 575 q 288 503 313 537 l 288 0 l 75 0 l 75 760 z "},"ŕ":{"ha":533,"x_min":75,"x_max":569,"o":"m 75 760 l 249 760 l 266 657 l 276 657 q 354 743 304 715 q 467 771 403 771 q 525 765 493 771 l 525 569 q 453 575 499 575 q 359 556 405 575 q 288 503 313 537 l 288 0 l 75 0 l 75 760 m 203 856 l 351 1122 l 569 1122 l 392 856 l 203 856 z "},"ř":{"ha":533,"x_min":62,"x_max":533,"o":"m 75 760 l 249 760 l 266 657 l 276 657 q 354 743 304 715 q 467 771 403 771 q 525 765 493 771 l 525 569 q 453 575 499 575 q 359 556 405 575 q 288 503 313 537 l 288 0 l 75 0 l 75 760 m 385 1122 l 533 1122 l 388 856 l 208 856 l 62 1122 l 210 1122 l 298 953 l 385 1122 z "},"ŗ":{"ha":533,"x_min":62,"x_max":525,"o":"m 75 760 l 249 760 l 266 657 l 276 657 q 354 743 304 715 q 467 771 403 771 q 525 765 493 771 l 525 569 q 453 575 499 575 q 359 556 405 575 q 288 503 313 537 l 288 0 l 75 0 l 75 760 m 180 -88 q 300 -192 300 -88 q 285 -271 300 -228 q 247 -345 270 -314 l 114 -345 q 152 -244 144 -284 q 84 -219 106 -240 q 62 -166 62 -199 q 91 -109 62 -129 q 180 -88 120 -88 z "},"ȑ":{"ha":533,"x_min":-28,"x_max":525,"o":"m 75 760 l 249 760 l 266 657 l 276 657 q 354 743 304 715 q 467 771 403 771 q 525 765 493 771 l 525 569 q 453 575 499 575 q 359 556 405 575 q 288 503 313 537 l 288 0 l 75 0 l 75 760 m 79 856 l -28 1122 l 144 1122 l 241 856 l 79 856 m 355 856 l 247 1122 l 419 1122 l 517 856 l 355 856 z "},"ṛ":{"ha":533,"x_min":65,"x_max":525,"o":"m 75 760 l 249 760 l 266 657 l 276 657 q 354 743 304 715 q 467 771 403 771 q 525 765 493 771 l 525 569 q 453 575 499 575 q 359 556 405 575 q 288 503 313 537 l 288 0 l 75 0 l 75 760 m 181 -310 q 96 -280 127 -310 q 65 -199 65 -251 q 96 -118 65 -148 q 181 -88 127 -88 q 266 -118 235 -88 q 297 -199 297 -148 q 266 -280 297 -251 q 181 -310 235 -310 z "},"ȓ":{"ha":533,"x_min":62,"x_max":534,"o":"m 75 760 l 249 760 l 266 657 l 276 657 q 354 743 304 715 q 467 771 403 771 q 525 765 493 771 l 525 569 q 453 575 499 575 q 359 556 405 575 q 288 503 313 537 l 288 0 l 75 0 l 75 760 m 62 875 q 129 1058 68 997 q 297 1119 190 1119 q 465 1058 403 1119 q 534 875 528 997 l 403 875 q 373 977 399 944 q 297 1010 346 1010 q 221 977 247 1010 q 192 875 195 945 l 62 875 z "},"ṟ":{"ha":533,"x_min":-50,"x_max":525,"o":"m 75 760 l 249 760 l 266 657 l 276 657 q 354 743 304 715 q 467 771 403 771 q 525 765 493 771 l 525 569 q 453 575 499 575 q 359 556 405 575 q 288 503 313 537 l 288 0 l 75 0 l 75 760 m -50 -264 l -50 -131 l 412 -131 l 412 -264 l -50 -264 z "},"s":{"ha":620,"x_min":36,"x_max":593,"o":"m 276 -15 q 57 18 156 -15 l 57 182 q 273 149 159 149 q 368 168 339 149 q 398 224 398 188 q 383 266 398 251 q 334 289 369 281 l 223 313 q 82 386 128 333 q 36 531 36 440 q 73 658 36 603 q 185 742 110 713 q 367 772 259 772 q 551 750 466 772 l 551 586 q 377 608 471 608 q 231 533 231 608 q 245 493 231 508 q 294 470 260 478 l 406 447 q 547 374 501 426 q 593 230 593 323 q 555 100 593 155 q 446 15 517 44 q 276 -15 375 -15 z "},"ś":{"ha":620,"x_min":36,"x_max":593,"o":"m 276 -15 q 57 18 156 -15 l 57 182 q 273 149 159 149 q 368 168 339 149 q 398 224 398 188 q 383 266 398 251 q 334 289 369 281 l 223 313 q 82 386 128 333 q 36 531 36 440 q 73 658 36 603 q 185 742 110 713 q 367 772 259 772 q 551 750 466 772 l 551 586 q 377 608 471 608 q 231 533 231 608 q 245 493 231 508 q 294 470 260 478 l 406 447 q 547 374 501 426 q 593 230 593 323 q 555 100 593 155 q 446 15 517 44 q 276 -15 375 -15 m 216 856 l 363 1122 l 582 1122 l 405 856 l 216 856 z "},"ṥ":{"ha":620,"x_min":36,"x_max":593,"o":"m 276 -15 q 57 18 156 -15 l 57 182 q 273 149 159 149 q 368 168 339 149 q 398 224 398 188 q 383 266 398 251 q 334 289 369 281 l 223 313 q 82 386 128 333 q 36 531 36 440 q 73 658 36 603 q 185 742 110 713 q 367 772 259 772 q 551 750 466 772 l 551 586 q 377 608 471 608 q 231 533 231 608 q 245 493 231 508 q 294 470 260 478 l 406 447 q 547 374 501 426 q 593 230 593 323 q 555 100 593 155 q 446 15 517 44 q 276 -15 375 -15 m 199 1094 q 119 1116 148 1094 q 91 1178 91 1138 q 119 1241 91 1219 q 199 1263 148 1263 q 279 1241 251 1263 q 307 1178 307 1219 q 279 1116 307 1138 q 199 1094 251 1094 m 216 856 l 363 1122 l 582 1122 l 405 856 l 216 856 z "},"š":{"ha":620,"x_min":36,"x_max":593,"o":"m 276 -15 q 57 18 156 -15 l 57 182 q 273 149 159 149 q 368 168 339 149 q 398 224 398 188 q 383 266 398 251 q 334 289 369 281 l 223 313 q 82 386 128 333 q 36 531 36 440 q 73 658 36 603 q 185 742 110 713 q 367 772 259 772 q 551 750 466 772 l 551 586 q 377 608 471 608 q 231 533 231 608 q 245 493 231 508 q 294 470 260 478 l 406 447 q 547 374 501 426 q 593 230 593 323 q 555 100 593 155 q 446 15 517 44 q 276 -15 375 -15 m 398 1122 l 546 1122 l 400 856 l 221 856 l 74 1122 l 222 1122 l 310 953 l 398 1122 z "},"ṧ":{"ha":620,"x_min":36,"x_max":593,"o":"m 276 -15 q 57 18 156 -15 l 57 182 q 273 149 159 149 q 368 168 339 149 q 398 224 398 188 q 383 266 398 251 q 334 289 369 281 l 223 313 q 82 386 128 333 q 36 531 36 440 q 73 658 36 603 q 185 742 110 713 q 367 772 259 772 q 551 750 466 772 l 551 586 q 377 608 471 608 q 231 533 231 608 q 245 493 231 508 q 294 470 260 478 l 406 447 q 547 374 501 426 q 593 230 593 323 q 555 100 593 155 q 446 15 517 44 q 276 -15 375 -15 m 310 1142 q 230 1163 258 1142 q 202 1226 202 1185 q 230 1288 202 1267 q 310 1310 258 1310 q 390 1288 362 1310 q 418 1226 418 1267 q 390 1163 418 1185 q 310 1142 362 1142 m 398 1122 l 546 1122 l 400 856 l 221 856 l 74 1122 l 222 1122 l 310 953 l 398 1122 z "}}}
